<svg width="61" height="78" viewBox="0 0 61 78" fill="none" xmlns="http://www.w3.org/2000/svg">
<path fill-rule="evenodd" clip-rule="evenodd" d="M30.2772 0C46.5312 0 54.7262 19.746 43.2222 31.25C31.7142 42.758 11.9722 34.5586 11.9722 18.305C11.9722 8.2 20.1675 0 30.2772 0ZM9.0742 43.031H51.4802C56.4646 43.031 60.5544 47.1208 60.5544 52.1052V68.4532C60.5544 73.4493 56.4763 77.5274 51.4802 77.5274L9.0742 77.5235C4.082 77.5235 0 73.4454 0 68.4493V52.1013C0 47.1208 4.0938 43.031 9.0742 43.031ZM51.4802 47.8279H9.0742C6.7148 47.8279 4.8008 49.742 4.8008 52.1013V68.4493C4.8008 70.797 6.7266 72.7227 9.0742 72.7227H51.4802C53.824 72.7227 55.7536 70.7969 55.7536 68.4493V52.1013C55.7536 49.7458 53.8356 47.8279 51.4802 47.8279ZM39.8282 8.7579C31.3438 0.273499 16.7692 6.3126 16.7692 18.3087C16.7692 30.3048 31.3392 36.3437 39.8282 27.8595C45.1016 22.5861 45.1016 14.0319 39.8282 8.7579Z" fill="white"/>
</svg>
