<svg width="877" height="72" viewBox="0 0 877 72" fill="none" xmlns="http://www.w3.org/2000/svg">
<path d="M688.965 0.5V0.599609H870.765V18.4004H690.465C688.366 18.4004 687.161 19.3788 686.638 20.6641C686.613 20.7475 686.578 20.9969 686.552 21.4043C686.528 21.7961 686.515 22.2762 686.515 22.7627C686.515 23.249 686.528 23.7357 686.552 24.1406C686.576 24.5356 686.609 24.8096 686.64 24.9375C687.171 26.1431 688.389 27.2002 690.465 27.2002H854.366V27.0996H854.866C865.143 27.0997 871.966 32.8789 875.001 40.2998H875.101L875.228 40.6113C875.535 41.3634 875.745 42.6703 875.882 44.1865C876.022 45.7235 876.09 47.5387 876.09 49.3496C876.09 51.1608 876.022 52.9766 875.882 54.5137C875.745 56.029 875.534 57.3346 875.228 58.0869C872.159 65.6572 865.388 71.4999 854.866 71.5H666.465V53.7002H852.765C854.881 53.7002 856.091 52.7049 856.606 51.5029C856.646 51.4107 856.698 51.1493 856.736 50.7246C856.772 50.3242 856.791 49.8387 856.791 49.3496C856.791 48.8607 856.772 48.3759 856.736 47.9756C856.698 47.5511 856.646 47.2897 856.606 47.1973C856.091 45.9953 854.881 45 852.765 45H688.465C677.945 45 671.072 39.0606 668.102 31.4883C667.796 30.7364 667.586 29.4363 667.449 27.9277C667.31 26.3984 667.241 24.592 667.241 22.7871C667.241 20.9823 667.31 19.1704 667.449 17.6289C667.586 16.1063 667.796 14.7912 668.1 14.0176L668.102 14.0117C671.17 6.44545 677.939 0.5 688.465 0.5H688.965Z" stroke="white"/>
<path d="M653.926 53.7002V71.5H440.826V53.7002H653.926ZM653.926 27.0996V44.9004H440.826V27.0996H653.926ZM653.926 0.5V18.2998H653.427L441.326 18.5H440.826V0.5H653.926Z" stroke="white"/>
<path d="M400.066 0.599976C410.259 0.599976 417.029 6.17596 420.141 13.3197L420.431 14.015V14.017C420.735 14.7906 420.945 16.1059 421.083 17.6302C421.222 19.1734 421.292 20.989 421.292 22.8002C421.292 24.6114 421.222 26.4269 421.083 27.9701C420.945 29.4942 420.735 30.8088 420.431 31.5824V31.5844C417.462 39.0585 410.588 45.0004 400.066 45.0004H316.001L320.882 52.3226L320.889 52.3324L320.895 52.3431C321.12 52.7175 321.389 52.9957 321.759 53.1615L321.924 53.226L321.976 53.2426L322.023 53.2709C322.416 53.5067 323.116 53.6996 324.167 53.6996H430.466V71.5004H324.167C320.503 71.5004 317.124 70.7875 314.243 69.347V69.3461C311.07 67.8094 308.406 65.5567 306.359 62.6908L306.356 62.6869L294.957 46.3861L294.947 46.3724L294.937 46.3568C294.697 45.9571 294.286 45.6264 293.88 45.4642L293.861 45.4564L293.842 45.4476C293.322 45.1873 292.6 45.0004 291.667 45.0004H246.566V71.5004H226.766V0.599976H400.066ZM246.566 27.1996H400.066C402.177 27.1996 403.384 26.2103 403.902 24.9144L403.907 24.9027C404.171 24.2863 404.266 23.6599 404.266 22.8002C404.266 22.0359 404.17 21.3106 403.907 20.6967C403.392 19.4948 402.182 18.5004 400.066 18.5004H399.566V18.3998H246.566V27.1996Z" stroke="white"/>
<path d="M58.4135 0.5V0.599609H191.814V0.5H211.714V71.5H191.814V54.2998C191.814 53.5358 191.718 52.8111 191.455 52.1973C190.939 50.9953 189.73 50 187.614 50H35.7944L22.8412 71.2598L22.6948 71.5H0.906677L1.39105 70.7334L40.0912 9.43262L40.1069 9.40918C42.1552 6.54149 44.8207 4.2867 47.9965 2.75L48.5561 2.48828C51.3727 1.21881 54.4658 0.500055 57.9135 0.5H58.4135ZM57.9135 18.4004C56.9797 18.4004 56.2585 18.5873 55.7377 18.8477L55.7055 18.8633L55.6723 18.874C55.2153 19.0263 54.8998 19.329 54.643 19.7568L54.6381 19.7637L54.6342 19.7705L46.6303 32.2002H189.714C190.181 32.2002 190.62 32.2261 191.043 32.251C191.303 32.2663 191.557 32.2788 191.814 32.2881V18.4004H57.9135Z" stroke="white"/>
</svg>
