<svg width="874" height="583" viewBox="0 0 874 583" fill="none" xmlns="http://www.w3.org/2000/svg">
<path d="M725.746 32.83L710.627 14.3416V32.9164H706.308V10.6266H712.787L727.82 29.2015V10.6266H732.14V32.83H725.746Z" fill="white"/>
<path d="M760.996 32.83L758.404 28.0783H743.457L740.866 32.83H736.2L748.295 10.6266H753.652L765.747 32.83H760.996ZM750.974 14.3416L745.704 24.1906H756.33L750.974 14.3416Z" fill="white"/>
<path d="M779.138 14.6007V32.9164H774.819V14.6007H764.192V10.6266H789.765V14.6007H779.138Z" fill="white"/>
<path d="M794.517 32.83V10.6266H798.836V32.83H794.517Z" fill="white"/>
<path d="M826.915 32.8299L818.103 24.1041L809.29 32.8299H803.847L815.424 21.5122L804.279 10.5401H809.722L818.189 18.9204L826.656 10.5401H832.099L820.954 21.5122L832.531 32.8299H826.915Z" fill="white"/>
<path d="M838.06 32.83V10.6266H842.379V32.83H838.06Z" fill="white"/>
<path d="M860.695 13.8231C855.771 13.8231 853.265 14.6871 853.265 16.5014C853.265 18.9204 857.239 18.5748 863.633 19.1796C870.631 19.8708 874 21.4259 874 25.832C874 30.5837 869.68 33.3483 861.559 33.3483C855.857 33.3483 851.365 32.0524 847.822 29.4606L850.155 26.3504C853.179 28.4238 856.98 29.547 861.386 29.547C866.484 29.547 869.248 28.1646 869.248 26.0048C869.248 24.8816 868.384 24.0177 866.743 23.4993C864.324 22.8082 860.868 23.0674 856.721 22.6354C851.278 22.117 848.686 20.3891 848.686 16.8469C848.686 12.6136 852.92 9.93536 860.609 9.93536C865.62 9.93536 869.68 11.0585 872.791 13.2184L870.112 16.0694C867.175 14.6007 864.151 13.8231 860.695 13.8231Z" fill="white"/>
<path d="M637.796 11.7498C638.056 11.577 638.228 11.3178 638.66 11.4042C638.747 11.4042 638.747 11.3178 638.833 11.3178C639.006 11.2314 639.092 10.8858 639.438 11.0586H639.524C639.611 10.7131 639.956 10.7994 640.129 10.5403C640.216 10.4539 640.388 10.3675 640.475 10.4539C640.648 10.5403 640.475 10.6267 640.475 10.7994C640.648 10.7994 640.734 10.7994 640.734 10.5403C640.648 10.3675 640.734 10.3675 640.907 10.2811C641.079 10.1947 641.252 10.1947 641.425 10.1083C641.511 10.1083 641.684 10.1947 641.598 9.9355C641.598 9.9355 641.598 9.9355 641.598 9.84911C641.684 9.67632 641.857 10.0219 641.943 9.76271C642.03 9.58992 642.116 9.67632 642.116 9.76271C642.116 9.8491 642.116 9.9355 642.203 9.84911C642.289 9.84911 642.289 9.76271 642.289 9.67632C642.289 9.58992 642.289 9.50353 642.375 9.50353C642.462 9.50353 642.462 9.58992 642.462 9.67632C642.462 9.76271 642.548 9.76271 642.635 9.76271C642.721 9.76271 642.721 9.67632 642.721 9.58992C642.721 9.50353 642.635 9.41713 642.721 9.24434L642.635 9.15795C642.462 9.33074 642.462 9.24434 642.375 9.07155C642.375 8.98516 642.289 9.07155 642.289 9.15795C642.203 9.41713 642.116 9.33074 642.03 9.24434H641.943C641.684 9.50353 641.166 9.33074 641.166 9.84911H641.079C640.475 10.0219 639.87 10.3675 639.265 10.6267C639.265 10.6267 639.092 10.6267 639.179 10.7131C639.265 10.8858 639.179 10.7994 639.092 10.7994C638.747 10.7994 638.401 11.145 638.142 11.2314V11.3178C638.056 11.4906 637.969 11.577 637.71 11.577C637.624 11.577 637.537 11.4906 637.537 11.577C637.537 11.6634 637.624 11.7498 637.624 11.8362C637.71 11.9226 637.71 11.7498 637.796 11.7498Z" fill="white"/>
<path d="M685.141 16.7606C685.054 16.7606 684.795 17.1062 684.882 16.6742C684.882 16.5878 684.882 16.5878 684.795 16.5878C684.709 16.5878 684.709 16.5878 684.622 16.6742C684.45 16.847 684.536 17.0198 684.622 17.1062C684.45 17.3653 684.363 17.7109 684.104 17.8837C683.931 17.9701 683.759 18.1429 683.586 18.3157C683.499 18.3157 683.413 18.3157 683.327 18.2293C683.327 18.1429 683.413 18.0565 683.327 18.0565C683.24 17.9701 683.24 18.0565 683.154 18.0565C683.154 18.4885 682.808 18.5749 682.549 18.7477L682.463 18.834C682.376 19.0068 682.203 18.9204 682.117 19.0068C682.031 19.0932 682.031 19.0932 681.944 19.1796C681.944 19.266 681.858 19.266 681.858 19.3524C681.771 19.6116 681.858 19.9572 681.339 19.7844C681.253 19.7844 681.167 19.8708 681.167 19.9572C681.08 19.9572 680.994 20.0436 680.907 20.0436C680.735 20.2164 680.994 20.3892 680.907 20.5619C680.907 20.5619 680.907 20.6483 680.821 20.6483C680.735 20.8211 680.562 20.9075 680.476 21.0803C680.648 21.0803 680.735 20.9075 680.821 20.8211C680.994 20.8211 681.167 20.6483 681.253 20.5619C681.512 20.3892 681.771 20.2164 682.031 19.9572C682.117 19.9572 682.203 19.8708 682.29 19.7844C682.376 19.698 682.376 19.698 682.463 19.6116C682.635 19.5252 682.808 19.4388 682.981 19.266C683.067 19.1796 683.154 19.0932 683.327 19.0068C683.586 18.9204 683.759 18.834 683.931 18.6613C684.018 18.6613 684.018 18.5749 684.104 18.5749C684.45 18.4021 684.795 18.1429 685.054 17.9701C685.659 17.4517 686.264 16.9334 687.042 16.6742C687.128 16.5878 687.128 16.415 687.214 16.3286C687.301 16.3286 687.301 16.3286 687.301 16.2422C687.387 16.1558 687.473 15.8966 687.646 16.0694C687.819 16.0694 687.992 15.8966 688.165 15.8102C688.337 15.7238 688.337 15.6374 688.251 15.4647C688.424 15.2919 688.856 15.4647 688.942 15.1191C688.942 15.0327 689.029 15.2055 689.115 15.2055C689.288 15.2055 689.374 15.1191 689.461 15.0327C689.633 15.0327 689.461 14.7735 689.633 14.6871C689.979 14.6007 690.152 14.2551 690.497 14.4279C690.497 14.4279 690.584 14.4279 690.67 14.3415C690.756 14.0823 691.102 14.0823 691.275 13.9959C691.448 13.9095 691.448 13.7368 691.361 13.564C691.275 13.3912 691.188 13.564 691.102 13.6504C690.929 13.7368 690.756 13.9095 690.67 13.8232C690.411 13.7368 690.325 13.8232 690.325 14.0823C690.325 14.1687 690.325 14.1687 690.238 14.1687C690.152 14.1687 690.152 14.0823 690.152 13.9959C690.152 13.7368 690.152 13.564 690.325 13.3912C690.325 13.4776 690.238 13.6504 690.411 13.6504C690.497 13.6504 690.67 13.4776 690.67 13.4776C690.67 13.3912 690.584 13.132 690.497 13.132C690.325 13.0456 690.238 13.0456 690.411 12.8728C690.411 12.7864 690.497 12.7864 690.497 12.7C690.584 12.6136 690.584 12.5272 690.584 12.4408C690.67 12.3544 690.756 12.3544 690.843 12.3544C690.929 12.4408 690.756 12.5272 690.756 12.7C690.929 12.7 691.016 12.6136 691.102 12.5272C691.275 12.3544 691.448 12.1817 691.707 12.0089C691.62 12.0089 691.62 12.0089 691.534 12.0089C691.534 12.0089 691.62 12.0089 691.707 12.0089C691.793 12.0089 691.88 12.0089 691.88 11.9225L691.966 11.8361C692.225 11.6633 692.484 11.4905 692.657 11.3177C692.744 11.2313 692.916 11.0585 693.089 11.0585H693.176C693.003 10.9721 693.003 10.8857 692.916 10.7993C692.916 10.7993 692.916 10.7993 692.83 10.7993C692.83 10.7993 692.83 10.7993 692.916 10.7993C692.916 10.7129 693.003 10.7129 693.003 10.6265C693.089 10.5402 693.176 10.4538 693.262 10.5402C693.435 10.6265 693.348 10.7129 693.262 10.7993C693.176 10.8857 693.176 10.9721 693.262 11.0585C693.262 11.1449 693.176 11.1449 693.176 11.2313C693.089 11.3177 693.003 11.3177 692.916 11.4041C692.83 11.4905 692.744 11.4905 692.744 11.5769C692.83 11.7497 692.916 11.5769 693.003 11.5769C693.089 11.5769 693.176 11.4905 693.262 11.4041C693.348 11.3177 693.521 11.3177 693.608 11.2313C693.694 11.1449 693.953 11.0585 693.953 10.7993C693.953 10.7129 693.953 10.7129 693.953 10.6265V10.5402C694.04 10.4538 694.126 10.3674 694.212 10.3674C694.558 10.281 694.817 10.1082 695.076 9.93539C695.249 9.93539 695.335 9.93539 695.335 9.7626C695.681 9.7626 696.027 9.58981 696.199 9.41702C696.372 9.24423 696.372 9.07144 696.631 9.24423C696.631 9.24423 696.718 9.24423 696.718 9.15784L696.804 9.07144C696.891 8.89866 697.15 9.15784 697.15 8.89866C697.15 8.81226 697.236 8.72587 697.323 8.72587C697.582 8.81226 697.668 8.63947 697.754 8.46668H697.841C698.014 8.46668 698.446 8.2075 698.532 8.03471C698.618 8.03471 698.618 8.2075 698.791 8.1211C698.791 8.03471 698.618 7.86192 698.791 7.77552C698.878 7.77552 698.964 7.77552 698.964 7.68913C699.742 7.60273 699.914 7.60273 700.087 7.51634C700.174 7.51634 700.174 7.42995 700.174 7.34355C700.174 7.25716 700.087 7.34355 700.001 7.34355C699.828 7.42995 699.742 7.51634 699.569 7.60273C699.482 7.60273 699.482 7.60273 699.396 7.60273C699.31 7.68913 699.223 7.68913 699.137 7.77552C698.964 7.94831 698.878 7.86192 698.791 7.68913C698.878 7.60273 698.964 7.60273 698.964 7.51634C699.396 7.42994 699.655 7.08437 700.087 6.99797C700.346 6.91158 700.519 6.73879 700.692 6.65239C700.865 6.566 701.124 6.566 701.124 6.30681C701.124 6.22042 701.21 6.22042 701.297 6.22042C701.297 6.30681 701.383 6.30681 701.469 6.22042C701.729 5.96124 701.988 5.87484 702.161 5.70205C702.247 5.70205 702.333 5.61566 702.333 5.61566C702.679 5.52926 702.852 5.44287 702.852 5.01089C702.593 5.09729 702.42 5.18368 702.161 5.27008C702.074 5.27008 702.074 5.27008 701.988 5.18368H702.074C702.161 5.18368 702.333 5.18368 702.333 5.01089C702.333 4.9245 702.333 4.8381 702.247 4.8381C702.074 4.75171 702.074 4.9245 702.074 5.01089C701.901 5.27008 701.988 4.8381 701.901 4.9245C701.815 4.9245 701.729 5.01089 701.729 4.9245C701.815 4.8381 701.988 4.8381 701.988 4.66531C702.161 4.66531 702.333 4.49253 702.42 4.40613C702.506 4.40613 702.679 4.40613 702.765 4.31974C702.852 4.23334 702.938 4.14695 703.111 4.14695C703.889 3.80137 704.666 3.71497 705.357 3.11021C704.752 3.36939 704.061 3.45579 703.457 3.80137L703.37 3.71497L703.284 3.62858C703.111 3.36939 702.852 3.45579 702.679 3.54218C702.506 3.71497 702.247 3.54218 702.074 3.62858C701.988 3.62858 701.901 3.71497 701.815 3.62858C701.729 3.54218 701.901 3.54218 701.901 3.45579C702.161 3.11021 702.593 3.02381 703.025 2.85103C702.679 2.76463 702.333 2.85103 702.074 2.93742C701.988 2.93742 701.901 2.93742 701.901 2.85103C701.901 2.59184 701.815 2.67824 701.729 2.76463C701.556 2.85103 701.469 2.93742 701.383 3.02381C701.124 3.02381 700.951 3.283 700.692 3.11021C700.519 3.1966 700.433 3.36939 700.26 3.36939C700.087 3.283 699.914 3.45579 699.742 3.54218C699.828 3.45579 699.742 3.283 699.914 3.1966C700.346 2.93742 700.865 2.76463 701.297 2.67824C701.642 2.59184 701.988 2.41905 702.333 2.24626C702.593 2.15987 702.852 2.15987 703.111 1.98708C702.938 1.81429 702.852 1.81429 702.679 1.90068C701.729 2.24626 700.778 2.50545 699.828 2.59184C699.655 2.59184 699.569 2.67824 699.742 2.85103C699.828 2.93742 699.828 2.93742 699.742 3.02381C699.31 2.85103 699.223 2.93742 699.31 3.36939C699.137 3.45579 698.964 3.45579 698.791 3.54218C698.791 3.45579 698.878 3.36939 698.878 3.36939C699.223 3.283 699.05 3.11021 699.05 2.85103C698.878 2.85103 698.878 3.02381 698.791 3.11021C698.705 3.1966 698.618 3.36939 698.446 3.36939C698.446 3.02381 698.618 2.85103 698.878 2.67824C699.137 2.59184 699.137 2.41905 698.964 2.24626C698.791 2.15987 698.618 2.07347 698.446 1.98708C698.186 1.81429 698.014 1.81429 697.841 2.15987C697.754 2.33266 697.582 2.33266 697.495 2.33266C697.323 2.33266 697.323 2.41905 697.236 2.50545C697.15 2.67824 697.323 2.76463 697.409 2.85103C697.236 3.1966 696.891 3.283 696.545 3.36939C696.286 3.36939 696.545 3.02381 696.286 3.02381C696.286 2.93742 696.286 2.85103 696.459 2.76463C696.631 2.67824 696.718 2.59184 696.631 2.50545C696.545 2.41905 696.459 2.50545 696.372 2.50545H696.286H696.199C696.113 2.41905 696.199 2.41905 696.286 2.41905C696.459 2.33266 696.631 2.15987 696.804 2.07347C696.891 2.07347 696.891 1.98708 696.977 1.98708C697.15 1.98708 697.236 1.81429 697.323 1.6415C697.409 1.6415 697.495 1.5551 697.582 1.46871C697.668 1.38232 697.841 1.29592 697.927 1.20953C698.186 1.12313 698.532 1.03674 698.618 0.777552C698.791 0.691158 698.964 0.518368 699.223 0.691158C699.31 0.777552 699.396 0.691158 699.482 0.691158C699.828 0.604763 699.482 0.345579 699.569 0.259184C699.655 0.172789 699.742 0.172789 699.742 0C699.31 0.0863947 698.964 0.259184 698.532 0.345579C698.446 0.345579 698.359 0.345579 698.273 0.431974C698.186 0.431974 698.186 0.518368 698.1 0.604763C698.014 0.604763 698.014 0.691158 697.927 0.691158C697.754 0.604763 697.582 0.691158 697.409 0.777552C697.236 0.691158 697.063 0.691158 697.063 0.863947C696.891 0.950342 696.804 1.03674 696.631 1.12313C696.545 1.20953 696.545 1.29592 696.459 1.20953C696.372 1.20953 696.286 1.20953 696.199 1.29592C696.027 1.12313 695.94 1.29592 695.854 1.38232C695.681 1.38232 695.508 1.5551 695.249 1.5551C694.99 1.6415 694.817 1.81429 694.644 2.07347C694.471 2.07347 694.558 1.81429 694.385 1.81429C694.299 1.98708 694.212 2.07347 694.126 2.24626C694.04 2.24626 693.953 2.33266 693.953 2.15987C693.953 1.90068 693.78 2.07347 693.78 2.07347C693.694 2.07347 693.608 2.15987 693.608 2.24626C693.608 2.33266 693.521 2.50545 693.435 2.50545C693.435 2.15987 693.435 2.15987 693.262 2.24626C693.262 2.41905 693.176 2.33266 693.089 2.41905C693.089 2.33266 693.003 2.33266 692.916 2.41905C692.83 2.50545 692.657 2.59184 692.571 2.50545C692.484 2.41905 692.398 2.50545 692.398 2.59184C692.398 2.67824 692.398 2.76463 692.398 2.76463C692.139 2.76463 692.225 2.50545 692.139 2.41905C692.139 2.33266 692.312 2.15987 692.139 2.15987C691.966 2.07347 692.052 2.33266 691.966 2.41905C691.966 2.41905 691.88 2.50545 691.966 2.50545C692.139 2.85103 691.88 2.67824 691.707 2.67824C691.62 2.59184 691.707 2.50545 691.534 2.50545C691.448 2.50545 691.448 2.67824 691.534 2.67824C691.62 2.93742 691.448 2.76463 691.361 2.76463C691.361 2.76463 691.275 2.76463 691.275 2.85103C691.275 3.11021 691.102 3.02381 691.016 3.02381C690.929 2.93742 690.929 2.93742 690.843 2.93742C690.756 2.93742 690.67 3.02381 690.67 3.11021C690.584 3.283 690.584 3.11021 690.497 3.11021C690.411 3.02381 690.411 3.02381 690.497 2.93742C690.584 2.93742 690.67 2.85103 690.756 2.85103C690.843 2.85103 690.843 2.76463 690.843 2.76463C690.843 2.67824 690.843 2.67824 690.756 2.59184C690.67 2.50545 690.67 2.59184 690.584 2.67824C690.497 2.76463 690.497 2.76463 690.411 2.85103C690.325 2.85103 690.152 2.85103 690.152 3.02381C689.979 3.1966 690.238 3.36939 690.065 3.54218C689.979 3.62858 689.893 3.62858 689.806 3.54218C689.806 3.36939 689.979 3.1966 689.893 3.1966C689.72 3.11021 689.633 3.283 689.547 3.36939C689.633 3.54218 689.806 3.283 689.806 3.45579C689.806 3.54218 689.806 3.71497 689.633 3.71497C689.633 3.71497 689.633 3.71497 689.633 3.80137C689.547 3.80137 689.461 3.80137 689.374 3.80137C689.288 3.80137 689.288 3.80137 689.288 3.71497C689.374 3.62858 689.461 3.62858 689.547 3.54218C689.547 3.45579 689.461 3.45579 689.461 3.45579C689.288 3.36939 689.288 3.54218 689.201 3.62858C689.115 3.71497 689.115 3.80137 689.029 3.80137C688.942 3.80137 688.856 3.88776 688.856 3.97416C688.942 4.06055 689.115 3.88776 689.115 4.06055C689.115 4.14695 689.029 4.14695 689.029 4.23334C688.942 4.40613 688.942 4.49253 689.115 4.40613C689.201 4.40613 689.288 4.31974 689.374 4.23334V4.14695C689.461 4.14695 689.461 4.14695 689.547 4.14695H689.633C689.806 4.14695 689.893 4.14695 690.065 4.06055L690.152 4.14695C689.72 4.23334 689.288 4.40613 688.942 4.49253C688.597 4.49253 688.683 4.57892 688.683 4.75171C688.597 4.75171 688.597 4.75171 688.51 4.75171C688.51 4.75171 688.51 4.75171 688.597 4.66531C688.597 4.57892 688.683 4.40613 688.51 4.31974C688.51 4.23334 688.424 4.23334 688.424 4.14695C688.337 4.14695 688.337 4.14695 688.251 4.14695L688.165 4.06055C688.165 3.97416 688.078 3.97416 688.078 3.97416C687.905 3.97416 687.733 3.88776 687.56 3.80137C687.646 3.62858 687.56 3.62858 687.473 3.62858V3.71497C687.56 3.80137 687.646 3.97416 687.56 4.14695C687.473 4.23334 687.56 4.40613 687.733 4.31974C687.992 4.14695 687.992 4.31974 687.992 4.49253C687.733 4.75171 687.473 4.57892 687.301 4.31974C687.214 4.40613 687.301 4.49253 687.301 4.57892C687.301 4.66531 687.301 4.75171 687.214 4.75171C687.214 4.75171 687.214 4.75171 687.128 4.75171C687.214 4.57892 687.042 4.57892 686.955 4.49253C686.955 4.40613 686.955 4.40613 686.869 4.31974C686.869 4.23334 686.955 4.23334 686.955 4.06055C686.869 4.06055 686.782 4.06055 686.696 4.14695C686.35 4.23334 686.264 4.57892 686.178 4.8381C686.178 4.9245 686.091 5.09729 686.091 5.18368H686.005C685.918 5.18368 685.918 5.18368 685.832 5.09729C685.659 4.9245 685.573 5.01089 685.486 5.18368C685.486 5.18368 685.486 5.27008 685.4 5.27008C685.227 5.35647 685.4 5.35647 685.4 5.44287C685.227 5.52926 685.054 5.61566 684.882 5.70205C684.968 5.52926 684.709 5.61566 684.709 5.52926C684.709 5.44287 684.795 5.35647 684.622 5.27008C684.45 5.27008 684.363 5.27008 684.277 5.44287C684.018 5.52926 683.759 5.52926 683.672 5.78845C683.586 5.78845 683.499 5.70205 683.413 5.87484C683.413 5.96124 683.413 5.96123 683.413 6.04763C683.327 6.13402 683.24 6.13402 683.154 6.22042C683.154 6.30681 683.154 6.30681 683.154 6.39321C683.067 6.39321 682.981 6.39321 682.895 6.39321C682.981 6.39321 682.981 6.30681 683.067 6.22042C683.067 6.13402 683.067 6.13402 682.981 6.13402C682.808 6.13402 682.29 6.4796 682.203 6.65239C682.031 6.65239 681.944 6.65239 681.771 6.65239C681.685 6.65239 681.599 6.65239 681.512 6.73879C681.512 7.08437 681.339 6.99797 681.08 6.91158C680.821 6.91158 680.735 7.08437 680.562 7.25716L680.476 7.34355C680.389 7.34355 680.216 7.34355 680.13 7.42995C679.698 7.68913 679.266 7.94831 678.834 8.29389C678.834 8.29389 678.834 8.29389 678.748 8.29389C678.316 8.55308 677.797 8.81226 677.365 9.07144C677.279 9.07144 677.279 9.07144 677.279 9.15784C677.193 9.24423 677.106 9.33063 676.933 9.41702C676.847 9.41702 676.761 9.50342 676.674 9.58981C676.501 9.67621 676.415 9.67621 676.242 9.7626C676.156 9.7626 676.156 9.849 676.156 9.849C676.156 9.93539 676.156 9.93539 676.069 9.93539C676.069 9.849 676.069 9.849 676.156 9.849C675.897 10.0218 675.637 10.1946 675.378 10.3674C675.033 10.5402 674.687 10.7993 674.341 11.0585C674.082 11.2313 673.823 11.5769 673.391 11.4041C673.305 11.4041 673.391 11.4905 673.391 11.5769C673.391 11.5769 673.391 11.5769 673.305 11.6633C673.132 11.7497 672.959 11.9225 672.873 12.0089C672.786 12.0953 672.614 12.0089 672.614 12.1817C672.441 12.1817 672.354 12.268 672.268 12.3544C672.182 12.3544 672.182 12.1817 672.095 12.1817C672.009 12.1817 672.095 12.268 672.095 12.3544V12.4408C671.836 12.4408 671.836 12.7864 671.663 12.8728C671.577 12.8728 671.49 12.8728 671.49 12.9592C671.49 12.9592 671.49 12.9592 671.49 13.0456C671.49 13.0456 671.49 13.0456 671.49 12.9592C671.231 12.8728 671.058 12.9592 670.972 13.2184C670.886 13.3048 670.886 13.3912 670.713 13.3912C670.626 13.3912 670.713 13.4776 670.713 13.4776C670.54 13.4776 670.54 13.6504 670.367 13.7368C670.108 13.7368 670.108 13.9959 669.935 14.0823C669.849 14.0823 669.763 14.0823 669.763 14.1687C669.676 14.2551 669.503 14.0823 669.503 14.2551C669.331 14.3415 669.244 14.6871 668.899 14.6871C668.812 15.0327 668.553 15.0327 668.294 15.1191L668.207 15.2055V15.2919C668.207 15.2919 668.207 15.2919 668.207 15.2055C668.121 15.2919 667.862 15.3783 667.948 15.551C667.775 15.6374 667.689 15.7238 667.603 15.983L667.516 16.0694C667.171 15.8966 667.171 16.1558 666.998 16.3286C666.998 16.3286 666.998 16.415 666.912 16.415C666.912 16.5014 666.652 16.5014 666.739 16.5878C666.652 16.6742 666.48 16.6742 666.566 16.847C666.48 16.847 666.393 16.6742 666.393 16.847C666.134 16.9334 665.961 17.1062 665.788 17.2789C665.702 17.3653 665.616 17.3653 665.529 17.4517C665.27 17.4517 665.097 17.6245 665.184 17.9701L665.097 18.0565C665.011 18.0565 665.011 18.0565 664.924 18.0565C664.752 18.0565 664.838 18.3157 664.665 18.3157C664.579 18.3157 664.579 18.1429 664.492 18.1429C664.406 18.1429 664.406 18.2293 664.492 18.3157C664.233 18.4885 664.06 18.7477 663.888 19.0068C663.801 19.0932 663.629 19.0932 663.629 19.266C663.542 19.266 663.369 19.266 663.283 19.3524C663.197 19.4388 663.11 19.5252 663.024 19.5252C662.851 19.6116 662.851 19.698 662.937 19.8708C662.937 19.8708 662.937 19.8708 662.851 19.9572C662.765 19.9572 662.678 20.0436 662.592 20.0436C662.333 20.2164 662.333 20.4755 662.419 20.7347C662.333 20.8211 662.333 20.8211 662.246 20.8211C662.073 20.5619 662.246 20.2164 662.073 19.9572C662.073 19.8708 662.073 19.8708 662.073 19.7844C661.987 19.698 661.987 19.5252 661.901 19.4388C661.901 19.266 661.901 19.0068 661.728 18.834C661.641 18.4885 661.296 18.2293 661.296 17.7973C661.296 17.7109 661.296 17.6245 661.382 17.5381C661.382 17.2789 661.209 17.1062 661.037 17.1062C661.037 17.1062 661.037 17.1062 660.95 17.0198C660.95 17.0198 660.95 17.0198 660.95 16.9334C661.123 16.847 661.209 16.5878 661.037 16.5014C660.864 16.2422 660.777 16.1558 660.95 15.983C660.95 15.8966 661.037 15.8102 660.95 15.8102C660.864 15.7238 660.95 15.551 660.95 15.4647C660.95 15.2055 660.864 14.9463 660.864 14.7735C660.864 14.6007 660.777 14.6007 660.691 14.6007L660.605 14.5143C660.605 14.4279 660.777 14.3415 660.605 14.1687C660.518 13.9959 660.518 13.7368 660.259 13.6504C660.432 13.3912 660.173 13.2184 660 13.0456C660 12.9592 659.914 12.8728 659.914 12.7864C659.914 12.6136 659.914 12.3544 659.654 12.3544C659.654 12.1817 659.482 12.0953 659.654 11.9225C659.741 11.8361 659.568 11.8361 659.482 11.8361C659.395 12.0089 659.309 12.1817 659.482 12.3544C659.309 12.6136 659.482 12.7864 659.482 13.0456C659.568 13.132 659.482 13.3048 659.568 13.3912C659.568 13.3912 659.568 13.3912 659.654 13.3912C659.654 13.3912 659.654 13.3912 659.568 13.3912C659.568 13.4776 659.568 13.564 659.395 13.564C659.395 13.3912 659.309 13.2184 659.136 13.132C659.05 13.0456 658.963 12.9592 658.79 12.9592C658.79 12.9592 658.704 12.9592 658.704 12.8728C658.704 12.7864 658.704 12.7864 658.79 12.7864C658.877 12.7864 658.963 12.7864 658.877 12.7C658.79 12.6136 658.79 12.4408 658.618 12.3544C658.531 12.3544 658.358 12.268 658.445 12.1817C658.445 12.0089 658.358 11.9225 658.272 11.8361C658.186 11.6633 658.013 11.6633 658.013 11.9225L657.926 12.0089V11.9225C657.84 11.7497 657.754 11.4905 657.581 11.4041C657.063 10.8857 656.803 10.1946 656.112 9.849C656.112 9.7626 656.026 9.58981 655.853 9.58981C655.853 9.58981 655.853 9.58981 655.767 9.58981C655.507 9.33063 655.248 9.07144 654.816 8.98505C654.557 8.89866 654.384 8.81226 654.211 8.63947C653.866 8.55308 653.52 8.38029 653.175 8.38029C652.916 8.29389 652.916 8.03471 652.656 7.94831C652.57 7.86192 652.484 7.77552 652.052 7.77552C651.965 7.77552 651.965 7.77552 651.879 7.77552C652.311 7.60273 652.052 7.60273 651.792 7.60273C651.706 7.60273 651.706 7.60273 651.62 7.60273C651.36 7.60273 651.188 7.60273 650.928 7.60273H650.842C650.756 7.51634 650.756 7.42994 650.669 7.51634C650.41 7.51634 650.151 7.42994 649.892 7.51634C649.805 7.51634 649.719 7.51634 649.633 7.51634C649.373 7.42994 649.201 7.68913 649.028 7.60273C648.855 7.60273 648.682 7.60273 648.509 7.60273C648.423 7.60273 648.337 7.60273 648.337 7.60273C648.25 7.60273 648.164 7.60273 648.077 7.68913C647.905 7.77552 647.905 7.86192 648.077 7.86192C648.25 7.86192 648.423 7.86192 648.596 7.77552C648.682 7.77552 648.769 7.86192 648.855 7.86192C649.287 7.77552 649.719 7.77552 650.151 7.68913C650.237 7.68913 650.237 7.60273 650.324 7.68913C650.583 7.86192 650.928 7.86192 651.188 7.86192C651.274 7.86192 651.274 7.86192 651.36 7.94831C651.274 8.03471 651.188 7.94831 651.101 8.03471C650.151 8.03471 649.287 8.1211 648.423 8.29389C647.473 8.46668 646.522 8.55308 645.658 9.07144C645.572 8.98505 645.658 8.89866 645.486 8.89866C645.399 8.89866 645.313 8.89866 645.399 9.07144C645.399 9.15784 645.313 9.24423 645.226 9.15784C645.14 9.07144 644.967 8.98505 645.226 8.81226C645.313 8.72587 645.313 8.63947 645.313 8.55308L645.226 8.46668C645.054 8.38029 644.881 8.38029 644.794 8.63947C644.622 8.72587 644.362 8.72587 644.19 8.63947C644.19 8.81226 644.017 8.98505 644.276 9.07144C644.362 9.15784 644.362 9.41702 644.622 9.24423C644.794 9.07144 644.967 9.07144 645.14 9.24423C644.794 9.41702 644.449 9.58981 644.103 9.67621C643.844 9.7626 643.585 9.849 643.412 10.1082C643.153 10.281 642.894 10.4538 642.721 10.6265C642.462 10.7129 642.203 10.6265 642.03 10.7993C641.857 10.7993 641.857 10.8857 641.771 10.9721C641.425 10.9721 641.252 11.2313 640.993 11.3177C640.907 11.4041 640.647 11.4041 640.647 11.5769C640.475 11.6633 640.302 11.7497 640.216 11.8361C639.87 12.0953 639.352 12.3544 639.006 12.6136C638.574 13.0456 638.056 13.3048 637.537 13.7368C636.932 14.2551 636.241 14.5143 635.723 15.0327C635.464 15.2055 635.205 15.3783 635.032 15.6374C634.859 15.8966 634.6 15.8102 634.427 16.0694C634.341 16.1558 634.254 16.2422 634.168 16.415C633.736 16.415 633.649 16.7606 633.477 17.0198C633.39 17.1062 633.39 17.1062 633.304 17.1925L633.218 17.2789C633.045 17.2789 632.958 17.4517 632.786 17.3653C632.613 17.3653 632.44 17.4517 632.267 17.6245C631.922 17.7109 631.835 18.0565 631.835 18.3157C631.749 18.5749 631.662 18.7477 631.49 18.9204C631.317 18.834 631.144 18.9204 630.885 19.0932C630.885 19.3524 630.798 19.5252 630.712 19.698C630.453 19.8708 630.366 20.2164 630.194 20.4755C630.107 20.6483 630.021 20.9075 629.848 20.9939C629.762 21.0803 629.675 21.1667 629.675 21.3395C629.675 21.4259 629.675 21.5123 629.675 21.5987C629.589 21.6851 629.503 21.6851 629.416 21.7715C629.416 21.7715 629.416 21.7715 629.33 21.7715C629.071 21.6851 629.157 21.9443 629.157 22.0307C628.984 22.2034 629.157 22.2898 629.33 22.2898C629.416 22.2898 629.503 22.2034 629.589 22.2898C629.416 22.3762 629.503 22.549 629.416 22.6354C629.416 22.6354 629.33 22.7218 629.416 22.8082C629.503 22.8082 629.503 22.8082 629.589 22.7218C629.675 22.549 629.762 22.6354 629.848 22.7218C629.935 22.8082 630.021 22.8082 630.107 22.8946C630.366 22.8946 630.366 23.2402 630.712 23.2402C630.885 23.2402 630.885 23.2402 630.798 23.413C630.798 23.4994 630.885 23.4994 630.885 23.4994C631.23 23.2402 631.317 23.4994 631.403 23.7585C631.403 23.7585 631.49 23.8449 631.576 23.8449C631.749 23.9313 631.835 24.1041 632.008 24.1041C632.181 24.1041 632.44 24.1041 632.613 24.1041C633.304 24.4497 633.995 24.4497 634.773 24.5361C634.859 24.5361 635.032 24.5361 635.032 24.3633C635.205 24.3633 635.377 24.1905 635.55 24.2769C635.637 24.2769 635.809 24.2769 635.809 24.1905C635.896 24.0177 635.982 24.0177 636.069 24.0177C636.587 24.0177 637.105 23.8449 637.624 23.5858C637.883 23.5858 638.056 23.4994 638.315 23.3266C638.401 23.3266 638.401 23.3266 638.488 23.2402C638.574 23.2402 638.66 23.1538 638.747 23.1538C639.179 22.981 639.611 22.8946 640.043 22.549C640.388 22.2898 640.82 22.117 641.166 21.9443C641.511 21.8579 641.771 21.5987 642.03 21.4259C642.375 21.1667 642.635 20.8211 643.153 20.8211C643.326 20.8211 643.499 20.7347 643.585 20.6483C644.017 20.3028 644.449 20.2164 644.881 19.9572C645.226 19.7844 645.658 19.698 645.918 19.3524C646.177 19.0932 646.436 18.9204 646.782 18.9204C647.127 18.9204 647.386 18.7477 647.559 18.5749C647.818 18.5749 647.991 18.4885 648.25 18.4885C648.337 18.3157 648.509 18.4021 648.682 18.3157C648.855 18.3157 649.028 18.3157 649.114 18.2293C649.546 18.1429 649.978 17.9701 650.496 17.8837H650.583C651.015 17.8837 651.36 17.8837 651.792 17.7109C652.052 17.6245 652.311 17.7973 652.311 18.0565C652.311 18.3157 652.138 18.5749 652.138 18.834C652.052 18.834 652.052 18.9204 652.052 18.9204C652.052 19.0068 651.965 19.0932 651.879 19.1796C651.879 19.1796 651.879 19.1796 651.965 19.266C651.965 19.266 651.965 19.1796 651.879 19.1796C651.792 19.4388 651.706 19.7844 651.533 20.0436C651.447 20.2164 651.274 20.3892 651.36 20.5619C651.101 20.7347 651.188 21.0803 651.015 21.3395C651.015 21.5987 650.756 21.7715 650.928 22.0307C650.928 22.117 650.842 22.117 650.842 22.2034C650.669 22.2898 650.669 22.4626 650.583 22.6354C650.41 22.8946 650.324 23.1538 650.237 23.413C650.151 23.7585 649.978 24.1905 649.805 24.4497C649.633 24.7953 649.546 25.1409 649.546 25.4864C649.46 25.4864 649.373 25.4864 649.373 25.5728C648.941 26.6096 648.423 27.6463 647.991 28.683C647.905 28.9422 647.818 29.2014 647.818 29.4606C647.818 29.547 647.818 29.547 647.732 29.6334C647.645 29.8062 647.559 29.979 647.473 30.1518C647.473 30.2381 647.386 30.3245 647.559 30.3245C647.645 30.4109 647.559 30.4973 647.645 30.5837C647.732 30.8429 647.386 30.6701 647.473 30.8429C647.386 30.9293 647.386 31.0157 647.386 31.1021C647.3 31.3613 647.213 31.6205 647.213 31.8796C647.213 31.966 647.213 32.0524 647.127 32.1388C647.213 32.4844 647.386 32.5708 647.645 32.3116C647.645 32.398 647.645 32.4844 647.645 32.5708C647.645 32.7436 647.645 32.9164 647.386 32.7436H647.3C647.3 32.7436 647.213 32.7436 647.213 32.6572C647.213 32.6572 647.213 32.5708 647.127 32.5708C646.954 32.6572 646.695 32.6572 646.695 32.9164C646.695 33.0892 646.868 33.1756 646.868 33.262V33.3484C646.436 33.8667 646.436 33.8667 646.436 34.2987C646.35 34.4715 646.35 34.5579 646.436 34.7307C646.436 34.8171 646.35 34.9035 646.436 35.0763C646.436 35.249 646.436 35.3354 646.263 35.4218C646.263 35.3354 646.177 35.249 646.09 35.3354C646.004 35.4218 646.09 35.4218 646.09 35.5082C646.09 35.5946 646.09 35.681 646.09 35.8538C645.831 36.113 645.745 36.3722 645.745 36.7178C645.658 36.8905 645.658 36.9769 645.745 37.1497C645.745 37.2361 645.658 37.4089 645.658 37.4953C645.658 37.5817 645.658 37.6681 645.658 37.7545C645.313 37.9273 645.745 38.0137 645.745 38.1865C645.658 38.2729 645.572 38.4456 645.745 38.532C645.831 38.6184 645.918 38.7912 645.918 38.964C645.918 39.2232 645.918 39.396 646.09 39.6552C646.263 39.9144 646.263 40.1735 646.609 40.2599C646.782 40.4327 646.35 40.6055 646.609 40.7783C646.609 40.6919 646.695 40.6055 646.695 40.5191C646.695 40.6055 646.868 40.6919 646.782 40.7783C646.609 41.0375 646.868 41.0375 646.954 41.1239C646.954 41.1239 646.954 41.1239 647.041 41.1239C647.213 41.2103 647.386 41.4695 647.645 41.2967C647.645 41.2967 647.732 41.2967 647.732 41.3831C647.991 41.4695 648.164 41.5559 648.423 41.5559C648.509 41.5559 648.596 41.6422 648.596 41.4695C648.596 41.1239 648.769 41.2967 648.941 41.3831C649.114 41.3831 649.114 41.7286 649.287 41.5559L649.373 41.4695C649.373 41.4695 649.46 41.4695 649.46 41.3831C649.633 41.4695 649.719 41.5559 649.892 41.6423C650.065 41.6423 650.237 41.5559 650.41 41.6423C650.496 41.7286 650.583 41.7286 650.583 41.815C650.583 41.9014 650.237 41.7286 650.41 41.9878C650.496 42.0742 650.669 41.9878 650.756 41.9878C650.756 41.9878 650.756 41.9878 650.842 41.9014C650.928 41.815 651.015 41.815 651.101 41.9014C651.188 41.6422 650.928 41.7286 650.842 41.7286C650.842 41.6422 650.756 41.5559 650.669 41.5559V41.4695C650.842 41.4695 651.101 41.3831 651.274 41.3831C651.706 41.3831 652.052 41.4695 652.397 41.3831C652.311 41.4695 652.138 41.4695 652.224 41.5559C651.965 41.6422 651.706 41.4695 651.447 41.5559C651.36 41.7286 651.188 41.815 651.36 41.9878C651.62 42.1606 651.792 41.815 651.965 41.815C652.052 41.815 652.138 41.9014 652.224 41.7286C652.57 41.7286 652.829 41.6422 653.088 41.4695C653.434 41.4695 653.779 41.2967 654.125 41.2967C654.211 41.2967 654.298 41.2103 654.298 41.3831C654.298 41.5559 654.298 41.6422 654.471 41.7286C654.643 41.815 654.73 41.6422 654.816 41.5559C655.075 41.7286 655.075 41.4695 655.248 41.3831C655.421 41.2967 655.507 41.2103 655.68 41.2103C655.853 41.4695 656.026 41.2967 656.199 41.2103C656.199 41.0375 655.853 41.1239 655.939 40.8647C655.939 40.8647 655.939 40.8647 655.853 40.8647C655.939 40.9511 656.026 41.0375 656.199 40.8647C656.199 40.8647 656.199 40.7783 656.285 40.7783C656.458 40.6919 656.544 40.6919 656.717 40.6919V40.6055C656.717 40.6055 656.717 40.6055 656.717 40.6919C656.89 40.7783 656.89 40.6055 656.89 40.5191C656.89 40.5191 656.89 40.5191 656.89 40.4327V40.3463C656.976 40.3463 657.149 40.4327 657.235 40.3463L657.322 40.2599C657.408 40.3463 657.581 40.2599 657.754 40.3463C657.84 40.2599 658.013 40.5191 658.099 40.2599C658.531 40.4327 658.445 40.2599 658.445 40.1735C658.531 40.0871 658.618 40.0871 658.704 40.0007C658.79 39.9144 658.963 39.9144 659.05 39.828C659.136 39.828 659.222 39.828 659.309 39.7416C659.482 39.7416 659.568 39.5688 659.741 39.4824C659.827 39.4824 659.914 39.4824 660 39.396C660.086 39.396 660.173 39.3096 660.259 39.2232C660.346 38.964 660.605 39.0504 660.777 38.8776C660.777 38.8776 660.777 38.8776 660.864 38.7912L660.95 38.7048C661.209 38.532 661.037 38.532 660.95 38.4456C661.037 38.3593 661.209 38.3593 661.296 38.1865C661.296 38.1865 661.296 38.1865 661.382 38.1001C661.728 38.0137 661.901 37.6681 662.246 37.4953C662.592 37.4089 662.765 37.0633 663.024 36.8041C663.197 36.7178 663.369 36.545 663.542 36.4586C663.629 36.2858 663.974 36.2858 663.801 35.9402C663.801 35.9402 663.801 35.9402 663.801 35.8538C663.974 35.681 664.233 35.5946 664.406 35.4218C664.579 35.4218 664.665 35.4218 664.492 35.249V35.1626C664.665 35.0763 664.838 34.9899 664.924 34.8171C665.011 34.8171 665.011 34.8171 665.097 34.7307C665.27 34.6443 665.443 34.5579 665.529 34.3851C665.702 34.2987 665.702 34.6443 665.788 34.4715C665.961 34.2987 666.134 34.2123 666.307 34.0395H666.393C666.739 33.6939 667.084 33.3484 667.516 33.0892C667.689 33.0028 667.775 32.9164 667.775 32.7436C667.775 32.5708 667.689 32.5708 667.603 32.5708C667.603 32.4844 667.603 32.398 667.516 32.398C667.516 32.1388 667.862 32.2252 667.862 32.0524C668.121 31.966 668.207 31.7069 668.467 31.6205C668.726 31.4477 669.071 31.3613 669.331 31.1885C669.417 31.1021 669.59 31.0157 669.59 30.8429C669.849 30.8429 670.022 30.6701 670.195 30.4973C670.108 30.4109 669.935 30.5837 669.935 30.4109C670.108 30.4109 670.281 30.2381 670.281 30.0654C670.281 29.7198 670.454 29.547 670.713 29.3742C670.799 29.2014 670.886 29.115 670.886 28.8558C670.972 28.8558 670.972 28.8558 671.058 28.9422C671.145 29.0286 671.058 29.2014 671.231 29.115C671.404 29.115 671.318 28.9422 671.318 28.8558C671.318 28.8558 671.318 28.8558 671.318 28.7694C671.49 28.683 671.663 28.8558 671.75 28.7694C671.836 28.683 671.836 28.5966 671.836 28.5103C672.009 28.4239 672.095 28.3375 672.268 28.2511C672.182 28.0783 671.836 28.3375 671.922 27.9919C672.009 27.9919 672.095 27.9055 672.095 27.9919C672.182 28.1647 672.268 28.1647 672.441 27.9919C672.527 27.9055 672.614 27.9055 672.614 27.8191C672.7 27.7327 672.786 27.6463 672.786 27.5599C673.132 27.3871 673.218 26.9551 673.564 26.7824C673.65 26.7824 673.65 26.696 673.564 26.6096C673.478 26.6096 673.305 26.6096 673.391 26.4368C673.478 26.264 673.478 26.0912 673.737 26.0048C673.909 25.9184 673.909 26.0912 673.996 26.1776C674.082 26.3504 674.169 26.264 674.255 26.0912C674.428 25.832 674.601 25.7456 674.86 25.5728C674.946 25.4 675.119 25.3136 675.292 25.1409C675.292 24.8817 675.119 24.9681 674.946 24.9681C674.86 24.9681 674.86 24.8817 674.86 24.7953C674.687 24.5361 674.687 24.2769 674.687 24.0177V23.9313C674.773 23.9313 674.86 23.9313 674.86 24.0177C674.86 24.1041 674.946 24.1905 674.946 24.2769C675.119 24.8817 675.378 24.9681 675.724 24.6225C675.724 24.4497 675.81 24.3633 675.81 24.1905C675.81 24.1905 675.81 24.1041 675.897 24.1041C675.983 24.1041 676.069 24.1905 676.156 24.1905C676.329 24.3633 676.415 24.1905 676.501 24.1041C676.674 24.0177 676.501 23.9313 676.501 23.8449C676.588 23.6721 676.588 23.4994 676.501 23.3266C676.329 23.0674 676.501 22.6354 676.761 22.549C677.106 22.4626 677.106 22.3762 676.847 22.117C676.847 21.9443 676.933 21.8579 677.02 21.7715C677.279 21.7715 677.452 21.5123 677.711 21.5987L677.797 21.6851C677.797 21.7715 677.797 21.8579 677.884 21.8579C677.97 21.8579 678.056 21.7715 677.97 21.5987C677.97 21.5123 677.884 21.3395 677.97 21.2531C678.056 21.1667 678.229 21.0803 678.316 20.9939C678.402 20.9075 678.488 20.9075 678.488 20.8211C678.488 20.8211 678.488 20.7347 678.575 20.7347C678.748 20.4755 678.488 20.3028 678.575 20.0436L678.661 19.9572C678.748 19.8708 678.834 19.7844 678.92 19.7844C679.007 19.698 679.093 19.6116 679.18 19.6116C679.439 19.4388 679.698 19.266 679.871 19.0068C679.871 19.0068 679.871 18.9204 679.957 18.9204C680.044 18.9204 680.044 18.834 680.13 18.834C680.216 18.7477 680.389 18.834 680.476 18.7477C680.648 18.6613 680.648 18.4885 680.821 18.3157C680.907 18.2293 680.994 18.2293 681.08 18.1429C681.167 18.1429 681.167 18.0565 681.167 18.0565C681.339 17.7973 681.512 17.9701 681.771 17.9701L681.858 17.8837C681.944 17.8837 681.944 17.7973 682.031 17.7109C682.117 17.6245 682.117 17.5381 682.203 17.5381C682.29 17.4517 682.29 17.2789 682.29 17.1925C682.549 17.2789 682.808 17.2789 682.981 17.1062C683.24 16.847 683.586 16.5878 683.759 16.2422C683.845 16.2422 683.931 16.0694 684.104 16.0694C684.277 16.0694 684.277 15.8966 684.363 15.8102C684.709 15.551 685.314 15.6374 685.486 15.1191C685.573 15.0327 685.832 15.0327 685.746 14.7735C685.746 14.7735 685.918 14.6871 686.005 14.6871C686.437 14.7735 686.696 14.6007 686.955 14.2551C687.128 14.2551 687.214 13.9959 687.387 14.0823C687.473 14.1687 687.56 14.0823 687.646 13.9959C687.733 13.8232 687.905 13.7368 687.992 13.564C687.992 13.564 687.992 13.564 688.078 13.564H688.165C688.165 13.564 688.251 13.564 688.251 13.6504C688.251 13.7368 688.165 13.8232 688.078 13.8232H687.992C687.819 13.9095 687.646 13.9959 687.646 14.1687C687.56 14.4279 687.387 14.6007 687.301 14.7735C687.301 14.7735 687.301 14.7735 687.301 14.8599C687.128 14.8599 686.955 14.8599 686.869 15.1191C686.782 15.2055 686.696 15.2919 686.61 15.3783C686.523 15.551 686.523 15.6374 686.264 15.6374C686.178 15.6374 686.091 15.6374 686.091 15.8102C686.005 15.8966 685.918 15.8966 685.832 15.983C685.746 16.0694 685.746 16.2422 685.573 16.3286C685.4 16.3286 685.4 16.1558 685.4 15.983C685.4 15.8966 685.4 15.8102 685.314 15.8102C685.141 15.8102 684.882 16.415 684.968 16.5014C685.4 16.6742 685.227 16.6742 685.141 16.7606ZM690.152 11.0585C690.152 11.1449 690.065 11.2313 690.065 11.3177C689.979 11.4041 689.893 11.4905 689.806 11.5769H689.72C689.461 11.7497 689.201 12.0953 688.856 12.0953C688.769 12.0953 688.683 12.1817 688.597 12.0953C688.597 12.0089 688.597 11.9225 688.683 11.9225L688.769 11.8361C688.769 11.8361 688.769 11.7497 688.856 11.7497C689.201 11.6633 689.201 11.4905 689.201 11.2313C689.201 11.1449 689.288 11.0585 689.374 11.0585C689.547 10.9721 689.633 10.8857 689.72 10.7993C689.893 10.5402 690.065 10.7129 690.238 10.7993C690.497 10.8857 690.238 10.9721 690.152 11.0585ZM675.724 24.1905C675.637 24.0177 675.551 23.9313 675.378 23.9313C675.465 23.9313 675.465 23.9313 675.465 23.8449C675.551 23.8449 675.637 23.8449 675.724 23.8449C675.724 24.0177 675.724 24.1041 675.724 24.1905ZM684.45 5.61566C684.45 5.61566 684.536 5.70205 684.622 5.70205C684.536 5.78845 684.622 5.87484 684.622 5.96124C684.536 5.96124 684.45 5.96123 684.363 6.04763C684.363 6.04763 684.363 6.04763 684.363 6.13402C684.277 6.13402 684.277 6.13402 684.19 6.04763C684.277 5.78845 684.45 5.78845 684.45 5.61566ZM683.845 5.96124C683.931 6.04763 683.931 6.04763 683.845 5.96124C683.931 6.04763 683.931 6.13402 683.845 6.13402C683.672 6.13402 683.672 6.04763 683.672 5.96124C683.759 6.04763 683.845 6.04763 683.845 5.96124ZM682.808 6.65239C682.722 6.73879 682.722 6.73879 682.635 6.73879C682.722 6.73879 682.722 6.65239 682.808 6.65239ZM661.123 14.6871C661.209 14.8599 661.209 15.1191 661.382 15.2919C661.382 15.2919 661.296 15.4647 661.296 15.2919C661.209 15.1191 661.123 14.9463 660.95 14.7735C661.037 14.7735 661.037 14.6871 661.123 14.6871C661.037 14.6871 661.037 14.6871 661.037 14.6871H661.123ZM647.127 40.5191C647.127 40.3463 646.954 40.2599 646.868 40.1735C646.522 39.7416 646.35 39.2232 646.263 38.7048C646.263 38.4456 646.177 38.1865 646.004 38.0137C646.004 37.8409 646.09 37.6681 646.09 37.4953C646.09 37.4953 646.09 37.4089 646.177 37.4089C646.177 37.1497 646.35 36.8905 646.436 36.6314C646.522 36.545 646.522 36.3722 646.35 36.2858C646.35 36.1994 646.436 36.113 646.35 36.0266C646.436 36.0266 646.522 35.9402 646.609 35.8538C646.609 36.0266 646.522 36.113 646.522 36.1994C646.436 36.3722 646.522 36.545 646.695 36.545C646.609 36.7178 646.695 36.9769 646.695 37.1497C646.609 37.3225 646.522 37.4953 646.609 37.6681C646.868 37.8409 646.695 38.1001 646.782 38.2729C646.868 38.6184 647.3 38.964 646.868 39.396C646.868 39.7416 647.127 40.0007 647.3 40.0007C647.559 40.0007 647.732 40.1735 647.991 40.1735C648.077 40.2599 648.077 40.3463 648.164 40.3463C648.164 40.6919 648.337 40.6919 648.596 40.6919C648.682 40.6919 648.682 40.7783 648.769 40.7783C648.855 40.8647 648.855 40.8647 648.941 40.9511C648.941 40.9511 648.941 40.9511 648.941 41.0375C649.028 41.2103 649.201 41.1239 649.287 41.2103C649.201 41.2103 649.028 41.1239 648.941 41.2103C648.941 41.2103 648.941 41.2103 648.855 41.2103C648.682 41.1239 648.509 41.0375 648.25 40.9511C648.164 40.8647 648.077 40.7783 647.991 40.9511C647.905 41.0375 648.077 41.0375 648.164 41.0375C648.164 41.1239 648.25 41.2103 648.337 41.2967C648.596 41.3831 648.337 41.3831 648.337 41.3831C648.25 41.3831 648.164 41.3831 648.077 41.3831V41.2967C647.991 41.1239 647.818 41.2103 647.732 41.1239C647.732 41.1239 647.732 41.1239 647.732 41.0375C647.3 40.6055 647.213 40.5191 647.127 40.5191ZM647.645 41.0375C647.645 41.1239 647.645 41.1239 647.645 41.0375ZM669.158 31.1885C669.071 31.1021 669.071 31.0157 668.985 30.9293C669.244 30.9293 669.331 30.7565 669.417 30.5837C669.417 30.5837 669.417 30.5837 669.417 30.4973C669.503 30.3245 669.59 30.1518 669.763 30.0654C669.763 30.1518 669.849 30.2381 669.763 30.2381C669.59 30.3245 669.59 30.5837 669.59 30.7565L669.503 30.8429C669.503 30.8429 669.417 30.8429 669.417 30.9293L669.331 31.0157C669.244 31.1021 669.158 31.1021 669.158 31.1885ZM674.86 25.2273C674.86 25.3136 674.946 25.4 674.946 25.4864C674.86 25.5728 674.773 25.6592 674.86 25.7456C674.687 25.7456 674.601 25.9184 674.428 25.9184C674.514 25.832 674.601 25.7456 674.687 25.6592C674.687 25.5728 674.687 25.4864 674.773 25.3136C674.687 25.4 674.773 25.3136 674.86 25.2273C674.773 25.2273 674.773 25.2273 674.86 25.2273ZM685.227 13.564C685.573 13.3048 685.832 13.0456 685.918 12.7C685.918 12.7 685.918 12.7 686.005 12.6136C686.178 12.6136 686.35 12.5272 686.437 12.3544C686.523 12.268 686.523 12.268 686.61 12.1817C686.696 12.0953 686.696 12.0953 686.782 12.0089C686.955 12.0089 686.955 11.8361 687.042 11.7497C687.301 11.7497 687.56 11.5769 687.646 11.3177C687.733 11.2313 687.646 11.1449 687.733 10.9721L687.819 10.8857C687.905 10.7993 687.819 10.7129 687.905 10.6265C687.992 10.6265 687.992 10.6265 688.078 10.6265C688.165 10.6265 688.251 10.6265 688.337 10.7129C688.597 10.6265 688.856 10.5402 688.942 10.281C688.942 10.1946 688.856 10.1082 688.942 10.1082C689.201 10.1946 689.201 10.1082 689.288 9.93539C689.547 9.7626 689.72 9.50342 690.065 9.33063C690.325 9.24423 690.497 9.07144 690.584 8.81226C690.67 8.72587 690.843 8.81226 690.843 8.63947C690.929 8.55308 691.016 8.55308 691.102 8.46668C691.188 8.46668 691.275 8.46668 691.361 8.46668C691.62 8.29389 691.966 8.03471 692.225 7.86192C692.484 7.60273 692.916 7.51634 693.176 7.17076C693.262 7.17076 693.348 7.17076 693.348 7.08437C693.348 7.08437 693.348 7.08437 693.435 7.08437C693.521 7.08437 693.521 6.99797 693.608 6.99797C693.608 6.99797 693.608 6.99797 693.521 7.08437C693.435 7.17076 693.435 7.34355 693.608 7.25716C694.039 7.08437 694.385 6.73879 694.731 6.4796C694.817 6.4796 694.903 6.4796 694.99 6.566C694.99 6.73879 694.903 6.82518 694.817 6.82518C694.644 6.91158 694.471 6.99797 694.385 7.17076C694.212 7.25716 694.04 7.42994 693.953 7.51634C693.521 7.68913 693.348 8.03471 693.003 8.29389C692.916 8.38029 693.003 8.38029 693.089 8.38029C693.348 8.29389 693.608 8.2075 693.78 7.94831C693.694 8.03471 693.521 8.1211 693.435 8.29389C693.348 8.29389 693.262 8.38029 693.176 8.46668C692.744 9.07144 691.966 9.33063 691.361 9.849C691.188 9.58981 691.188 9.58981 691.016 9.58981C691.188 9.849 691.188 10.1946 691.102 10.4538C691.016 10.4538 691.016 10.4538 690.929 10.4538C690.843 10.4538 690.756 10.4538 690.756 10.4538C690.756 10.4538 690.756 10.4538 690.67 10.4538C690.411 10.1946 690.584 9.93539 690.67 9.58981C690.238 10.0218 689.893 10.4538 689.288 10.6265C689.288 10.6265 689.288 10.6265 689.288 10.7129C689.288 10.7993 689.201 10.8857 689.201 10.9721C689.201 10.9721 689.201 10.9721 689.115 11.0585C689.029 11.0585 689.029 11.0585 688.942 11.1449C688.597 11.4041 688.337 11.7497 687.992 12.0089C687.905 12.0953 687.819 12.1817 687.733 12.1817C687.56 12.268 687.473 12.3544 687.387 12.5272C687.214 12.6136 687.042 12.7 686.955 12.8728L686.869 12.9592C686.696 13.0456 686.61 13.2184 686.61 13.3048C686.61 13.4776 686.523 13.564 686.35 13.6504C686.178 13.8232 685.832 13.8232 685.746 14.1687C685.659 14.5143 685.314 14.6871 685.141 15.0327C685.054 15.1191 684.882 15.2055 684.795 15.1191C684.622 15.0327 684.709 14.9463 684.709 14.8599C684.709 14.7735 684.709 14.6871 684.622 14.5143C684.622 14.5143 684.622 14.5143 684.536 14.5143C684.622 14.2551 684.709 13.9959 684.882 13.8232C684.882 13.8232 684.882 13.8232 684.968 13.9095C685.141 14.0823 685.141 13.9095 685.227 13.8232C685.227 13.9095 685.227 13.7368 685.227 13.564ZM689.029 14.7735C688.942 14.8599 688.942 15.0327 688.769 14.9463C688.942 14.6871 689.115 14.5143 689.201 14.2551C689.288 14.3415 689.201 14.4279 689.288 14.5143V14.6007C689.115 14.5143 689.029 14.6871 689.029 14.7735ZM690.152 14.0823C690.065 14.2551 689.893 14.2551 689.806 14.2551C689.633 14.2551 689.72 14.0823 689.72 13.9959L689.633 13.9095V13.8232C689.893 13.8232 689.979 13.6504 690.065 13.4776C690.065 13.3912 690.152 13.3048 690.152 13.3048C690.152 13.2184 690.238 13.2184 690.238 13.132C690.238 13.0456 690.325 13.0456 690.325 13.0456L690.238 13.132C690.325 13.3048 690.325 13.3912 690.325 13.564C690.325 13.7368 690.325 13.8232 690.411 13.9959C690.238 13.9959 690.238 13.9959 690.152 14.0823ZM691.793 11.5769C691.707 11.6633 691.62 11.8361 691.448 11.8361C691.534 11.7497 691.534 11.7497 691.534 11.6633C691.62 11.6633 691.707 11.5769 691.707 11.4041C691.793 11.4905 691.88 11.4905 691.793 11.5769ZM697.582 8.46668C697.582 8.38029 697.495 8.38029 697.495 8.29389C697.668 8.2075 697.841 8.1211 698.014 8.03471H698.1C698.186 8.03471 698.186 8.03471 698.273 7.94831C698.359 7.86192 698.532 7.86192 698.532 7.77552H698.618C698.618 7.86192 698.532 7.94831 698.446 7.94831C698.359 7.94831 698.273 7.94831 698.273 8.1211C698.1 8.1211 698.014 8.2075 698.014 8.38029C697.754 8.29389 697.668 8.38029 697.582 8.46668Z" fill="white"/>
<path d="M661.814 15.9832C661.901 16.2424 661.901 16.5016 661.901 16.8472C661.901 16.9336 661.901 17.0199 662.073 16.9336C662.16 16.9336 662.16 16.8472 662.16 16.7608C661.987 16.588 662.16 16.5016 662.246 16.4152C662.419 16.156 662.333 15.8104 662.16 15.724C661.987 15.6376 661.901 15.5512 661.814 15.4648C661.555 15.6376 661.728 15.8104 661.814 15.9832Z" fill="white"/>
<path d="M635.809 13.0456C635.896 13.0456 635.982 13.0456 636.155 12.9592C636.069 12.9592 635.982 13.0456 635.896 12.8728C636.069 12.8728 636.155 12.4408 636.414 12.7C636.414 12.7864 636.328 12.7864 636.414 12.8728C636.501 12.8728 636.501 12.8728 636.587 12.7864V12.7C636.587 12.6136 636.587 12.4408 636.673 12.3544C636.846 12.268 637.105 12.3544 637.192 12.1816C637.278 12.0952 637.278 12.0088 637.192 11.9225C637.105 11.7497 637.019 11.8361 636.933 11.9225C636.846 11.9225 636.673 11.9225 636.587 12.0952C636.414 12.0952 636.414 12.1816 636.414 12.268C636.155 12.268 636.328 12.3544 636.328 12.4408C636.155 12.4408 635.982 12.5272 635.809 12.5272C635.55 12.6136 635.723 12.7864 635.637 12.9592C635.55 13.0456 635.723 13.0456 635.809 13.0456Z" fill="white"/>
<path d="M633.477 14.1687C633.563 14.0823 633.65 13.9959 633.822 13.9095C634.168 13.8231 634.341 13.5639 634.6 13.5639C634.6 13.5639 634.6 13.4775 634.686 13.4775C634.859 13.4775 635.032 13.3911 635.205 13.3911C635.291 13.3911 635.377 13.3047 635.291 13.2184C635.291 13.132 635.205 13.132 635.118 13.132C634.945 13.2184 634.686 13.2184 634.6 13.3911H634.513C634.254 13.4775 633.995 13.7367 633.65 13.5639C633.65 13.5639 633.563 13.5639 633.477 13.6503C633.39 13.8231 633.218 13.9959 633.131 14.1687C633.218 14.4279 633.39 14.3415 633.477 14.1687Z" fill="white"/>
<path d="M679.784 21.2531V21.3395V21.4259C679.784 21.5987 679.698 21.6851 679.525 21.6851C679.352 21.7715 679.266 21.8579 679.093 21.9443C679.093 21.9443 679.093 21.9443 679.007 21.9443C678.92 22.0307 678.748 22.0307 678.661 21.9443C678.575 21.8579 678.488 21.8579 678.488 21.9443C678.488 22.117 678.316 22.2034 678.316 22.3762C678.229 22.4626 678.143 22.549 678.056 22.6354C677.97 22.6354 677.97 22.7218 677.884 22.7218C677.797 22.7218 677.884 22.6354 677.884 22.6354C677.97 22.549 678.056 22.549 677.97 22.4626C677.797 22.3762 677.797 22.549 677.797 22.6354C677.797 22.8946 677.624 23.0674 677.452 23.2402C677.452 23.3266 677.365 23.3266 677.452 23.413C677.624 23.3266 677.711 23.2402 677.797 23.0674C677.97 23.0674 678.056 22.8946 678.143 22.8082C678.229 22.7218 678.316 22.6354 678.488 22.4626C678.748 22.3762 678.92 22.117 679.093 21.9443C679.439 21.8579 679.612 21.5987 679.871 21.4259C679.957 21.3395 680.044 21.1667 679.957 21.0803C679.957 20.9939 679.871 21.1667 679.784 21.2531Z" fill="white"/>
<path d="M646.436 8.20749C646.436 8.29389 646.35 8.29389 646.436 8.38028C646.522 8.38028 646.609 8.38028 646.609 8.29389C646.609 7.94831 646.868 8.0347 647.041 8.0347C647.127 8.0347 647.213 8.0347 647.213 7.94831C647.213 7.86191 647.213 7.86191 647.213 7.77552C647.127 7.68912 647.127 7.77552 647.041 7.77552C646.954 7.77552 646.954 7.77552 646.868 7.77552C646.609 7.77552 646.436 7.86191 646.35 8.0347C646.35 8.20749 646.609 7.94831 646.436 8.20749Z" fill="white"/>
<path d="M692.312 12.4409C692.312 12.3545 692.398 12.2681 692.398 12.1817V12.0953C692.398 12.0089 692.398 11.9225 692.312 11.9225C692.225 11.9225 692.225 12.0089 692.225 12.0953C692.225 12.0953 692.225 12.0953 692.225 12.1817C692.139 12.2681 692.225 12.3545 692.139 12.4409C692.052 12.4409 691.966 12.3545 691.88 12.3545C691.88 12.5272 691.88 12.6136 691.707 12.7C691.62 12.7864 691.62 12.8728 691.707 12.9592C691.793 13.0456 691.793 12.9592 691.88 12.9592C692.225 12.8728 692.312 12.7 692.312 12.4409Z" fill="white"/>
<path d="M661.555 14.5145C661.555 14.6009 661.469 14.6873 661.641 14.7737C661.987 14.3417 661.469 14.0825 661.469 13.7369C661.296 13.9097 661.296 14.0825 661.469 14.2553C661.641 14.3417 661.641 14.4281 661.555 14.5145Z" fill="white"/>
<path d="M685.227 5.18365C685.4 4.92447 685.746 4.92447 685.918 4.66528L686.005 4.57889C686.005 4.49249 685.918 4.49249 685.832 4.49249C685.659 4.66528 685.486 5.01086 685.141 5.01086C685.054 5.01086 685.054 5.09726 685.141 5.18365C685.141 5.27004 685.227 5.27004 685.227 5.18365Z" fill="white"/>
<path d="M677.193 23.4131C677.106 23.5859 677.02 23.7587 677.02 23.9315C677.02 24.0178 677.106 24.1042 677.193 24.0178C677.279 23.9315 677.365 23.8451 677.365 23.6723C677.279 23.5859 677.365 23.4995 677.193 23.4131Z" fill="white"/>
<path d="M693.348 12.5274C693.089 12.441 693.003 12.873 692.744 12.873C692.484 12.873 692.398 13.1321 692.139 13.1321C691.966 13.1321 691.88 13.1321 691.88 13.3049C691.88 13.3913 691.793 13.4777 691.88 13.4777C691.966 13.5641 692.139 13.4777 692.225 13.3913C692.225 13.3913 692.312 13.3913 692.312 13.3049C692.398 13.0457 692.657 13.0457 692.916 12.9593C693.089 12.873 693.262 12.7866 693.348 12.6138C693.435 12.5274 693.435 12.441 693.348 12.441V12.5274Z" fill="white"/>
<path d="M643.412 9.5035C643.499 9.5035 643.499 9.4171 643.499 9.33071C643.412 9.07152 643.499 8.98513 643.758 8.89873C643.585 8.89873 643.412 8.81234 643.326 8.98513C643.239 9.15792 643.153 9.24431 643.326 9.4171C643.326 9.5035 643.326 9.58989 643.412 9.5035Z" fill="white"/>
<path d="M655.939 8.46686C656.026 8.55325 656.112 8.55325 656.199 8.46686C656.199 8.38046 656.112 8.38046 655.939 8.46686C655.594 8.20767 655.248 8.12128 654.903 8.12128C654.903 8.20767 654.903 8.20767 654.989 8.20767C655.335 8.29407 655.68 8.38046 655.939 8.46686Z" fill="white"/>
<path d="M662.246 17.7109C662.246 17.7109 662.246 17.7973 662.333 17.7973C662.333 17.7973 662.419 17.7973 662.419 17.7109C662.419 17.4517 662.505 17.2789 662.333 17.0197C662.16 17.2789 662.246 17.5381 662.246 17.7109Z" fill="white"/>
<path d="M695.249 1.03679C695.335 1.12319 695.335 0.950397 695.335 0.864002C695.335 0.777607 695.335 0.691212 695.249 0.777607C695.076 0.864002 694.817 0.777607 694.903 0.950397C694.903 1.20958 695.076 0.864002 695.249 1.03679Z" fill="white"/>
<path d="M692.052 1.72781C692.139 1.72781 692.139 1.72781 692.225 1.72781C692.225 1.64142 692.225 1.64142 692.225 1.55502C692.139 1.46863 692.139 1.46863 692.052 1.46863C691.966 1.55502 691.707 1.55502 691.707 1.72781C691.793 1.72781 691.966 1.64142 692.052 1.72781Z" fill="white"/>
<path d="M647.732 7.94842C647.818 7.94842 647.818 7.86203 647.818 7.77563C647.818 7.68924 647.732 7.60284 647.646 7.60284C647.559 7.60284 647.473 7.68924 647.473 7.77563C647.559 7.86203 647.646 7.94842 647.732 7.94842Z" fill="white"/>
<path d="M693.608 12.4409C693.608 12.5273 693.608 12.5273 693.608 12.4409C693.867 12.5273 693.867 12.3546 694.04 12.1818C693.78 12.2682 693.694 12.2682 693.608 12.4409Z" fill="white"/>
<path d="M692.657 1.90071C692.744 1.90071 692.744 1.90071 692.83 1.90071C692.916 1.98711 692.916 1.98711 693.003 1.90071C693.003 1.81432 693.089 1.72792 693.003 1.64153L692.916 1.72792C692.744 1.46874 692.744 1.81432 692.657 1.81432L692.571 1.90071C692.484 1.90071 692.571 1.90071 692.657 1.90071Z" fill="white"/>
<path d="M642.98 9.15792C643.067 9.07152 643.153 8.98513 643.153 8.89873C643.153 8.81234 643.067 8.72594 643.067 8.81234C642.894 8.81234 642.98 8.98513 642.894 9.15792C642.894 9.15792 642.894 9.15792 642.98 9.15792Z" fill="white"/>
<path d="M696.199 9.93538V10.0218C696.372 10.1082 696.459 9.93538 696.545 9.84899C696.545 9.84899 696.545 9.84899 696.545 9.76259C696.459 9.6762 696.286 9.76259 696.199 9.93538Z" fill="white"/>
<path d="M633.045 14.3415C632.958 14.1687 632.786 14.1687 632.699 14.3415C632.699 14.4279 632.699 14.4279 632.699 14.5143C632.872 14.5143 632.958 14.4279 633.045 14.3415Z" fill="white"/>
<path d="M703.111 4.92455C703.197 5.09734 703.37 5.01094 703.457 4.92455V4.83816C703.37 4.75176 703.284 4.92455 703.111 4.92455Z" fill="white"/>
<path d="M646.177 8.38031C646.09 8.20752 646.09 8.03473 645.918 8.03473C645.918 8.03473 645.831 8.03473 645.831 8.12112C645.918 8.29391 646.004 8.38031 646.177 8.38031Z" fill="white"/>
<path d="M698.359 8.89867C698.532 8.98506 698.619 8.98506 698.619 8.89867C698.619 8.89867 698.705 8.81227 698.619 8.81227C698.532 8.63949 698.532 8.81228 698.359 8.89867Z" fill="white"/>
<path d="M688.942 3.11028C689.029 3.11028 688.942 3.02388 688.942 3.11028C688.769 3.02388 688.683 3.02388 688.597 3.19667C688.769 3.19667 688.942 3.19667 688.942 3.11028Z" fill="white"/>
<path d="M697.754 9.15796C697.668 9.15796 697.582 9.24435 697.495 9.33075C697.495 9.33075 697.495 9.41714 697.582 9.41714C697.668 9.33075 697.754 9.33075 697.754 9.15796C697.841 9.15796 697.841 9.15796 697.754 9.15796Z" fill="white"/>
<path d="M635.377 12.7864C635.205 12.7864 635.118 12.7864 635.032 13.0456C635.205 12.9592 635.291 12.9592 635.377 12.7864Z" fill="white"/>
<path d="M632.526 14.7736C632.613 14.7736 632.699 14.7736 632.699 14.6872C632.699 14.6008 632.613 14.6008 632.613 14.6008C632.526 14.6008 632.44 14.6008 632.44 14.6872C632.44 14.7736 632.526 14.7736 632.526 14.7736Z" fill="white"/>
<path d="M656.371 8.55316C656.458 8.63956 656.631 8.72595 656.803 8.72595C656.631 8.55316 656.544 8.55316 656.371 8.55316Z" fill="white"/>
<path d="M696.027 0.431946C696.027 0.518341 696.027 0.604735 696.027 0.777525C696.199 0.604735 696.199 0.604735 696.027 0.431946Z" fill="white"/>
<path d="M645.572 8.20752C645.486 8.29391 645.226 8.20752 645.226 8.38031C645.399 8.38031 645.486 8.38031 645.572 8.20752Z" fill="white"/>
<path d="M690.67 2.2464C690.757 2.16 690.757 2.07361 690.757 2.07361C690.67 2.07361 690.67 2.07361 690.584 2.16C690.497 2.16 690.411 2.2464 690.411 2.33279C690.497 2.41919 690.584 2.33279 690.67 2.2464Z" fill="white"/>
<path d="M658.186 9.50348C658.099 9.41708 658.013 9.33069 657.84 9.33069C657.926 9.41708 658.013 9.50348 658.186 9.50348Z" fill="white"/>
<path d="M695.163 10.5401C695.163 10.6265 695.249 10.6265 695.335 10.6265C695.422 10.3673 695.767 10.4537 695.767 10.1082C695.595 10.1945 695.508 10.2809 695.335 10.3673C695.249 10.2809 695.163 10.3673 695.163 10.5401Z" fill="white"/>
<path d="M661.641 15.0327C661.641 15.1191 661.728 15.1191 661.728 15.1191C661.814 15.1191 661.814 15.0327 661.814 15.0327C661.814 14.9463 661.814 14.9463 661.728 14.9463C661.641 14.9463 661.555 15.0327 661.641 15.0327Z" fill="white"/>
<path d="M692.83 11.577C692.744 11.7498 692.657 11.7498 692.657 11.9226C692.83 11.9226 692.83 11.8362 692.83 11.577Z" fill="white"/>
<path d="M693.867 1.29593C693.867 1.12314 693.78 1.03674 693.694 1.03674C693.694 1.03674 693.608 1.03674 693.608 1.12314C693.694 1.20953 693.694 1.29593 693.867 1.29593Z" fill="white"/>
<path d="M658.877 10.1083C658.79 10.0219 658.79 9.84912 658.618 9.84912C658.618 10.0219 658.704 10.0219 658.877 10.1083Z" fill="white"/>
<path d="M692.916 1.38235C692.916 1.38235 693.003 1.29596 693.003 1.20956C693.003 1.12317 693.003 1.12317 692.916 1.12317C692.916 1.12317 692.83 1.20956 692.916 1.38235Z" fill="white"/>
<path d="M659.654 11.3178C659.654 11.4042 659.654 11.4906 659.827 11.4906C659.914 11.577 659.827 11.7498 660 11.8362C660 11.7498 660 11.577 660 11.4906C660 11.3178 659.914 11.2314 659.741 11.2314C659.741 11.145 659.654 11.145 659.568 11.145C659.482 11.145 659.654 11.2314 659.654 11.3178Z" fill="white"/>
<path d="M691.448 12.9592C691.534 12.9592 691.62 13.0456 691.707 12.8728V12.7864C691.534 12.8728 691.448 12.9592 691.448 12.9592Z" fill="white"/>
<path d="M659.05 10.2809C659.05 10.1945 659.05 10.1082 658.963 10.1082H658.877V10.1945C658.877 10.1945 658.963 10.2809 659.05 10.2809Z" fill="white"/>
<path d="M642.894 9.50346C642.894 9.58985 642.894 9.58985 642.98 9.67624C642.98 9.67624 643.067 9.67625 643.067 9.58985C643.067 9.50346 643.067 9.50346 642.98 9.50346C642.98 9.41706 642.98 9.41706 642.894 9.50346Z" fill="white"/>
<path d="M657.495 9.15787C657.495 9.07147 657.495 9.07147 657.408 9.07147C657.322 9.07147 657.322 9.07147 657.322 9.15787C657.408 9.15787 657.495 9.15787 657.495 9.15787Z" fill="white"/>
<path d="M689.979 2.50562H689.893C689.893 2.50562 689.893 2.50562 689.806 2.59201C689.806 2.59201 689.893 2.59201 689.979 2.50562C689.893 2.59201 689.893 2.59201 689.979 2.50562Z" fill="white"/>
<path d="M659.654 10.8858C659.482 10.7994 659.482 10.7994 659.482 10.8858C659.482 10.8858 659.482 10.9722 659.654 10.8858C659.654 10.9722 659.568 10.9722 659.654 10.8858Z" fill="white"/>
<path d="M243.463 26.3861C243.463 30.3648 240.371 32.5751 234.492 32.5751H215.869V9.6554H234.729C239.657 9.6554 242.546 12.2738 242.546 16.0484C242.546 18.0208 241.696 19.517 239.827 20.7412C242.376 22.0334 243.463 23.7337 243.463 26.3861ZM238.196 16.2865C238.196 14.7222 237.006 13.7021 234.967 13.7021H220.355V18.9729H234.797C236.904 18.9729 238.196 17.8847 238.196 16.2865ZM238.977 25.91C238.977 24.1077 237.55 23.0536 234.865 23.0536H220.321V28.5285H234.492C237.38 28.4944 238.977 27.4743 238.977 25.91ZM275.135 16.8986C275.135 21.5233 272.043 24.1417 266.402 24.1417H253.08V32.5751H248.595V9.6554H267.115C272.043 9.6554 275.135 12.5119 275.135 16.8986ZM270.582 17.0006C270.582 14.7222 269.188 13.7361 266.266 13.7361H253.148V20.1291H266.538C269.188 20.0951 270.582 19.0069 270.582 17.0006ZM303.137 16.5925C301.915 15.3736 300.453 14.4211 298.845 13.7949C297.237 13.1687 295.516 12.8824 293.792 12.9539C287.233 12.9539 283.087 16.3205 283.087 21.0472C283.087 25.91 287.131 29.2086 293.86 29.2086C297.768 29.2086 300.725 28.0524 303.205 25.434L307.045 27.4743C305.419 29.3847 303.373 30.894 301.069 31.8848C298.764 32.8756 296.263 33.3213 293.758 33.1872C284.515 33.1872 278.432 28.0864 278.432 21.0472C278.432 17.3406 280.029 14.3482 283.223 12.0018C285.806 10.1315 289.476 8.94128 293.486 8.94128C299.229 8.94128 303.681 10.9476 307.249 15.1983L303.137 16.5925ZM312.755 32.5751V9.6554H336.577V13.7361H317.24V18.6669H330.698V22.7475H317.24V28.5625H336.577V32.6431H312.755V32.5751Z" fill="white"/>
<path d="M29.5703 20.6927C29.5703 28.0373 23.8223 33.0828 14.8171 33.0828C10.7935 33.0828 7.21701 31.9332 4.72621 30.0811C1.53288 27.7819 9.18883e-05 24.7163 9.18883e-05 21.012C-0.00720101 19.2392 0.419722 17.4916 1.24357 15.9219C2.06741 14.3521 3.26311 13.008 4.72621 12.0069C7.34474 10.0909 10.9851 8.94128 15.0726 8.94128C20.1181 8.94128 24.1416 10.6018 27.5266 14.1783L23.3752 16.2221C22.2404 15.1285 20.8992 14.2716 19.4299 13.7014C17.9607 13.1313 16.3926 12.8592 14.8171 12.901C8.7498 12.901 4.53461 16.3498 4.53461 20.9482C4.53461 25.6743 8.62206 28.9953 14.8171 28.9953C19.3516 28.9953 22.6088 27.2071 24.0778 23.886H13.8591V19.8624H29.5703V20.6927ZM57.48 32.3803L51.5404 24.0776H40.2999V32.3803H35.8931V9.77155H54.2228C59.0128 9.77155 62.0784 12.5817 62.0784 16.9246C62.0784 20.565 60.0985 22.9919 56.4581 23.8222L62.5893 32.3803H57.48ZM57.6077 16.9885C57.6077 14.7531 56.2665 13.7313 53.3287 13.7313H40.3637V20.054H53.5841C56.2026 20.054 57.6077 18.9683 57.6077 16.9885ZM92.1595 30.0811C89.6048 31.9332 86.0283 33.0828 82.0686 33.0828C78.045 33.0828 74.4685 31.9332 71.9138 30.0811C68.7205 27.7819 67.1877 24.7163 67.1877 21.012C67.1877 17.3717 68.7843 14.3699 71.9777 12.0069C74.5323 10.1547 78.1727 8.94128 82.0686 8.94128C85.9644 8.94128 89.6048 10.0909 92.1595 12.0069C95.3528 14.3061 96.9495 17.3717 96.9495 21.012C96.9495 24.7163 95.3528 27.7819 92.1595 30.0811ZM82.0686 12.9649C75.9374 12.9649 71.7222 16.4137 71.7222 21.012C71.7222 25.7382 75.7458 29.0592 82.0686 29.0592C88.3275 29.0592 92.3511 25.7382 92.3511 21.012C92.3511 16.4137 88.1359 12.9649 82.0686 12.9649ZM116.173 33.0828C107.998 33.0828 103.017 29.634 103.017 24.9718V9.77155H107.424V24.0776C107.424 27.3348 110.425 29.0592 116.173 29.0592C121.921 29.0592 124.923 27.2709 124.923 24.0776V9.77155H129.33V24.9718C129.33 29.634 124.348 33.0828 116.173 33.0828ZM162.987 16.9246C162.987 21.4591 159.922 24.0776 154.365 24.0776H141.209V32.3803H136.802V9.77155H155.068C159.922 9.77155 162.987 12.5817 162.987 16.9246ZM158.453 16.9885C158.453 14.7531 157.112 13.7313 154.174 13.7313H141.209V20.054H154.429C157.048 20.054 158.453 18.9683 158.453 16.9885ZM168.735 32.3803V9.77155H192.238V13.7951H173.142V18.649H186.427V22.6726H173.142V28.4205H192.238V32.4441H168.735V32.3803Z" fill="white"/>
<path d="M872.852 505.8H872.952C874.052 508.5 874.052 520.2 872.952 522.9C869.952 530.3 863.352 536 853.052 536H665.152V519.2H850.952C853.252 519.2 854.652 518.1 855.252 516.7C855.552 516 855.552 512.7 855.252 512C854.652 510.6 853.252 509.5 850.952 509.5H686.652C676.352 509.5 669.652 503.7 666.752 496.3C665.652 493.6 665.652 482 666.752 479.2C669.752 471.8 676.352 466 686.652 466V466.1H868.452V482.9H688.652C686.352 482.9 684.952 484 684.352 485.5C684.152 486.1 684.152 489.4 684.352 490.1C684.952 491.5 686.352 492.7 688.652 492.7H853.052V492.6C863.252 492.6 869.952 498.4 872.852 505.8Z" fill="white"/>
<path d="M651.612 482.8L439.512 483V492.6H651.612V509.4H439.512V519.2H651.612V536H439.512V466H651.612V482.8Z" fill="white"/>
<path d="M322.352 519.2H428.152V536H322.352C318.752 536 315.452 535.3 312.652 533.9C309.552 532.4 306.952 530.2 304.952 527.4L293.552 511.1C293.252 510.6 292.752 510.2 292.252 510C291.652 509.7 290.852 509.5 289.852 509.5H244.252V536H225.452V466.1H398.252C408.552 466.1 415.252 471.9 418.152 479.2C419.252 482 419.252 493.6 418.152 496.4C415.252 503.7 408.552 509.5 398.252 509.5H313.252L318.652 517.6C318.952 518.1 319.352 518.5 319.952 518.7C320.452 519 321.252 519.2 322.352 519.2ZM244.252 482.9V492.7H398.252C400.552 492.7 401.952 491.6 402.552 490.1C402.852 489.4 402.952 488.7 402.952 487.8C402.952 487 402.852 486.2 402.552 485.5C401.952 484.1 400.552 483 398.252 483V482.9H244.252Z" fill="white"/>
<path d="M190.5 466H209.4V536H190.5V519.3C190.5 518.5 190.4 517.7 190.1 517C189.5 515.6 188.1 514.5 185.8 514.5H33.7L20.6 536H0L38.7 474.7C40.7 471.9 43.3 469.7 46.4 468.2C49.3 466.8 52.5 466 56.1 466V466.1H190.5V466ZM190.5 497.8V482.9H56.1C55.1 482.9 54.3 483.1 53.7 483.4C53.1 483.6 52.7 484 52.4 484.5L43.9 497.7H187.9C188.8 497.7 189.6 497.8 190.5 497.8Z" fill="white"/>
<path d="M864.478 582.412C862.563 582.412 860.747 582.076 859.031 581.405C857.34 580.709 856.047 579.838 855.151 578.794L855.823 577.898C856.668 578.843 857.862 579.652 859.404 580.323C860.971 580.97 862.65 581.293 864.44 581.293C866.256 581.293 867.748 581.044 868.917 580.547C870.086 580.05 870.944 579.39 871.491 578.57C872.063 577.724 872.349 576.792 872.349 575.772C872.349 574.578 872.051 573.621 871.454 572.899C870.857 572.178 870.061 571.606 869.066 571.183C868.096 570.76 867.027 570.412 865.858 570.139C864.714 569.865 863.545 569.579 862.351 569.281C861.182 568.957 860.1 568.559 859.106 568.087C858.136 567.59 857.352 566.918 856.755 566.072C856.183 565.202 855.897 564.083 855.897 562.715C855.897 561.546 856.208 560.452 856.83 559.432C857.452 558.412 858.422 557.592 859.74 556.97C861.058 556.323 862.749 556 864.813 556C866.231 556 867.624 556.224 868.992 556.671C870.384 557.094 871.566 557.666 872.536 558.388L871.976 559.395C870.931 558.624 869.775 558.052 868.507 557.679C867.238 557.306 866.02 557.119 864.851 557.119C863.11 557.119 861.655 557.38 860.486 557.903C859.342 558.4 858.496 559.071 857.949 559.917C857.402 560.763 857.128 561.695 857.128 562.715C857.128 563.934 857.427 564.904 858.024 565.625C858.621 566.346 859.404 566.918 860.374 567.341C861.369 567.764 862.451 568.112 863.62 568.385C864.788 568.659 865.957 568.957 867.126 569.281C868.295 569.579 869.365 569.977 870.334 570.474C871.329 570.972 872.113 571.643 872.685 572.489C873.282 573.31 873.58 574.392 873.58 575.735C873.58 576.903 873.257 577.998 872.61 579.017C871.988 580.037 870.994 580.858 869.626 581.48C868.283 582.101 866.567 582.412 864.478 582.412Z" fill="white"/>
<path d="M838.328 582.412C835.144 582.412 832.632 581.48 830.792 579.614C828.976 577.749 828.069 574.964 828.069 571.258V556.149H829.337V571.221C829.337 574.603 830.12 577.127 831.687 578.794C833.254 580.435 835.467 581.256 838.328 581.256C841.188 581.256 843.401 580.435 844.968 578.794C846.535 577.127 847.318 574.603 847.318 571.221V556.149H848.549V571.258C848.549 574.964 847.629 577.749 845.789 579.614C843.973 581.48 841.486 582.412 838.328 582.412Z" fill="white"/>
<path d="M813.108 582.263V557.306H803.52V556.149H823.926V557.306H814.339V582.263H813.108Z" fill="white"/>
<path d="M778.968 582.263L791.055 556.149H792.286L804.373 582.263H802.993L791.391 557.007H791.951L780.349 582.263H778.968ZM783.147 574.615L783.631 573.533H799.598L800.083 574.615H783.147Z" fill="white"/>
<path d="M769.063 582.263V557.306H759.475V556.149H779.881V557.306H770.294V582.263H769.063Z" fill="white"/>
<path d="M748.554 582.412C746.639 582.412 744.823 582.076 743.107 581.405C741.416 580.709 740.123 579.838 739.228 578.794L739.899 577.898C740.745 578.843 741.938 579.652 743.48 580.323C745.047 580.97 746.726 581.293 748.517 581.293C750.332 581.293 751.824 581.044 752.993 580.547C754.162 580.05 755.02 579.39 755.567 578.57C756.139 577.724 756.425 576.792 756.425 575.772C756.425 574.578 756.127 573.621 755.53 572.899C754.933 572.178 754.137 571.606 753.143 571.183C752.173 570.76 751.103 570.412 749.934 570.139C748.79 569.865 747.621 569.579 746.428 569.281C745.259 568.957 744.177 568.559 743.182 568.087C742.212 567.59 741.429 566.918 740.832 566.072C740.26 565.202 739.974 564.083 739.974 562.715C739.974 561.546 740.285 560.452 740.906 559.432C741.528 558.412 742.498 557.592 743.816 556.97C745.134 556.323 746.825 556 748.89 556C750.307 556 751.7 556.224 753.068 556.671C754.461 557.094 755.642 557.666 756.612 558.388L756.052 559.395C755.008 558.624 753.851 558.052 752.583 557.679C751.315 557.306 750.096 557.119 748.927 557.119C747.186 557.119 745.731 557.38 744.562 557.903C743.418 558.4 742.573 559.071 742.026 559.917C741.478 560.763 741.205 561.695 741.205 562.715C741.205 563.934 741.503 564.904 742.1 565.625C742.697 566.346 743.48 566.918 744.45 567.341C745.445 567.764 746.527 568.112 747.696 568.385C748.865 568.659 750.034 568.957 751.203 569.281C752.372 569.579 753.441 569.977 754.411 570.474C755.406 570.972 756.189 571.643 756.761 572.489C757.358 573.31 757.656 574.392 757.656 575.735C757.656 576.903 757.333 577.998 756.687 579.017C756.065 580.037 755.07 580.858 753.702 581.48C752.359 582.101 750.643 582.412 748.554 582.412Z" fill="white"/>
<path d="M702.095 582.263V556.149H703.14L722.315 580.771H721.681V556.149H722.949V582.263H721.904L702.729 557.641H703.364V582.263H702.095Z" fill="white"/>
<path d="M681.692 582.412C679.777 582.412 677.999 582.089 676.358 581.442C674.716 580.771 673.286 579.838 672.068 578.644C670.849 577.451 669.904 576.058 669.233 574.466C668.561 572.85 668.225 571.096 668.225 569.206C668.225 567.316 668.561 565.575 669.233 563.983C669.904 562.367 670.849 560.962 672.068 559.768C673.286 558.574 674.716 557.654 676.358 557.007C677.999 556.336 679.777 556 681.692 556C683.632 556 685.423 556.336 687.064 557.007C688.706 557.654 690.124 558.574 691.317 559.768C692.536 560.962 693.481 562.367 694.152 563.983C694.849 565.575 695.197 567.316 695.197 569.206C695.197 571.096 694.849 572.85 694.152 574.466C693.481 576.058 692.536 577.451 691.317 578.644C690.124 579.838 688.706 580.771 687.064 581.442C685.423 582.089 683.632 582.412 681.692 582.412ZM681.692 581.256C683.433 581.256 685.05 580.957 686.542 580.36C688.034 579.764 689.328 578.918 690.422 577.824C691.541 576.729 692.399 575.461 692.996 574.018C693.618 572.551 693.929 570.947 693.929 569.206C693.929 567.465 693.618 565.873 692.996 564.431C692.399 562.964 691.541 561.683 690.422 560.589C689.328 559.494 688.034 558.649 686.542 558.052C685.05 557.455 683.433 557.156 681.692 557.156C679.976 557.156 678.372 557.455 676.88 558.052C675.388 558.649 674.082 559.494 672.963 560.589C671.869 561.683 671.011 562.964 670.389 564.431C669.792 565.873 669.494 567.465 669.494 569.206C669.494 570.947 669.792 572.551 670.389 574.018C671.011 575.461 671.869 576.729 672.963 577.824C674.082 578.918 675.388 579.764 676.88 580.36C678.372 580.957 679.976 581.256 681.692 581.256Z" fill="white"/>
<path d="M660.054 582.263V556.149H661.322V582.263H660.054Z" fill="white"/>
<path d="M644.323 582.263V557.306H634.735V556.149H655.141V557.306H645.554V582.263H644.323Z" fill="white"/>
<path d="M620.361 582.412C617.177 582.412 614.665 581.48 612.825 579.614C611.01 577.749 610.102 574.964 610.102 571.258V556.149H611.37V571.221C611.37 574.603 612.154 577.127 613.72 578.794C615.287 580.435 617.501 581.256 620.361 581.256C623.221 581.256 625.434 580.435 627.001 578.794C628.568 577.127 629.351 574.603 629.351 571.221V556.149H630.582V571.258C630.582 574.964 629.662 577.749 627.822 579.614C626.006 581.48 623.519 582.412 620.361 582.412Z" fill="white"/>
<path d="M594.549 582.412C592.634 582.412 590.856 582.089 589.215 581.442C587.573 580.771 586.143 579.838 584.925 578.644C583.706 577.451 582.761 576.058 582.089 574.466C581.418 572.85 581.082 571.096 581.082 569.206C581.082 567.316 581.418 565.575 582.089 563.983C582.761 562.367 583.706 560.962 584.925 559.768C586.143 558.574 587.573 557.654 589.215 557.007C590.856 556.336 592.634 556 594.549 556C596.315 556 597.982 556.286 599.548 556.858C601.115 557.43 602.471 558.3 603.615 559.469L602.831 560.29C601.662 559.171 600.382 558.375 598.989 557.903C597.621 557.405 596.154 557.156 594.587 557.156C592.846 557.156 591.229 557.467 589.737 558.089C588.245 558.686 586.939 559.532 585.82 560.626C584.726 561.72 583.868 563.001 583.246 564.468C582.649 565.911 582.351 567.49 582.351 569.206C582.351 570.922 582.649 572.514 583.246 573.981C583.868 575.424 584.726 576.692 585.82 577.786C586.939 578.881 588.245 579.739 589.737 580.36C591.229 580.957 592.846 581.256 594.587 581.256C596.154 581.256 597.621 581.019 598.989 580.547C600.382 580.05 601.662 579.229 602.831 578.085L603.615 578.906C602.471 580.074 601.115 580.957 599.548 581.554C597.982 582.126 596.315 582.412 594.549 582.412Z" fill="white"/>
<path d="M560.002 568.423H574.402V569.579H560.002V568.423ZM560.226 581.106H576.603V582.263H558.958V556.149H576.081V557.306H560.226V581.106Z" fill="white"/>
<path d="M532.49 582.263L542.973 568.273V569.281L533.199 556.149H534.691L543.644 568.162H543.159L552.113 556.149H553.53L543.868 569.094V568.423L554.276 582.263H552.784L543.122 569.355H543.607L533.945 582.263H532.49Z" fill="white"/>
<path d="M512.897 568.423H527.297V569.579H512.897V568.423ZM513.121 581.106H529.498V582.263H511.852V556.149H528.976V557.306H513.121V581.106Z" fill="white"/>
<path d="M485.821 572.899V571.78H495.26V572.899H485.821Z" fill="white"/>
<path d="M460.814 582.412C458.874 582.412 457.071 582.089 455.405 581.442C453.763 580.771 452.321 579.838 451.077 578.644C449.858 577.451 448.913 576.058 448.242 574.466C447.57 572.85 447.235 571.096 447.235 569.206C447.235 567.316 447.57 565.575 448.242 563.983C448.913 562.367 449.858 560.962 451.077 559.768C452.321 558.574 453.763 557.654 455.405 557.007C457.071 556.336 458.874 556 460.814 556C462.629 556 464.333 556.286 465.925 556.858C467.516 557.43 468.872 558.288 469.991 559.432L469.245 560.29C468.051 559.146 466.758 558.338 465.365 557.865C463.972 557.393 462.468 557.156 460.851 557.156C459.085 557.156 457.444 557.467 455.927 558.089C454.435 558.686 453.129 559.532 452.01 560.626C450.891 561.72 450.02 563.001 449.398 564.468C448.801 565.911 448.503 567.49 448.503 569.206C448.503 570.922 448.801 572.514 449.398 573.981C450.02 575.424 450.891 576.692 452.01 577.786C453.129 578.881 454.435 579.739 455.927 580.36C457.444 580.957 459.085 581.256 460.851 581.256C462.443 581.256 463.947 581.019 465.365 580.547C466.808 580.05 468.088 579.241 469.208 578.122L469.954 579.055C468.81 580.174 467.442 581.019 465.85 581.591C464.258 582.139 462.58 582.412 460.814 582.412ZM468.76 578.98V569.393H469.954V579.055L468.76 578.98Z" fill="white"/>
<path d="M419.463 582.263V556.149H420.508L439.683 580.771H439.049V556.149H440.317V582.263H439.273L420.098 557.641H420.732V582.263H419.463Z" fill="white"/>
<path d="M408.643 582.263V556.149H409.912V582.263H408.643Z" fill="white"/>
<path d="M392.912 582.263V557.306H383.325V556.149H403.731V557.306H394.143V582.263H392.912Z" fill="white"/>
<path d="M361.538 582.263V556.149H370.603C372.767 556.149 374.62 556.497 376.162 557.194C377.729 557.89 378.922 558.885 379.743 560.178C380.564 561.447 380.974 562.988 380.974 564.804C380.974 566.62 380.564 568.174 379.743 569.467C378.922 570.76 377.729 571.755 376.162 572.452C374.62 573.148 372.767 573.496 370.603 573.496H362.247L362.806 572.899V582.263H361.538ZM379.892 582.263L373.103 572.787H374.558L381.385 582.263H379.892ZM362.806 572.899L362.247 572.34H370.678C373.613 572.34 375.851 571.681 377.393 570.363C378.96 569.044 379.743 567.192 379.743 564.804C379.743 562.416 378.96 560.576 377.393 559.283C375.851 557.965 373.613 557.306 370.678 557.306H362.247L362.806 556.709V572.899Z" fill="white"/>
<path d="M341.135 582.412C339.22 582.412 337.442 582.089 335.801 581.442C334.159 580.771 332.729 579.838 331.51 578.644C330.292 577.451 329.347 576.058 328.675 574.466C328.004 572.85 327.668 571.096 327.668 569.206C327.668 567.316 328.004 565.575 328.675 563.983C329.347 562.367 330.292 560.962 331.51 559.768C332.729 558.574 334.159 557.654 335.801 557.007C337.442 556.336 339.22 556 341.135 556C343.075 556 344.866 556.336 346.507 557.007C348.149 557.654 349.566 558.574 350.76 559.768C351.979 560.962 352.924 562.367 353.595 563.983C354.292 565.575 354.64 567.316 354.64 569.206C354.64 571.096 354.292 572.85 353.595 574.466C352.924 576.058 351.979 577.451 350.76 578.644C349.566 579.838 348.149 580.771 346.507 581.442C344.866 582.089 343.075 582.412 341.135 582.412ZM341.135 581.256C342.876 581.256 344.493 580.957 345.985 580.36C347.477 579.764 348.77 578.918 349.865 577.824C350.984 576.729 351.842 575.461 352.439 574.018C353.061 572.551 353.371 570.947 353.371 569.206C353.371 567.465 353.061 565.873 352.439 564.431C351.842 562.964 350.984 561.683 349.865 560.589C348.77 559.494 347.477 558.649 345.985 558.052C344.493 557.455 342.876 557.156 341.135 557.156C339.419 557.156 337.815 557.455 336.323 558.052C334.831 558.649 333.525 559.494 332.406 560.589C331.311 561.683 330.453 562.964 329.832 564.431C329.235 565.873 328.936 567.465 328.936 569.206C328.936 570.947 329.235 572.551 329.832 574.018C330.453 575.461 331.311 576.729 332.406 577.824C333.525 578.918 334.831 579.764 336.323 580.36C337.815 580.957 339.419 581.256 341.135 581.256Z" fill="white"/>
<path d="M303.758 582.263V556.149H312.824C314.987 556.149 316.84 556.497 318.382 557.194C319.949 557.89 321.143 558.885 321.963 560.178C322.784 561.447 323.195 562.988 323.195 564.804C323.195 566.62 322.784 568.174 321.963 569.467C321.143 570.76 319.949 571.755 318.382 572.452C316.84 573.148 314.987 573.496 312.824 573.496H304.467L305.027 572.899V582.263H303.758ZM305.027 572.899L304.467 572.34H312.898C315.833 572.34 318.071 571.681 319.613 570.363C321.18 569.044 321.963 567.192 321.963 564.804C321.963 562.416 321.18 560.576 319.613 559.283C318.071 557.965 315.833 557.306 312.898 557.306H304.467L305.027 556.709V572.899Z" fill="white"/>
<path d="M279.884 568.423H294.284V569.579H279.884V568.423ZM280.108 581.106H296.485V582.263H278.84V556.149H295.963V557.306H280.108V581.106Z" fill="white"/>
<path d="M252.063 582.263V556.149H261.128C263.292 556.149 265.145 556.497 266.687 557.194C268.253 557.89 269.447 558.885 270.268 560.178C271.089 561.447 271.499 562.988 271.499 564.804C271.499 566.62 271.089 568.174 270.268 569.467C269.447 570.76 268.253 571.755 266.687 572.452C265.145 573.148 263.292 573.496 261.128 573.496H252.772L253.331 572.899V582.263H252.063ZM270.417 582.263L263.627 572.787H265.082L271.909 582.263H270.417ZM253.331 572.899L252.772 572.34H261.203C264.137 572.34 266.376 571.681 267.918 570.363C269.484 569.044 270.268 567.192 270.268 564.804C270.268 562.416 269.484 560.576 267.918 559.283C266.376 557.965 264.137 557.306 261.203 557.306H252.772L253.331 556.709V572.899Z" fill="white"/>
<path d="M224.177 582.412C222.585 582.412 221.155 582.139 219.887 581.591C218.643 581.044 217.661 580.298 216.94 579.353C216.243 578.383 215.895 577.252 215.895 575.958C215.895 574.964 216.119 574.018 216.566 573.123C217.039 572.228 217.798 571.333 218.842 570.437C219.912 569.517 221.342 568.535 223.132 567.49C224.774 566.52 226.054 565.687 226.975 564.991C227.92 564.294 228.579 563.623 228.952 562.976C229.35 562.329 229.549 561.608 229.549 560.812C229.549 559.693 229.176 558.785 228.43 558.089C227.683 557.393 226.602 557.045 225.184 557.045C223.717 557.045 222.573 557.43 221.752 558.201C220.931 558.947 220.521 559.942 220.521 561.185C220.521 561.757 220.608 562.305 220.782 562.827C220.956 563.349 221.267 563.934 221.715 564.58C222.187 565.227 222.846 566.01 223.692 566.93L237.569 581.815L236.749 582.636L222.647 567.453C221.777 566.508 221.093 565.699 220.595 565.028C220.123 564.332 219.787 563.685 219.588 563.088C219.414 562.466 219.327 561.832 219.327 561.185C219.327 560.141 219.563 559.233 220.036 558.462C220.533 557.691 221.217 557.094 222.088 556.671C222.983 556.224 224.015 556 225.184 556C226.303 556 227.273 556.199 228.094 556.597C228.915 556.97 229.549 557.517 229.996 558.238C230.444 558.96 230.668 559.818 230.668 560.812C230.668 561.708 230.457 562.528 230.034 563.275C229.611 564.021 228.902 564.792 227.907 565.587C226.912 566.383 225.545 567.291 223.804 568.311C222.088 569.33 220.732 570.251 219.737 571.071C218.767 571.867 218.084 572.651 217.686 573.422C217.313 574.168 217.126 574.988 217.126 575.884C217.126 576.978 217.424 577.948 218.021 578.794C218.618 579.614 219.451 580.248 220.521 580.696C221.59 581.144 222.821 581.368 224.214 581.368C226.054 581.368 227.671 580.995 229.064 580.248C230.481 579.502 231.663 578.383 232.608 576.891C233.578 575.374 234.274 573.471 234.697 571.183L235.741 571.444C235.269 573.931 234.498 575.983 233.428 577.6C232.384 579.216 231.078 580.423 229.511 581.218C227.969 582.014 226.191 582.412 224.177 582.412Z" fill="white"/>
<path d="M193.309 582.412C191.394 582.412 189.578 582.076 187.862 581.405C186.171 580.709 184.878 579.838 183.982 578.794L184.654 577.898C185.499 578.843 186.693 579.652 188.235 580.323C189.802 580.97 191.481 581.293 193.271 581.293C195.087 581.293 196.579 581.044 197.748 580.547C198.917 580.05 199.775 579.39 200.322 578.57C200.894 577.724 201.18 576.792 201.18 575.772C201.18 574.578 200.882 573.621 200.285 572.899C199.688 572.178 198.892 571.606 197.897 571.183C196.927 570.76 195.858 570.412 194.689 570.139C193.545 569.865 192.376 569.579 191.182 569.281C190.013 568.957 188.931 568.559 187.937 568.087C186.967 567.59 186.183 566.918 185.586 566.072C185.014 565.202 184.728 564.083 184.728 562.715C184.728 561.546 185.039 560.452 185.661 559.432C186.283 558.412 187.253 557.592 188.571 556.97C189.889 556.323 191.58 556 193.644 556C195.062 556 196.455 556.224 197.823 556.671C199.215 557.094 200.397 557.666 201.367 558.388L200.807 559.395C199.762 558.624 198.606 558.052 197.338 557.679C196.069 557.306 194.851 557.119 193.682 557.119C191.941 557.119 190.486 557.38 189.317 557.903C188.173 558.4 187.327 559.071 186.78 559.917C186.233 560.763 185.959 561.695 185.959 562.715C185.959 563.934 186.258 564.904 186.855 565.625C187.452 566.346 188.235 566.918 189.205 567.341C190.2 567.764 191.282 568.112 192.451 568.385C193.619 568.659 194.788 568.957 195.957 569.281C197.126 569.579 198.196 569.977 199.166 570.474C200.16 570.972 200.944 571.643 201.516 572.489C202.113 573.31 202.411 574.392 202.411 575.735C202.411 576.903 202.088 577.998 201.441 579.017C200.819 580.037 199.825 580.858 198.457 581.48C197.114 582.101 195.398 582.412 193.309 582.412Z" fill="white"/>
<path d="M171.075 582.412C169.16 582.412 167.382 582.089 165.74 581.442C164.099 580.771 162.669 579.838 161.45 578.644C160.232 577.451 159.287 576.058 158.615 574.466C157.944 572.85 157.608 571.096 157.608 569.206C157.608 567.316 157.944 565.575 158.615 563.983C159.287 562.367 160.232 560.962 161.45 559.768C162.669 558.574 164.099 557.654 165.74 557.007C167.382 556.336 169.16 556 171.075 556C172.841 556 174.507 556.286 176.074 556.858C177.641 557.43 178.996 558.3 180.14 559.469L179.357 560.29C178.188 559.171 176.907 558.375 175.514 557.903C174.147 557.405 172.679 557.156 171.112 557.156C169.372 557.156 167.755 557.467 166.263 558.089C164.771 558.686 163.465 559.532 162.346 560.626C161.251 561.72 160.393 563.001 159.772 564.468C159.175 565.911 158.876 567.49 158.876 569.206C158.876 570.922 159.175 572.514 159.772 573.981C160.393 575.424 161.251 576.692 162.346 577.786C163.465 578.881 164.771 579.739 166.263 580.36C167.755 580.957 169.372 581.256 171.112 581.256C172.679 581.256 174.147 581.019 175.514 580.547C176.907 580.05 178.188 579.229 179.357 578.085L180.14 578.906C178.996 580.074 177.641 580.957 176.074 581.554C174.507 582.126 172.841 582.412 171.075 582.412Z" fill="white"/>
<path d="M149.437 582.263V556.149H150.705V582.263H149.437Z" fill="white"/>
<path d="M133.705 582.263V557.306H124.118V556.149H144.524V557.306H134.936V582.263H133.705Z" fill="white"/>
<path d="M111.873 582.263V572.974L112.171 573.832L101.316 556.149H102.696L112.843 572.638H112.209L122.393 556.149H123.736L112.843 573.832L113.141 572.974V582.263H111.873Z" fill="white"/>
<path d="M86.8845 582.263V556.149H88.1529V581.106H103.448V582.263H86.8845Z" fill="white"/>
<path d="M56.3952 582.263L68.4822 556.149H69.7133L81.8002 582.263H80.4199L68.8179 557.007H69.3775L57.7755 582.263H56.3952ZM60.5734 574.615L61.0584 573.533H77.0251L77.5101 574.615H60.5734Z" fill="white"/>
<path d="M30.4893 582.263V556.149H31.5338L50.7088 580.771H50.0746V556.149H51.343V582.263H50.2984L31.1235 557.641H31.7577V582.263H30.4893Z" fill="white"/>
<path d="M0 582.263L12.0869 556.149H13.318L25.405 582.263H24.0247L12.4227 557.007H12.9823L1.3803 582.263H0ZM4.1782 574.615L4.66317 573.533H20.6299L21.1148 574.615H4.1782Z" fill="white"/>
</svg>
