<svg width="874" height="117" viewBox="0 0 874 117" fill="none" xmlns="http://www.w3.org/2000/svg">
<path d="M872.852 39.8H872.952C874.052 42.5 874.052 54.2 872.952 56.9C869.952 64.3 863.352 70 853.052 70H665.152V53.2H850.952C853.252 53.2 854.652 52.1 855.252 50.7C855.552 50 855.552 46.7 855.252 46C854.652 44.6 853.252 43.5 850.952 43.5H686.652C676.352 43.5 669.652 37.7 666.752 30.3C665.652 27.6 665.652 16 666.752 13.2C669.752 5.8 676.352 0 686.652 0V0.0999985H868.452V16.9H688.652C686.352 16.9 684.952 18 684.352 19.5C684.152 20.1 684.152 23.4 684.352 24.1C684.952 25.5 686.352 26.7 688.652 26.7H853.052V26.6C863.252 26.6 869.952 32.4 872.852 39.8Z" fill="white"/>
<path d="M651.612 16.8L439.512 17V26.6H651.612V43.4H439.512V53.2H651.612V70H439.512V0H651.612V16.8Z" fill="white"/>
<path d="M322.352 53.2H428.152V70H322.352C318.752 70 315.452 69.3 312.652 67.9C309.552 66.4 306.952 64.2 304.952 61.4L293.552 45.1C293.252 44.6 292.752 44.2 292.252 44C291.652 43.7 290.852 43.5 289.852 43.5H244.252V70H225.452V0.0999756H398.252C408.552 0.0999756 415.252 5.89998 418.152 13.2C419.252 16 419.252 27.6 418.152 30.4C415.252 37.7 408.552 43.5 398.252 43.5H313.252L318.652 51.6C318.952 52.1 319.352 52.5 319.952 52.7C320.452 53 321.252 53.2 322.352 53.2ZM244.252 16.9V26.7H398.252C400.552 26.7 401.952 25.6 402.552 24.1C402.852 23.4 402.952 22.7 402.952 21.8C402.952 21 402.852 20.2 402.552 19.5C401.952 18.1 400.552 17 398.252 17V16.9H244.252Z" fill="white"/>
<path d="M190.5 0H209.4V70H190.5V53.3C190.5 52.5 190.4 51.7 190.1 51C189.5 49.6 188.1 48.5 185.8 48.5H33.7L20.6 70H0L38.7 8.7C40.7 5.9 43.3 3.7 46.4 2.2C49.3 0.800001 52.5 0 56.1 0V0.0999985H190.5V0ZM190.5 31.8V16.9H56.1C55.1 16.9 54.3 17.1 53.7 17.4C53.1 17.6 52.7 18 52.4 18.5L43.9 31.7H187.9C188.8 31.7 189.6 31.8 190.5 31.8Z" fill="white"/>
<path d="M864.478 116.412C862.563 116.412 860.747 116.076 859.031 115.405C857.34 114.709 856.047 113.838 855.151 112.794L855.823 111.898C856.668 112.843 857.862 113.652 859.404 114.323C860.971 114.97 862.65 115.293 864.44 115.293C866.256 115.293 867.748 115.044 868.917 114.547C870.086 114.05 870.944 113.39 871.491 112.57C872.063 111.724 872.349 110.792 872.349 109.772C872.349 108.578 872.051 107.621 871.454 106.899C870.857 106.178 870.061 105.606 869.066 105.183C868.096 104.76 867.027 104.412 865.858 104.139C864.714 103.865 863.545 103.579 862.351 103.281C861.182 102.957 860.1 102.559 859.106 102.087C858.136 101.59 857.352 100.918 856.755 100.072C856.183 99.202 855.897 98.0828 855.897 96.715C855.897 95.5461 856.208 94.4518 856.83 93.4321C857.452 92.4124 858.422 91.5917 859.74 90.9699C861.058 90.3233 862.749 90 864.813 90C866.231 90 867.624 90.2238 868.992 90.6715C870.384 91.0943 871.566 91.6663 872.536 92.3875L871.976 93.3948C870.931 92.6238 869.775 92.0518 868.507 91.6787C867.238 91.3057 866.02 91.1192 864.851 91.1192C863.11 91.1192 861.655 91.3803 860.486 91.9026C859.342 92.4 858.496 93.0715 857.949 93.9171C857.402 94.7627 857.128 95.6953 857.128 96.715C857.128 97.9336 857.427 98.9036 858.024 99.6248C858.621 100.346 859.404 100.918 860.374 101.341C861.369 101.764 862.451 102.112 863.62 102.385C864.788 102.659 865.957 102.957 867.126 103.281C868.295 103.579 869.365 103.977 870.334 104.474C871.329 104.972 872.113 105.643 872.685 106.489C873.282 107.31 873.58 108.392 873.58 109.735C873.58 110.903 873.257 111.998 872.61 113.017C871.988 114.037 870.994 114.858 869.626 115.48C868.283 116.101 866.567 116.412 864.478 116.412Z" fill="white"/>
<path d="M838.328 116.412C835.144 116.412 832.632 115.48 830.792 113.614C828.976 111.749 828.069 108.964 828.069 105.258V90.1492H829.337V105.221C829.337 108.603 830.12 111.127 831.687 112.794C833.254 114.435 835.467 115.256 838.328 115.256C841.188 115.256 843.401 114.435 844.968 112.794C846.535 111.127 847.318 108.603 847.318 105.221V90.1492H848.549V105.258C848.549 108.964 847.629 111.749 845.789 113.614C843.973 115.48 841.486 116.412 838.328 116.412Z" fill="white"/>
<path d="M813.108 116.263V91.3057H803.52V90.1492H823.926V91.3057H814.339V116.263H813.108Z" fill="white"/>
<path d="M778.968 116.263L791.055 90.1492H792.286L804.373 116.263H802.993L791.391 91.0073H791.951L780.349 116.263H778.968ZM783.147 108.615L783.631 107.534H799.598L800.083 108.615H783.147Z" fill="white"/>
<path d="M769.063 116.263V91.3057H759.475V90.1492H779.881V91.3057H770.294V116.263H769.063Z" fill="white"/>
<path d="M748.554 116.412C746.639 116.412 744.823 116.076 743.107 115.405C741.416 114.709 740.123 113.838 739.228 112.794L739.899 111.898C740.745 112.843 741.938 113.652 743.48 114.323C745.047 114.97 746.726 115.293 748.517 115.293C750.332 115.293 751.824 115.044 752.993 114.547C754.162 114.05 755.02 113.39 755.567 112.57C756.139 111.724 756.425 110.792 756.425 109.772C756.425 108.578 756.127 107.621 755.53 106.899C754.933 106.178 754.137 105.606 753.143 105.183C752.173 104.76 751.103 104.412 749.934 104.139C748.79 103.865 747.621 103.579 746.428 103.281C745.259 102.957 744.177 102.559 743.182 102.087C742.212 101.59 741.429 100.918 740.832 100.072C740.26 99.202 739.974 98.0828 739.974 96.715C739.974 95.5461 740.285 94.4518 740.906 93.4321C741.528 92.4124 742.498 91.5917 743.816 90.9699C745.134 90.3233 746.825 90 748.89 90C750.307 90 751.7 90.2238 753.068 90.6715C754.461 91.0943 755.642 91.6663 756.612 92.3875L756.052 93.3948C755.008 92.6238 753.851 92.0518 752.583 91.6787C751.315 91.3057 750.096 91.1192 748.927 91.1192C747.186 91.1192 745.731 91.3803 744.562 91.9026C743.418 92.4 742.573 93.0715 742.026 93.9171C741.478 94.7627 741.205 95.6953 741.205 96.715C741.205 97.9336 741.503 98.9036 742.1 99.6248C742.697 100.346 743.48 100.918 744.45 101.341C745.445 101.764 746.527 102.112 747.696 102.385C748.865 102.659 750.034 102.957 751.203 103.281C752.372 103.579 753.441 103.977 754.411 104.474C755.406 104.972 756.189 105.643 756.761 106.489C757.358 107.31 757.656 108.392 757.656 109.735C757.656 110.903 757.333 111.998 756.687 113.017C756.065 114.037 755.07 114.858 753.702 115.48C752.359 116.101 750.643 116.412 748.554 116.412Z" fill="white"/>
<path d="M702.095 116.263V90.1492H703.14L722.315 114.771H721.681V90.1492H722.949V116.263H721.904L702.729 91.6414H703.364V116.263H702.095Z" fill="white"/>
<path d="M681.692 116.412C679.777 116.412 677.999 116.089 676.358 115.442C674.716 114.771 673.286 113.838 672.068 112.644C670.849 111.451 669.904 110.058 669.233 108.466C668.561 106.85 668.225 105.096 668.225 103.206C668.225 101.316 668.561 99.575 669.233 97.9834C669.904 96.3668 670.849 94.9616 672.068 93.7678C673.286 92.5741 674.716 91.6539 676.358 91.0072C677.999 90.3357 679.777 90 681.692 90C683.632 90 685.423 90.3357 687.064 91.0072C688.706 91.6539 690.124 92.5741 691.317 93.7678C692.536 94.9616 693.481 96.3668 694.152 97.9834C694.849 99.575 695.197 101.316 695.197 103.206C695.197 105.096 694.849 106.85 694.152 108.466C693.481 110.058 692.536 111.451 691.317 112.644C690.124 113.838 688.706 114.771 687.064 115.442C685.423 116.089 683.632 116.412 681.692 116.412ZM681.692 115.256C683.433 115.256 685.05 114.957 686.542 114.36C688.034 113.764 689.328 112.918 690.422 111.824C691.541 110.729 692.399 109.461 692.996 108.018C693.618 106.551 693.929 104.947 693.929 103.206C693.929 101.465 693.618 99.8735 692.996 98.431C692.399 96.9637 691.541 95.6829 690.422 94.5886C689.328 93.4943 688.034 92.6487 686.542 92.0518C685.05 91.4549 683.433 91.1565 681.692 91.1565C679.976 91.1565 678.372 91.4549 676.88 92.0518C675.388 92.6487 674.082 93.4943 672.963 94.5886C671.869 95.6829 671.011 96.9637 670.389 98.431C669.792 99.8735 669.494 101.465 669.494 103.206C669.494 104.947 669.792 106.551 670.389 108.018C671.011 109.461 671.869 110.729 672.963 111.824C674.082 112.918 675.388 113.764 676.88 114.36C678.372 114.957 679.976 115.256 681.692 115.256Z" fill="white"/>
<path d="M660.054 116.263V90.1492H661.322V116.263H660.054Z" fill="white"/>
<path d="M644.323 116.263V91.3057H634.735V90.1492H655.141V91.3057H645.554V116.263H644.323Z" fill="white"/>
<path d="M620.361 116.412C617.177 116.412 614.665 115.48 612.825 113.614C611.01 111.749 610.102 108.964 610.102 105.258V90.1492H611.37V105.221C611.37 108.603 612.154 111.127 613.72 112.794C615.287 114.435 617.501 115.256 620.361 115.256C623.221 115.256 625.434 114.435 627.001 112.794C628.568 111.127 629.351 108.603 629.351 105.221V90.1492H630.582V105.258C630.582 108.964 629.662 111.749 627.822 113.614C626.006 115.48 623.519 116.412 620.361 116.412Z" fill="white"/>
<path d="M594.549 116.412C592.634 116.412 590.856 116.089 589.215 115.442C587.573 114.771 586.143 113.838 584.925 112.644C583.706 111.451 582.761 110.058 582.089 108.466C581.418 106.85 581.082 105.096 581.082 103.206C581.082 101.316 581.418 99.575 582.089 97.9834C582.761 96.3668 583.706 94.9616 584.925 93.7678C586.143 92.5741 587.573 91.6539 589.215 91.0072C590.856 90.3357 592.634 90 594.549 90C596.315 90 597.982 90.286 599.548 90.858C601.115 91.43 602.471 92.3005 603.615 93.4694L602.831 94.2901C601.662 93.171 600.382 92.3751 598.989 91.9026C597.621 91.4052 596.154 91.1565 594.587 91.1565C592.846 91.1565 591.229 91.4673 589.737 92.0891C588.245 92.686 586.939 93.5316 585.82 94.6259C584.726 95.7202 583.868 97.001 583.246 98.4683C582.649 99.9108 582.351 101.49 582.351 103.206C582.351 104.922 582.649 106.514 583.246 107.981C583.868 109.424 584.726 110.692 585.82 111.786C586.939 112.881 588.245 113.739 589.737 114.36C591.229 114.957 592.846 115.256 594.587 115.256C596.154 115.256 597.621 115.019 598.989 114.547C600.382 114.05 601.662 113.229 602.831 112.085L603.615 112.906C602.471 114.074 601.115 114.957 599.548 115.554C597.982 116.126 596.315 116.412 594.549 116.412Z" fill="white"/>
<path d="M560.002 102.423H574.402V103.579H560.002V102.423ZM560.226 115.107H576.603V116.263H558.958V90.1492H576.081V91.3057H560.226V115.107Z" fill="white"/>
<path d="M532.49 116.263L542.973 102.273V103.281L533.199 90.1492H534.691L543.644 102.162H543.159L552.113 90.1492H553.53L543.868 103.094V102.423L554.276 116.263H552.784L543.122 103.355H543.607L533.945 116.263H532.49Z" fill="white"/>
<path d="M512.897 102.423H527.297V103.579H512.897V102.423ZM513.121 115.107H529.498V116.263H511.852V90.1492H528.976V91.3057H513.121V115.107Z" fill="white"/>
<path d="M485.821 106.899V105.78H495.26V106.899H485.821Z" fill="white"/>
<path d="M460.814 116.412C458.874 116.412 457.071 116.089 455.405 115.442C453.763 114.771 452.321 113.838 451.077 112.644C449.858 111.451 448.913 110.058 448.242 108.466C447.57 106.85 447.235 105.096 447.235 103.206C447.235 101.316 447.57 99.575 448.242 97.9834C448.913 96.3668 449.858 94.9616 451.077 93.7678C452.321 92.5741 453.763 91.6539 455.405 91.0072C457.071 90.3357 458.874 90 460.814 90C462.629 90 464.333 90.286 465.925 90.858C467.516 91.43 468.872 92.2881 469.991 93.4321L469.245 94.2901C468.051 93.1461 466.758 92.3378 465.365 91.8653C463.972 91.3927 462.468 91.1565 460.851 91.1565C459.085 91.1565 457.444 91.4673 455.927 92.0891C454.435 92.686 453.129 93.5316 452.01 94.6259C450.891 95.7202 450.02 97.001 449.398 98.4683C448.801 99.9108 448.503 101.49 448.503 103.206C448.503 104.922 448.801 106.514 449.398 107.981C450.02 109.424 450.891 110.692 452.01 111.786C453.129 112.881 454.435 113.739 455.927 114.36C457.444 114.957 459.085 115.256 460.851 115.256C462.443 115.256 463.947 115.019 465.365 114.547C466.808 114.05 468.088 113.241 469.208 112.122L469.954 113.055C468.81 114.174 467.442 115.019 465.85 115.591C464.258 116.139 462.58 116.412 460.814 116.412ZM468.76 112.98V103.393H469.954V113.055L468.76 112.98Z" fill="white"/>
<path d="M419.463 116.263V90.1492H420.508L439.683 114.771H439.049V90.1492H440.317V116.263H439.273L420.098 91.6414H420.732V116.263H419.463Z" fill="white"/>
<path d="M408.643 116.263V90.1492H409.912V116.263H408.643Z" fill="white"/>
<path d="M392.912 116.263V91.3057H383.325V90.1492H403.731V91.3057H394.143V116.263H392.912Z" fill="white"/>
<path d="M361.538 116.263V90.1492H370.603C372.767 90.1492 374.62 90.4974 376.162 91.1938C377.729 91.8901 378.922 92.885 379.743 94.1782C380.564 95.4466 380.974 96.9886 380.974 98.8041C380.974 100.62 380.564 102.174 379.743 103.467C378.922 104.761 377.729 105.755 376.162 106.452C374.62 107.148 372.767 107.496 370.603 107.496H362.247L362.806 106.899V116.263H361.538ZM379.892 116.263L373.103 106.787H374.558L381.385 116.263H379.892ZM362.806 106.899L362.247 106.34H370.678C373.613 106.34 375.851 105.681 377.393 104.363C378.96 103.044 379.743 101.192 379.743 98.8041C379.743 96.4165 378.96 94.5761 377.393 93.2829C375.851 91.9648 373.613 91.3057 370.678 91.3057H362.247L362.806 90.7088V106.899Z" fill="white"/>
<path d="M341.135 116.412C339.22 116.412 337.442 116.089 335.801 115.442C334.159 114.771 332.729 113.838 331.51 112.644C330.292 111.451 329.347 110.058 328.675 108.466C328.004 106.85 327.668 105.096 327.668 103.206C327.668 101.316 328.004 99.575 328.675 97.9834C329.347 96.3668 330.292 94.9616 331.51 93.7678C332.729 92.5741 334.159 91.6539 335.801 91.0072C337.442 90.3357 339.22 90 341.135 90C343.075 90 344.866 90.3357 346.507 91.0072C348.149 91.6539 349.566 92.5741 350.76 93.7678C351.979 94.9616 352.924 96.3668 353.595 97.9834C354.292 99.575 354.64 101.316 354.64 103.206C354.64 105.096 354.292 106.85 353.595 108.466C352.924 110.058 351.979 111.451 350.76 112.644C349.566 113.838 348.149 114.771 346.507 115.442C344.866 116.089 343.075 116.412 341.135 116.412ZM341.135 115.256C342.876 115.256 344.493 114.957 345.985 114.36C347.477 113.764 348.77 112.918 349.865 111.824C350.984 110.729 351.842 109.461 352.439 108.018C353.061 106.551 353.371 104.947 353.371 103.206C353.371 101.465 353.061 99.8735 352.439 98.431C351.842 96.9637 350.984 95.6829 349.865 94.5886C348.77 93.4943 347.477 92.6487 345.985 92.0518C344.493 91.4549 342.876 91.1565 341.135 91.1565C339.419 91.1565 337.815 91.4549 336.323 92.0518C334.831 92.6487 333.525 93.4943 332.406 94.5886C331.311 95.6829 330.453 96.9637 329.832 98.431C329.235 99.8735 328.936 101.465 328.936 103.206C328.936 104.947 329.235 106.551 329.832 108.018C330.453 109.461 331.311 110.729 332.406 111.824C333.525 112.918 334.831 113.764 336.323 114.36C337.815 114.957 339.419 115.256 341.135 115.256Z" fill="white"/>
<path d="M303.758 116.263V90.1492H312.824C314.987 90.1492 316.84 90.4974 318.382 91.1938C319.949 91.8901 321.143 92.885 321.963 94.1782C322.784 95.4466 323.195 96.9886 323.195 98.8041C323.195 100.62 322.784 102.174 321.963 103.467C321.143 104.761 319.949 105.755 318.382 106.452C316.84 107.148 314.987 107.496 312.824 107.496H304.467L305.027 106.899V116.263H303.758ZM305.027 106.899L304.467 106.34H312.898C315.833 106.34 318.071 105.681 319.613 104.363C321.18 103.044 321.963 101.192 321.963 98.8041C321.963 96.4165 321.18 94.5761 319.613 93.2829C318.071 91.9648 315.833 91.3057 312.898 91.3057H304.467L305.027 90.7088V106.899Z" fill="white"/>
<path d="M279.884 102.423H294.284V103.579H279.884V102.423ZM280.108 115.107H296.485V116.263H278.84V90.1492H295.963V91.3057H280.108V115.107Z" fill="white"/>
<path d="M252.063 116.263V90.1492H261.128C263.292 90.1492 265.145 90.4974 266.687 91.1938C268.253 91.8901 269.447 92.885 270.268 94.1782C271.089 95.4466 271.499 96.9886 271.499 98.8041C271.499 100.62 271.089 102.174 270.268 103.467C269.447 104.761 268.253 105.755 266.687 106.452C265.145 107.148 263.292 107.496 261.128 107.496H252.772L253.331 106.899V116.263H252.063ZM270.417 116.263L263.627 106.787H265.082L271.909 116.263H270.417ZM253.331 106.899L252.772 106.34H261.203C264.137 106.34 266.376 105.681 267.918 104.363C269.484 103.044 270.268 101.192 270.268 98.8041C270.268 96.4165 269.484 94.5761 267.918 93.2829C266.376 91.9648 264.137 91.3057 261.203 91.3057H252.772L253.331 90.7088V106.899Z" fill="white"/>
<path d="M224.177 116.412C222.585 116.412 221.155 116.139 219.887 115.591C218.643 115.044 217.661 114.298 216.94 113.353C216.243 112.383 215.895 111.252 215.895 109.958C215.895 108.964 216.119 108.018 216.566 107.123C217.039 106.228 217.798 105.333 218.842 104.437C219.912 103.517 221.342 102.535 223.132 101.49C224.774 100.52 226.054 99.687 226.975 98.9906C227.92 98.2942 228.579 97.6227 228.952 96.9761C229.35 96.3295 229.549 95.6082 229.549 94.8124C229.549 93.6932 229.176 92.7855 228.43 92.0891C227.683 91.3927 226.602 91.0446 225.184 91.0446C223.717 91.0446 222.573 91.43 221.752 92.201C220.931 92.9471 220.521 93.9419 220.521 95.1854C220.521 95.7575 220.608 96.3046 220.782 96.8269C220.956 97.3492 221.267 97.9336 221.715 98.5802C222.187 99.2269 222.846 100.01 223.692 100.93L237.569 115.815L236.749 116.636L222.647 101.453C221.777 100.508 221.093 99.6994 220.595 99.0279C220.123 98.3315 219.787 97.6849 219.588 97.088C219.414 96.4663 219.327 95.8321 219.327 95.1854C219.327 94.1409 219.563 93.2331 220.036 92.4622C220.533 91.6912 221.217 91.0943 222.088 90.6715C222.983 90.2238 224.015 90 225.184 90C226.303 90 227.273 90.199 228.094 90.5969C228.915 90.9699 229.549 91.5171 229.996 92.2383C230.444 92.9596 230.668 93.8176 230.668 94.8124C230.668 95.7077 230.457 96.5284 230.034 97.2745C229.611 98.0207 228.902 98.7916 227.907 99.5875C226.912 100.383 225.545 101.291 223.804 102.311C222.088 103.33 220.732 104.251 219.737 105.071C218.767 105.867 218.084 106.651 217.686 107.422C217.313 108.168 217.126 108.988 217.126 109.884C217.126 110.978 217.424 111.948 218.021 112.794C218.618 113.614 219.451 114.248 220.521 114.696C221.59 115.144 222.821 115.368 224.214 115.368C226.054 115.368 227.671 114.995 229.064 114.248C230.481 113.502 231.663 112.383 232.608 110.891C233.578 109.374 234.274 107.471 234.697 105.183L235.741 105.444C235.269 107.931 234.498 109.983 233.428 111.6C232.384 113.216 231.078 114.423 229.511 115.218C227.969 116.014 226.191 116.412 224.177 116.412Z" fill="white"/>
<path d="M193.309 116.412C191.394 116.412 189.578 116.076 187.862 115.405C186.171 114.709 184.878 113.838 183.982 112.794L184.654 111.898C185.499 112.843 186.693 113.652 188.235 114.323C189.802 114.97 191.481 115.293 193.271 115.293C195.087 115.293 196.579 115.044 197.748 114.547C198.917 114.05 199.775 113.39 200.322 112.57C200.894 111.724 201.18 110.792 201.18 109.772C201.18 108.578 200.882 107.621 200.285 106.899C199.688 106.178 198.892 105.606 197.897 105.183C196.927 104.76 195.858 104.412 194.689 104.139C193.545 103.865 192.376 103.579 191.182 103.281C190.013 102.957 188.931 102.559 187.937 102.087C186.967 101.59 186.183 100.918 185.586 100.072C185.014 99.202 184.728 98.0828 184.728 96.715C184.728 95.5461 185.039 94.4518 185.661 93.4321C186.283 92.4124 187.253 91.5917 188.571 90.9699C189.889 90.3233 191.58 90 193.644 90C195.062 90 196.455 90.2238 197.823 90.6715C199.215 91.0943 200.397 91.6663 201.367 92.3875L200.807 93.3948C199.762 92.6238 198.606 92.0518 197.338 91.6787C196.069 91.3057 194.851 91.1192 193.682 91.1192C191.941 91.1192 190.486 91.3803 189.317 91.9026C188.173 92.4 187.327 93.0715 186.78 93.9171C186.233 94.7627 185.959 95.6953 185.959 96.715C185.959 97.9336 186.258 98.9036 186.855 99.6248C187.452 100.346 188.235 100.918 189.205 101.341C190.2 101.764 191.282 102.112 192.451 102.385C193.619 102.659 194.788 102.957 195.957 103.281C197.126 103.579 198.196 103.977 199.166 104.474C200.16 104.972 200.944 105.643 201.516 106.489C202.113 107.31 202.411 108.392 202.411 109.735C202.411 110.903 202.088 111.998 201.441 113.017C200.819 114.037 199.825 114.858 198.457 115.48C197.114 116.101 195.398 116.412 193.309 116.412Z" fill="white"/>
<path d="M171.075 116.412C169.16 116.412 167.382 116.089 165.74 115.442C164.099 114.771 162.669 113.838 161.45 112.644C160.232 111.451 159.287 110.058 158.615 108.466C157.944 106.85 157.608 105.096 157.608 103.206C157.608 101.316 157.944 99.575 158.615 97.9834C159.287 96.3668 160.232 94.9616 161.45 93.7678C162.669 92.5741 164.099 91.6539 165.74 91.0072C167.382 90.3357 169.16 90 171.075 90C172.841 90 174.507 90.286 176.074 90.858C177.641 91.43 178.996 92.3005 180.14 93.4694L179.357 94.2901C178.188 93.171 176.907 92.3751 175.514 91.9026C174.147 91.4052 172.679 91.1565 171.112 91.1565C169.372 91.1565 167.755 91.4673 166.263 92.0891C164.771 92.686 163.465 93.5316 162.346 94.6259C161.251 95.7202 160.393 97.001 159.772 98.4683C159.175 99.9108 158.876 101.49 158.876 103.206C158.876 104.922 159.175 106.514 159.772 107.981C160.393 109.424 161.251 110.692 162.346 111.786C163.465 112.881 164.771 113.739 166.263 114.36C167.755 114.957 169.372 115.256 171.112 115.256C172.679 115.256 174.147 115.019 175.514 114.547C176.907 114.05 178.188 113.229 179.357 112.085L180.14 112.906C178.996 114.074 177.641 114.957 176.074 115.554C174.507 116.126 172.841 116.412 171.075 116.412Z" fill="white"/>
<path d="M149.437 116.263V90.1492H150.705V116.263H149.437Z" fill="white"/>
<path d="M133.705 116.263V91.3057H124.118V90.1492H144.524V91.3057H134.936V116.263H133.705Z" fill="white"/>
<path d="M111.873 116.263V106.974L112.171 107.832L101.316 90.1492H102.696L112.843 106.638H112.209L122.393 90.1492H123.736L112.843 107.832L113.141 106.974V116.263H111.873Z" fill="white"/>
<path d="M86.8845 116.263V90.1492H88.1529V115.107H103.448V116.263H86.8845Z" fill="white"/>
<path d="M56.3953 116.263L68.4822 90.1492H69.7133L81.8002 116.263H80.4199L68.818 91.0073H69.3775L57.7756 116.263H56.3953ZM60.5735 108.615L61.0584 107.534H77.0251L77.5101 108.615H60.5735Z" fill="white"/>
<path d="M30.4893 116.263V90.1492H31.5338L50.7088 114.771H50.0746V90.1492H51.343V116.263H50.2984L31.1234 91.6414H31.7576V116.263H30.4893Z" fill="white"/>
<path d="M0 116.263L12.0869 90.1492H13.318L25.405 116.263H24.0247L12.4227 91.0073H12.9823L1.3803 116.263H0ZM4.1782 108.615L4.66317 107.534H20.6299L21.1148 108.615H4.1782Z" fill="white"/>
</svg>
