<svg width="1369" height="66" viewBox="0 0 1369 66" fill="none" xmlns="http://www.w3.org/2000/svg">
<path d="M1136.35 51.4042L1112.68 22.4555V51.5394H1105.91V16.6387H1116.06L1139.6 45.7227V16.6387H1146.36V51.4042H1136.35Z" fill="white"/>
<path d="M1191.54 51.4042L1187.48 43.9641H1164.08L1160.02 51.4042H1152.72L1171.66 16.6387H1180.04L1198.98 51.4042H1191.54ZM1175.85 22.4555L1167.6 37.8768H1184.24L1175.85 22.4555Z" fill="white"/>
<path d="M1219.95 22.8613V51.5394H1213.18V22.8613H1196.55V16.6387H1236.59V22.8613H1219.95Z" fill="white"/>
<path d="M1244.03 51.4042V16.6387H1250.79V51.4042H1244.03Z" fill="white"/>
<path d="M1294.75 51.4041L1280.96 37.7414L1267.16 51.4041H1258.64L1276.76 33.6832L1259.31 16.5034H1267.83L1281.09 29.6249L1294.35 16.5034H1302.87L1285.42 33.6832L1303.55 51.4041H1294.75Z" fill="white"/>
<path d="M1312.2 51.4042V16.6387H1318.97V51.4042H1312.2Z" fill="white"/>
<path d="M1347.65 21.6439C1339.94 21.6439 1336.01 22.9966 1336.01 25.8373C1336.01 29.625 1342.24 29.0839 1352.25 30.0308C1363.2 31.113 1368.48 33.548 1368.48 40.447C1368.48 47.887 1361.72 52.2158 1349 52.2158C1340.07 52.2158 1333.04 50.1867 1327.49 46.1285L1331.14 41.2586C1335.88 44.5052 1341.83 46.2637 1348.73 46.2637C1356.71 46.2637 1361.04 44.0993 1361.04 40.7175C1361.04 38.9589 1359.69 37.6062 1357.12 36.7946C1353.33 35.7124 1347.92 36.1182 1341.42 35.4418C1332.9 34.6302 1328.84 31.9247 1328.84 26.3784C1328.84 19.75 1335.47 15.5565 1347.51 15.5565C1355.36 15.5565 1361.72 17.3151 1366.59 20.6969L1362.39 25.161C1357.79 22.8613 1353.06 21.6439 1347.65 21.6439Z" fill="white"/>
<path d="M998.639 18.3975C999.045 18.1269 999.316 17.7211 999.992 17.8564C1000.13 17.8564 1000.13 17.7211 1000.26 17.7211C1000.53 17.5858 1000.67 17.0447 1001.21 17.3153H1001.34C1001.48 16.7742 1002.02 16.9095 1002.29 16.5036C1002.43 16.3684 1002.7 16.2331 1002.83 16.3684C1003.1 16.5036 1002.83 16.6389 1002.83 16.9095C1003.1 16.9095 1003.24 16.9095 1003.24 16.5036C1003.1 16.2331 1003.24 16.2331 1003.51 16.0978C1003.78 15.9625 1004.05 15.9625 1004.32 15.8273C1004.46 15.8273 1004.73 15.9625 1004.59 15.5567C1004.59 15.5567 1004.59 15.5567 1004.59 15.4214C1004.73 15.1509 1005 15.692 1005.13 15.2862C1005.27 15.0156 1005.4 15.1509 1005.4 15.2862C1005.4 15.4214 1005.4 15.5567 1005.54 15.4214C1005.67 15.4214 1005.67 15.2862 1005.67 15.1509C1005.67 15.0156 1005.67 14.8804 1005.81 14.8804C1005.94 14.8804 1005.94 15.0156 1005.94 15.1509C1005.94 15.2862 1006.08 15.2862 1006.21 15.2862C1006.35 15.2862 1006.35 15.1509 1006.35 15.0156C1006.35 14.8804 1006.21 14.7451 1006.35 14.4745L1006.21 14.3393C1005.94 14.6098 1005.94 14.4745 1005.81 14.204C1005.81 14.0687 1005.67 14.204 1005.67 14.3393C1005.54 14.7451 1005.4 14.6098 1005.27 14.4745H1005.13C1004.73 14.8804 1003.92 14.6098 1003.92 15.4214H1003.78C1002.83 15.692 1001.89 16.2331 1000.94 16.6389C1000.94 16.6389 1000.67 16.6389 1000.8 16.7742C1000.94 17.0447 1000.8 16.9095 1000.67 16.9095C1000.13 16.9095 999.586 17.4506 999.181 17.5858V17.7211C999.045 17.9917 998.91 18.1269 998.504 18.1269C998.369 18.1269 998.234 17.9917 998.234 18.1269C998.234 18.2622 998.369 18.3975 998.369 18.5328C998.504 18.668 998.504 18.3975 998.639 18.3975Z" fill="white"/>
<path d="M1072.77 26.2432C1072.63 26.2432 1072.23 26.7843 1072.36 26.1079C1072.36 25.9726 1072.36 25.9726 1072.23 25.9726C1072.09 25.9726 1072.09 25.9726 1071.96 26.1079C1071.69 26.3784 1071.82 26.649 1071.96 26.7843C1071.69 27.1901 1071.55 27.7312 1071.15 28.0017C1070.88 28.137 1070.61 28.4076 1070.33 28.6781C1070.2 28.6781 1070.06 28.6781 1069.93 28.5428C1069.93 28.4076 1070.06 28.2723 1069.93 28.2723C1069.79 28.137 1069.79 28.2723 1069.66 28.2723C1069.66 28.9487 1069.12 29.0839 1068.71 29.3545L1068.58 29.4897C1068.44 29.7603 1068.17 29.625 1068.04 29.7603C1067.9 29.8956 1067.9 29.8956 1067.76 30.0308C1067.76 30.1661 1067.63 30.1661 1067.63 30.3014C1067.49 30.7072 1067.63 31.2483 1066.82 30.9778C1066.68 30.9778 1066.55 31.113 1066.55 31.2483C1066.41 31.2483 1066.28 31.3836 1066.14 31.3836C1065.87 31.6541 1066.28 31.9247 1066.14 32.1952C1066.14 32.1952 1066.14 32.3305 1066.01 32.3305C1065.87 32.6011 1065.6 32.7363 1065.46 33.0069C1065.74 33.0069 1065.87 32.7363 1066.01 32.6011C1066.28 32.6011 1066.55 32.3305 1066.68 32.1952C1067.09 31.9247 1067.49 31.6541 1067.9 31.2483C1068.04 31.2483 1068.17 31.113 1068.31 30.9778C1068.44 30.8425 1068.44 30.8425 1068.58 30.7072C1068.85 30.5719 1069.12 30.4367 1069.39 30.1661C1069.52 30.0308 1069.66 29.8956 1069.93 29.7603C1070.33 29.625 1070.61 29.4897 1070.88 29.2192C1071.01 29.2192 1071.01 29.0839 1071.15 29.0839C1071.69 28.8134 1072.23 28.4076 1072.63 28.137C1073.58 27.3254 1074.53 26.5137 1075.75 26.1079C1075.88 25.9726 1075.88 25.7021 1076.02 25.5668C1076.15 25.5668 1076.15 25.5668 1076.15 25.4315C1076.29 25.2963 1076.42 24.8904 1076.69 25.161C1076.96 25.161 1077.23 24.8904 1077.5 24.7552C1077.77 24.6199 1077.77 24.4846 1077.64 24.2141C1077.91 23.9435 1078.59 24.2141 1078.72 23.673C1078.72 23.5377 1078.86 23.8082 1078.99 23.8082C1079.26 23.8082 1079.4 23.673 1079.53 23.5377C1079.8 23.5377 1079.53 23.1319 1079.8 22.9966C1080.35 22.8613 1080.62 22.3202 1081.16 22.5908C1081.16 22.5908 1081.29 22.5908 1081.43 22.4555C1081.56 22.0497 1082.1 22.0497 1082.37 21.9144C1082.64 21.7791 1082.64 21.5086 1082.51 21.238C1082.37 20.9675 1082.24 21.238 1082.1 21.3733C1081.83 21.5086 1081.56 21.7791 1081.43 21.6439C1081.02 21.5086 1080.89 21.6439 1080.89 22.0497C1080.89 22.1849 1080.89 22.1849 1080.75 22.1849C1080.62 22.1849 1080.62 22.0497 1080.62 21.9144C1080.62 21.5086 1080.62 21.238 1080.89 20.9675C1080.89 21.1028 1080.75 21.3733 1081.02 21.3733C1081.16 21.3733 1081.43 21.1028 1081.43 21.1028C1081.43 20.9675 1081.29 20.5617 1081.16 20.5617C1080.89 20.4264 1080.75 20.4264 1081.02 20.1558C1081.02 20.0206 1081.16 20.0206 1081.16 19.8853C1081.29 19.75 1081.29 19.6147 1081.29 19.4795C1081.43 19.3442 1081.56 19.3442 1081.7 19.3442C1081.83 19.4795 1081.56 19.6147 1081.56 19.8853C1081.83 19.8853 1081.97 19.75 1082.1 19.6147C1082.37 19.3442 1082.64 19.0736 1083.05 18.8031C1082.92 18.8031 1082.92 18.8031 1082.78 18.8031C1082.78 18.8031 1082.92 18.8031 1083.05 18.8031C1083.19 18.8031 1083.32 18.8031 1083.32 18.6678L1083.46 18.5325C1083.86 18.262 1084.27 17.9915 1084.54 17.7209C1084.67 17.5856 1084.94 17.3151 1085.21 17.3151H1085.35C1085.08 17.1798 1085.08 17.0445 1084.94 16.9093C1084.94 16.9093 1084.94 16.9093 1084.81 16.9093C1084.81 16.9093 1084.81 16.9093 1084.94 16.9093C1084.94 16.774 1085.08 16.774 1085.08 16.6387C1085.21 16.5034 1085.35 16.3682 1085.49 16.5034C1085.76 16.6387 1085.62 16.774 1085.49 16.9093C1085.35 17.0445 1085.35 17.1798 1085.49 17.3151C1085.49 17.4504 1085.35 17.4504 1085.35 17.5856C1085.21 17.7209 1085.08 17.7209 1084.94 17.8562C1084.81 17.9915 1084.67 17.9915 1084.67 18.1267C1084.81 18.3973 1084.94 18.1267 1085.08 18.1267C1085.21 18.1267 1085.35 17.9915 1085.49 17.8562C1085.62 17.7209 1085.89 17.7209 1086.03 17.5856C1086.16 17.4504 1086.57 17.3151 1086.57 16.9093C1086.57 16.774 1086.57 16.774 1086.57 16.6387V16.5034C1086.7 16.3682 1086.84 16.2329 1086.97 16.2329C1087.51 16.0976 1087.92 15.8271 1088.33 15.5565C1088.6 15.5565 1088.73 15.5565 1088.73 15.286C1089.27 15.286 1089.81 15.0154 1090.08 14.7449C1090.36 14.4743 1090.36 14.2038 1090.76 14.4743C1090.76 14.4743 1090.9 14.4743 1090.9 14.3391L1091.03 14.2038C1091.17 13.9332 1091.57 14.3391 1091.57 13.9332C1091.57 13.798 1091.71 13.6627 1091.84 13.6627C1092.25 13.798 1092.38 13.5274 1092.52 13.2569H1092.65C1092.93 13.2569 1093.6 12.851 1093.74 12.5805C1093.87 12.5805 1093.87 12.851 1094.14 12.7158C1094.14 12.5805 1093.87 12.3099 1094.14 12.1747C1094.28 12.1747 1094.41 12.1747 1094.41 12.0394C1095.63 11.9041 1095.9 11.9041 1096.17 11.7688C1096.31 11.7688 1096.31 11.6336 1096.31 11.4983C1096.31 11.363 1096.17 11.4983 1096.04 11.4983C1095.77 11.6336 1095.63 11.7688 1095.36 11.9041C1095.23 11.9041 1095.23 11.9041 1095.09 11.9041C1094.95 12.0394 1094.82 12.0394 1094.68 12.1747C1094.41 12.4452 1094.28 12.3099 1094.14 12.0394C1094.28 11.9041 1094.41 11.9041 1094.41 11.7688C1095.09 11.6336 1095.5 11.0925 1096.17 10.9572C1096.58 10.8219 1096.85 10.5514 1097.12 10.4161C1097.39 10.2808 1097.8 10.2808 1097.8 9.87501C1097.8 9.73973 1097.93 9.73973 1098.07 9.73973C1098.07 9.87501 1098.2 9.87501 1098.34 9.73973C1098.74 9.33391 1099.15 9.19864 1099.42 8.92809C1099.55 8.92809 1099.69 8.79281 1099.69 8.79281C1100.23 8.65754 1100.5 8.52227 1100.5 7.8459C1100.1 7.98117 1099.82 8.11645 1099.42 8.25172C1099.28 8.25172 1099.28 8.25172 1099.15 8.11644H1099.28C1099.42 8.11644 1099.69 8.11644 1099.69 7.8459C1099.69 7.71062 1099.69 7.57535 1099.55 7.57535C1099.28 7.44007 1099.28 7.71062 1099.28 7.8459C1099.01 8.25172 1099.15 7.57535 1099.01 7.71062C1098.88 7.71062 1098.74 7.8459 1098.74 7.71062C1098.88 7.57535 1099.15 7.57535 1099.15 7.3048C1099.42 7.3048 1099.69 7.03425 1099.82 6.89898C1099.96 6.89898 1100.23 6.89898 1100.37 6.7637C1100.5 6.62843 1100.64 6.49316 1100.91 6.49316C1102.12 5.95206 1103.34 5.81679 1104.42 4.86987C1103.48 5.27569 1102.39 5.41096 1101.45 5.95206L1101.31 5.81679L1101.18 5.68151C1100.91 5.27569 1100.5 5.41096 1100.23 5.54624C1099.96 5.81679 1099.55 5.54624 1099.28 5.68151C1099.15 5.68151 1099.01 5.81679 1098.88 5.68151C1098.74 5.54624 1099.01 5.54624 1099.01 5.41096C1099.42 4.86987 1100.1 4.73459 1100.77 4.46404C1100.23 4.32877 1099.69 4.46404 1099.28 4.59932C1099.15 4.59932 1099.01 4.59932 1099.01 4.46404C1099.01 4.05822 1098.88 4.1935 1098.74 4.32877C1098.47 4.46404 1098.34 4.59932 1098.2 4.73459C1097.8 4.73459 1097.52 5.14041 1097.12 4.86987C1096.85 5.00514 1096.71 5.27569 1096.44 5.27569C1096.17 5.14041 1095.9 5.41096 1095.63 5.54624C1095.77 5.41096 1095.63 5.14041 1095.9 5.00514C1096.58 4.59932 1097.39 4.32877 1098.07 4.1935C1098.61 4.05822 1099.15 3.78767 1099.69 3.51713C1100.1 3.38185 1100.5 3.38185 1100.91 3.1113C1100.64 2.84076 1100.5 2.84076 1100.23 2.97603C1098.74 3.51713 1097.25 3.92295 1095.77 4.05822C1095.5 4.05822 1095.36 4.1935 1095.63 4.46404C1095.77 4.59932 1095.77 4.59932 1095.63 4.73459C1094.95 4.46404 1094.82 4.59932 1094.95 5.27569C1094.68 5.41096 1094.41 5.41096 1094.14 5.54624C1094.14 5.41096 1094.28 5.27569 1094.28 5.27569C1094.82 5.14041 1094.55 4.86987 1094.55 4.46404C1094.28 4.46404 1094.28 4.73459 1094.14 4.86987C1094.01 5.00514 1093.87 5.27569 1093.6 5.27569C1093.6 4.73459 1093.87 4.46404 1094.28 4.1935C1094.68 4.05822 1094.68 3.78767 1094.41 3.51713C1094.14 3.38185 1093.87 3.24658 1093.6 3.1113C1093.2 2.84076 1092.93 2.84076 1092.65 3.38185C1092.52 3.6524 1092.25 3.6524 1092.11 3.6524C1091.84 3.6524 1091.84 3.78767 1091.71 3.92295C1091.57 4.1935 1091.84 4.32877 1091.98 4.46404C1091.71 5.00514 1091.17 5.14041 1090.63 5.27569C1090.22 5.27569 1090.63 4.73459 1090.22 4.73459C1090.22 4.59932 1090.22 4.46404 1090.49 4.32877C1090.76 4.1935 1090.9 4.05822 1090.76 3.92295C1090.63 3.78767 1090.49 3.92295 1090.36 3.92295H1090.22H1090.08C1089.95 3.78767 1090.08 3.78767 1090.22 3.78767C1090.49 3.6524 1090.76 3.38185 1091.03 3.24658C1091.17 3.24658 1091.17 3.1113 1091.3 3.1113C1091.57 3.1113 1091.71 2.84076 1091.84 2.57021C1091.98 2.57021 1092.11 2.43493 1092.25 2.29966C1092.38 2.16439 1092.65 2.02911 1092.79 1.89384C1093.2 1.75856 1093.74 1.62329 1093.87 1.21747C1094.14 1.08219 1094.41 0.811644 1094.82 1.08219C1094.95 1.21747 1095.09 1.08219 1095.23 1.08219C1095.77 0.946919 1095.23 0.541096 1095.36 0.405822C1095.5 0.270548 1095.63 0.270548 1095.63 0C1094.95 0.135274 1094.41 0.405822 1093.74 0.541096C1093.6 0.541096 1093.47 0.541096 1093.33 0.67637C1093.2 0.67637 1093.2 0.811644 1093.06 0.946919C1092.93 0.946919 1092.93 1.08219 1092.79 1.08219C1092.52 0.946919 1092.25 1.08219 1091.98 1.21747C1091.71 1.08219 1091.44 1.08219 1091.44 1.35274C1091.17 1.48801 1091.03 1.62329 1090.76 1.75856C1090.63 1.89384 1090.63 2.02911 1090.49 1.89384C1090.36 1.89384 1090.22 1.89384 1090.08 2.02911C1089.81 1.75856 1089.68 2.02911 1089.54 2.16439C1089.27 2.16439 1089 2.43493 1088.6 2.43493C1088.19 2.57021 1087.92 2.84076 1087.65 3.24658C1087.38 3.24658 1087.51 2.84076 1087.24 2.84076C1087.11 3.1113 1086.97 3.24658 1086.84 3.51713C1086.7 3.51713 1086.57 3.6524 1086.57 3.38185C1086.57 2.97603 1086.3 3.24658 1086.3 3.24658C1086.16 3.24658 1086.03 3.38185 1086.03 3.51713C1086.03 3.6524 1085.89 3.92295 1085.76 3.92295C1085.76 3.38185 1085.76 3.38185 1085.49 3.51713C1085.49 3.78767 1085.35 3.6524 1085.21 3.78767C1085.21 3.6524 1085.08 3.6524 1084.94 3.78767C1084.81 3.92295 1084.54 4.05822 1084.4 3.92295C1084.27 3.78767 1084.13 3.92295 1084.13 4.05822C1084.13 4.1935 1084.13 4.32877 1084.13 4.32877C1083.73 4.32877 1083.86 3.92295 1083.73 3.78767C1083.73 3.6524 1084 3.38185 1083.73 3.38185C1083.46 3.24658 1083.59 3.6524 1083.46 3.78767C1083.46 3.78767 1083.32 3.92295 1083.46 3.92295C1083.73 4.46404 1083.32 4.1935 1083.05 4.1935C1082.92 4.05822 1083.05 3.92295 1082.78 3.92295C1082.64 3.92295 1082.64 4.1935 1082.78 4.1935C1082.92 4.59932 1082.64 4.32877 1082.51 4.32877C1082.51 4.32877 1082.37 4.32877 1082.37 4.46404C1082.37 4.86987 1082.1 4.73459 1081.97 4.73459C1081.83 4.59932 1081.83 4.59932 1081.7 4.59932C1081.56 4.59932 1081.43 4.73459 1081.43 4.86987C1081.29 5.14041 1081.29 4.86987 1081.16 4.86987C1081.02 4.73459 1081.02 4.73459 1081.16 4.59932C1081.29 4.59932 1081.43 4.46404 1081.56 4.46404C1081.7 4.46404 1081.7 4.32877 1081.7 4.32877C1081.7 4.1935 1081.7 4.1935 1081.56 4.05822C1081.43 3.92295 1081.43 4.05822 1081.29 4.1935C1081.16 4.32877 1081.16 4.32877 1081.02 4.46404C1080.89 4.46404 1080.62 4.46404 1080.62 4.73459C1080.35 5.00514 1080.75 5.27569 1080.48 5.54624C1080.35 5.68151 1080.21 5.68151 1080.07 5.54624C1080.07 5.27569 1080.35 5.00514 1080.21 5.00514C1079.94 4.86987 1079.8 5.14041 1079.67 5.27569C1079.8 5.54624 1080.07 5.14041 1080.07 5.41096C1080.07 5.54624 1080.07 5.81679 1079.8 5.81679C1079.8 5.81679 1079.8 5.81679 1079.8 5.95206C1079.67 5.95206 1079.53 5.95206 1079.4 5.95206C1079.26 5.95206 1079.26 5.95206 1079.26 5.81679C1079.4 5.68151 1079.53 5.68151 1079.67 5.54624C1079.67 5.41096 1079.53 5.41096 1079.53 5.41096C1079.26 5.27569 1079.26 5.54624 1079.13 5.68151C1078.99 5.81679 1078.99 5.95206 1078.86 5.95206C1078.72 5.95206 1078.59 6.08733 1078.59 6.22261C1078.72 6.35788 1078.99 6.08733 1078.99 6.35788C1078.99 6.49316 1078.86 6.49316 1078.86 6.62843C1078.72 6.89898 1078.72 7.03425 1078.99 6.89898C1079.13 6.89898 1079.26 6.7637 1079.4 6.62843V6.49316C1079.53 6.49316 1079.53 6.49316 1079.67 6.49316H1079.8C1080.07 6.49316 1080.21 6.49316 1080.48 6.35788L1080.62 6.49316C1079.94 6.62843 1079.26 6.89898 1078.72 7.03425C1078.18 7.03425 1078.32 7.16953 1078.32 7.44007C1078.18 7.44007 1078.18 7.44007 1078.05 7.44007C1078.05 7.44007 1078.05 7.44007 1078.18 7.3048C1078.18 7.16953 1078.32 6.89898 1078.05 6.7637C1078.05 6.62843 1077.91 6.62843 1077.91 6.49316C1077.77 6.49316 1077.77 6.49316 1077.64 6.49316L1077.5 6.35788C1077.5 6.22261 1077.37 6.22261 1077.37 6.22261C1077.1 6.22261 1076.83 6.08733 1076.56 5.95206C1076.69 5.68151 1076.56 5.68151 1076.42 5.68151V5.81679C1076.56 5.95206 1076.69 6.22261 1076.56 6.49316C1076.42 6.62843 1076.56 6.89898 1076.83 6.7637C1077.23 6.49316 1077.23 6.7637 1077.23 7.03425C1076.83 7.44007 1076.42 7.16953 1076.15 6.7637C1076.02 6.89898 1076.15 7.03425 1076.15 7.16953C1076.15 7.3048 1076.15 7.44007 1076.02 7.44007C1076.02 7.44007 1076.02 7.44007 1075.88 7.44007C1076.02 7.16953 1075.75 7.16953 1075.61 7.03425C1075.61 6.89898 1075.61 6.89898 1075.48 6.7637C1075.48 6.62843 1075.61 6.62843 1075.61 6.35788C1075.48 6.35788 1075.34 6.35788 1075.2 6.49316C1074.66 6.62843 1074.53 7.16953 1074.39 7.57535C1074.39 7.71062 1074.26 7.98117 1074.26 8.11644H1074.12C1073.99 8.11644 1073.99 8.11644 1073.85 7.98117C1073.58 7.71062 1073.45 7.8459 1073.31 8.11644C1073.31 8.11644 1073.31 8.25172 1073.18 8.25172C1072.9 8.38699 1073.18 8.38699 1073.18 8.52227C1072.9 8.65754 1072.63 8.79282 1072.36 8.92809C1072.5 8.65754 1072.09 8.79282 1072.09 8.65754C1072.09 8.52227 1072.23 8.38699 1071.96 8.25172C1071.69 8.25172 1071.55 8.25172 1071.42 8.52227C1071.01 8.65754 1070.61 8.65754 1070.47 9.06336C1070.33 9.06336 1070.2 8.92809 1070.06 9.19864C1070.06 9.33391 1070.06 9.33391 1070.06 9.46919C1069.93 9.60446 1069.79 9.60446 1069.66 9.73973C1069.66 9.87501 1069.66 9.87501 1069.66 10.0103C1069.52 10.0103 1069.39 10.0103 1069.25 10.0103C1069.39 10.0103 1069.39 9.87501 1069.52 9.73973C1069.52 9.60446 1069.52 9.60446 1069.39 9.60446C1069.12 9.60446 1068.31 10.1456 1068.17 10.4161C1067.9 10.4161 1067.76 10.4161 1067.49 10.4161C1067.36 10.4161 1067.22 10.4161 1067.09 10.5514C1067.09 11.0925 1066.82 10.9572 1066.41 10.8219C1066.01 10.8219 1065.87 11.0925 1065.6 11.363L1065.46 11.4983C1065.33 11.4983 1065.06 11.4983 1064.92 11.6336C1064.25 12.0394 1063.57 12.4452 1062.89 12.9863C1062.89 12.9863 1062.89 12.9863 1062.76 12.9863C1062.08 13.3921 1061.27 13.798 1060.59 14.2038C1060.46 14.2038 1060.46 14.2038 1060.46 14.3391C1060.32 14.4743 1060.19 14.6096 1059.92 14.7449C1059.78 14.7449 1059.65 14.8801 1059.51 15.0154C1059.24 15.1507 1059.11 15.1507 1058.84 15.286C1058.7 15.286 1058.7 15.4212 1058.7 15.4212C1058.7 15.5565 1058.7 15.5565 1058.57 15.5565C1058.57 15.4212 1058.57 15.4212 1058.7 15.4212C1058.3 15.6918 1057.89 15.9623 1057.48 16.2329C1056.94 16.5034 1056.4 16.9093 1055.86 17.3151C1055.45 17.5856 1055.05 18.1267 1054.37 17.8562C1054.24 17.8562 1054.37 17.9915 1054.37 18.1267C1054.37 18.1267 1054.37 18.1267 1054.24 18.262C1053.97 18.3973 1053.7 18.6678 1053.56 18.8031C1053.43 18.9384 1053.15 18.8031 1053.15 19.0736C1052.88 19.0736 1052.75 19.2089 1052.61 19.3442C1052.48 19.3442 1052.48 19.0736 1052.34 19.0736C1052.21 19.0736 1052.34 19.2089 1052.34 19.3442V19.4795C1051.94 19.4795 1051.94 20.0206 1051.67 20.1558C1051.53 20.1558 1051.4 20.1558 1051.4 20.2911C1051.4 20.2911 1051.4 20.2911 1051.4 20.4264C1051.4 20.4264 1051.4 20.4264 1051.4 20.2911C1050.99 20.1558 1050.72 20.2911 1050.58 20.6969C1050.45 20.8322 1050.45 20.9675 1050.18 20.9675C1050.04 20.9675 1050.18 21.1028 1050.18 21.1028C1049.91 21.1028 1049.91 21.3733 1049.64 21.5086C1049.23 21.5086 1049.23 21.9144 1048.96 22.0497C1048.83 22.0497 1048.69 22.0497 1048.69 22.1849C1048.56 22.3202 1048.29 22.0497 1048.29 22.3202C1048.01 22.4555 1047.88 22.9966 1047.34 22.9966C1047.2 23.5377 1046.8 23.5377 1046.39 23.673L1046.26 23.8082V23.9435C1046.26 23.9435 1046.26 23.9435 1046.26 23.8082C1046.12 23.9435 1045.71 24.0788 1045.85 24.3493C1045.58 24.4846 1045.44 24.6199 1045.31 25.0257L1045.17 25.161C1044.63 24.8904 1044.63 25.2963 1044.36 25.5668C1044.36 25.5668 1044.36 25.7021 1044.23 25.7021C1044.23 25.8373 1043.82 25.8373 1043.96 25.9726C1043.82 26.1079 1043.55 26.1079 1043.69 26.3784C1043.55 26.3784 1043.42 26.1079 1043.42 26.3784C1043.01 26.5137 1042.74 26.7843 1042.47 27.0548C1042.33 27.1901 1042.2 27.1901 1042.06 27.3254C1041.66 27.3254 1041.39 27.5959 1041.52 28.137L1041.39 28.2723C1041.25 28.2723 1041.25 28.2723 1041.12 28.2723C1040.84 28.2723 1040.98 28.6781 1040.71 28.6781C1040.57 28.6781 1040.57 28.4076 1040.44 28.4076C1040.3 28.4076 1040.3 28.5428 1040.44 28.6781C1040.03 28.9487 1039.76 29.3545 1039.49 29.7603C1039.36 29.8956 1039.09 29.8956 1039.09 30.1661C1038.95 30.1661 1038.68 30.1661 1038.55 30.3014C1038.41 30.4367 1038.27 30.5719 1038.14 30.5719C1037.87 30.7072 1037.87 30.8425 1038 31.113C1038 31.113 1038 31.113 1037.87 31.2483C1037.73 31.2483 1037.6 31.3836 1037.46 31.3836C1037.06 31.6541 1037.06 32.06 1037.19 32.4658C1037.06 32.6011 1037.06 32.6011 1036.92 32.6011C1036.65 32.1952 1036.92 31.6541 1036.65 31.2483C1036.65 31.113 1036.65 31.113 1036.65 30.9778C1036.52 30.8425 1036.52 30.5719 1036.38 30.4367C1036.38 30.1661 1036.38 29.7603 1036.11 29.4897C1035.98 28.9487 1035.43 28.5428 1035.43 27.8665C1035.43 27.7312 1035.43 27.5959 1035.57 27.4606C1035.57 27.0548 1035.3 26.7843 1035.03 26.7843C1035.03 26.7843 1035.03 26.7843 1034.89 26.649C1034.89 26.649 1034.89 26.649 1034.89 26.5137C1035.16 26.3784 1035.3 25.9726 1035.03 25.8373C1034.76 25.4315 1034.62 25.2963 1034.89 25.0257C1034.89 24.8904 1035.03 24.7552 1034.89 24.7552C1034.76 24.6199 1034.89 24.3493 1034.89 24.2141C1034.89 23.8082 1034.76 23.4024 1034.76 23.1319C1034.76 22.8613 1034.62 22.8613 1034.49 22.8613L1034.35 22.726C1034.35 22.5908 1034.62 22.4555 1034.35 22.1849C1034.22 21.9144 1034.22 21.5086 1033.81 21.3733C1034.08 20.9675 1033.68 20.6969 1033.4 20.4264C1033.4 20.2911 1033.27 20.1558 1033.27 20.0206C1033.27 19.75 1033.27 19.3442 1032.86 19.3442C1032.86 19.0736 1032.59 18.9384 1032.86 18.6678C1033 18.5325 1032.73 18.5325 1032.59 18.5325C1032.46 18.8031 1032.32 19.0736 1032.59 19.3442C1032.32 19.75 1032.59 20.0206 1032.59 20.4264C1032.73 20.5617 1032.59 20.8322 1032.73 20.9675C1032.73 20.9675 1032.73 20.9675 1032.86 20.9675C1032.86 20.9675 1032.86 20.9675 1032.73 20.9675C1032.73 21.1028 1032.73 21.238 1032.46 21.238C1032.46 20.9675 1032.32 20.6969 1032.05 20.5617C1031.92 20.4264 1031.78 20.2911 1031.51 20.2911C1031.51 20.2911 1031.38 20.2911 1031.38 20.1558C1031.38 20.0206 1031.38 20.0206 1031.51 20.0206C1031.65 20.0206 1031.78 20.0206 1031.65 19.8853C1031.51 19.75 1031.51 19.4795 1031.24 19.3442C1031.11 19.3442 1030.83 19.2089 1030.97 19.0736C1030.97 18.8031 1030.83 18.6678 1030.7 18.5325C1030.56 18.262 1030.29 18.262 1030.29 18.6678L1030.16 18.8031V18.6678C1030.02 18.3973 1029.89 17.9915 1029.62 17.8562C1028.81 17.0445 1028.4 15.9623 1027.32 15.4212C1027.32 15.286 1027.18 15.0154 1026.91 15.0154C1026.91 15.0154 1026.91 15.0154 1026.78 15.0154C1026.37 14.6096 1025.96 14.2038 1025.29 14.0685C1024.88 13.9332 1024.61 13.798 1024.34 13.5274C1023.8 13.3921 1023.26 13.1216 1022.72 13.1216C1022.31 12.9863 1022.31 12.5805 1021.91 12.4452C1021.77 12.3099 1021.64 12.1747 1020.96 12.1747C1020.82 12.1747 1020.82 12.1747 1020.69 12.1747C1021.37 11.9041 1020.96 11.9041 1020.55 11.9041C1020.42 11.9041 1020.42 11.9041 1020.28 11.9041C1019.88 11.9041 1019.61 11.9041 1019.2 11.9041H1019.07C1018.93 11.7688 1018.93 11.6336 1018.8 11.7688C1018.39 11.7688 1017.98 11.6336 1017.58 11.7688C1017.44 11.7688 1017.31 11.7688 1017.17 11.7688C1016.77 11.6336 1016.5 12.0394 1016.23 11.9041C1015.95 11.9041 1015.68 11.9041 1015.41 11.9041C1015.28 11.9041 1015.14 11.9041 1015.14 11.9041C1015.01 11.9041 1014.87 11.9041 1014.74 12.0394C1014.47 12.1747 1014.47 12.3099 1014.74 12.3099C1015.01 12.3099 1015.28 12.3099 1015.55 12.1747C1015.68 12.1747 1015.82 12.3099 1015.95 12.3099C1016.63 12.1747 1017.31 12.1747 1017.98 12.0394C1018.12 12.0394 1018.12 11.9041 1018.25 12.0394C1018.66 12.3099 1019.2 12.3099 1019.61 12.3099C1019.74 12.3099 1019.74 12.3099 1019.88 12.4452C1019.74 12.5805 1019.61 12.4452 1019.47 12.5805C1017.98 12.5805 1016.63 12.7158 1015.28 12.9863C1013.79 13.2569 1012.3 13.3921 1010.95 14.2038C1010.81 14.0685 1010.95 13.9332 1010.68 13.9332C1010.54 13.9332 1010.41 13.9332 1010.54 14.2038C1010.54 14.3391 1010.41 14.4743 1010.27 14.3391C1010.14 14.2038 1009.87 14.0685 1010.27 13.798C1010.41 13.6627 1010.41 13.5274 1010.41 13.3921L1010.27 13.2569C1010 13.1216 1009.73 13.1216 1009.6 13.5274C1009.33 13.6627 1008.92 13.6627 1008.65 13.5274C1008.65 13.798 1008.38 14.0685 1008.79 14.2038C1008.92 14.3391 1008.92 14.7449 1009.33 14.4743C1009.6 14.2038 1009.87 14.2038 1010.14 14.4743C1009.6 14.7449 1009.06 15.0154 1008.51 15.1507C1008.11 15.286 1007.7 15.4212 1007.43 15.8271C1007.03 16.0976 1006.62 16.3682 1006.35 16.6387C1005.94 16.774 1005.54 16.6387 1005.27 16.9093C1005 16.9093 1005 17.0445 1004.86 17.1798C1004.32 17.1798 1004.05 17.5856 1003.64 17.7209C1003.51 17.8562 1003.1 17.8562 1003.1 18.1267C1002.83 18.262 1002.56 18.3973 1002.43 18.5325C1001.89 18.9384 1001.07 19.3442 1000.53 19.75C999.857 20.4264 999.045 20.8322 998.234 21.5086C997.287 22.3202 996.205 22.726 995.393 23.5377C994.987 23.8082 994.581 24.0788 994.311 24.4846C994.04 24.8904 993.634 24.7552 993.364 25.161C993.229 25.2963 993.093 25.4315 992.958 25.7021C992.282 25.7021 992.146 26.2432 991.876 26.649C991.74 26.7843 991.74 26.7843 991.605 26.9195L991.47 27.0548C991.199 27.0548 991.064 27.3254 990.794 27.1901C990.523 27.1901 990.252 27.3254 989.982 27.5959C989.441 27.7312 989.306 28.2723 989.306 28.6781C989.17 29.0839 989.035 29.3545 988.764 29.625C988.494 29.4897 988.223 29.625 987.818 29.8956C987.818 30.3014 987.682 30.5719 987.547 30.8425C987.141 31.113 987.006 31.6541 986.735 32.06C986.6 32.3305 986.465 32.7363 986.194 32.8716C986.059 33.0069 985.924 33.1421 985.924 33.4127C985.924 33.548 985.924 33.6832 985.924 33.8185C985.788 33.9538 985.653 33.9538 985.518 34.0891C985.518 34.0891 985.518 34.0891 985.383 34.0891C984.977 33.9538 985.112 34.3596 985.112 34.4949C984.842 34.7654 985.112 34.9007 985.383 34.9007C985.518 34.9007 985.653 34.7654 985.788 34.9007C985.518 35.036 985.653 35.3065 985.518 35.4418C985.518 35.4418 985.383 35.5771 985.518 35.7124C985.653 35.7124 985.653 35.7124 985.788 35.5771C985.924 35.3065 986.059 35.4418 986.194 35.5771C986.33 35.7124 986.465 35.7124 986.6 35.8476C987.006 35.8476 987.006 36.3887 987.547 36.3887C987.818 36.3887 987.818 36.3887 987.682 36.6593C987.682 36.7945 987.818 36.7945 987.818 36.7945C988.359 36.3887 988.494 36.7945 988.629 37.2004C988.629 37.2004 988.764 37.3356 988.9 37.3356C989.17 37.4709 989.306 37.7415 989.576 37.7415C989.847 37.7415 990.252 37.7415 990.523 37.7415C991.605 38.2826 992.687 38.2826 993.905 38.4178C994.04 38.4178 994.311 38.4178 994.311 38.1473C994.581 38.1473 994.852 37.8767 995.122 38.012C995.258 38.012 995.528 38.012 995.528 37.8767C995.663 37.6062 995.799 37.6062 995.934 37.6062C996.746 37.6062 997.557 37.3356 998.369 36.9298C998.775 36.9298 999.045 36.7945 999.451 36.524C999.586 36.524 999.586 36.524 999.722 36.3887C999.857 36.3887 999.992 36.2535 1000.13 36.2535C1000.8 35.9829 1001.48 35.8476 1002.16 35.3065C1002.7 34.9007 1003.37 34.6302 1003.92 34.3596C1004.46 34.2243 1004.86 33.8185 1005.27 33.548C1005.81 33.1421 1006.21 32.6011 1007.03 32.6011C1007.3 32.6011 1007.57 32.4658 1007.7 32.3305C1008.38 31.7894 1009.06 31.6541 1009.73 31.2483C1010.27 30.9778 1010.95 30.8425 1011.36 30.3014C1011.76 29.8956 1012.17 29.625 1012.71 29.625C1013.25 29.625 1013.65 29.3545 1013.93 29.0839C1014.33 29.0839 1014.6 28.9487 1015.01 28.9487C1015.14 28.6781 1015.41 28.8134 1015.68 28.6781C1015.95 28.6781 1016.23 28.6781 1016.36 28.5428C1017.04 28.4076 1017.71 28.137 1018.52 28.0017H1018.66C1019.34 28.0017 1019.88 28.0017 1020.55 27.7312C1020.96 27.5959 1021.37 27.8665 1021.37 28.2723C1021.37 28.6781 1021.09 29.0839 1021.09 29.4897C1020.96 29.4897 1020.96 29.625 1020.96 29.625C1020.96 29.7603 1020.82 29.8956 1020.69 30.0308C1020.69 30.0308 1020.69 30.0308 1020.82 30.1661C1020.82 30.1661 1020.82 30.0308 1020.69 30.0308C1020.55 30.4367 1020.42 30.9778 1020.15 31.3836C1020.01 31.6541 1019.74 31.9247 1019.88 32.1952C1019.47 32.4658 1019.61 33.0069 1019.34 33.4127C1019.34 33.8185 1018.93 34.0891 1019.2 34.4949C1019.2 34.6302 1019.07 34.6302 1019.07 34.7654C1018.8 34.9007 1018.8 35.1713 1018.66 35.4418C1018.39 35.8476 1018.25 36.2535 1018.12 36.6593C1017.98 37.2004 1017.71 37.8767 1017.44 38.2826C1017.17 38.8237 1017.04 39.3648 1017.04 39.9059C1016.9 39.9059 1016.77 39.9059 1016.77 40.0411C1016.09 41.6644 1015.28 43.2877 1014.6 44.911C1014.47 45.3168 1014.33 45.7226 1014.33 46.1285C1014.33 46.2637 1014.33 46.2637 1014.2 46.399C1014.06 46.6696 1013.93 46.9401 1013.79 47.2106C1013.79 47.3459 1013.65 47.4812 1013.93 47.4812C1014.06 47.6165 1013.93 47.7517 1014.06 47.887C1014.2 48.2928 1013.65 48.0223 1013.79 48.2928C1013.65 48.4281 1013.65 48.5634 1013.65 48.6987C1013.52 49.1045 1013.38 49.5103 1013.38 49.9161C1013.38 50.0514 1013.38 50.1867 1013.25 50.322C1013.38 50.8631 1013.65 50.9983 1014.06 50.5925C1014.06 50.7278 1014.06 50.8631 1014.06 50.9983C1014.06 51.2689 1014.06 51.5394 1013.65 51.2689H1013.52C1013.52 51.2689 1013.38 51.2689 1013.38 51.1336C1013.38 51.1336 1013.38 50.9983 1013.25 50.9983C1012.98 51.1336 1012.57 51.1336 1012.57 51.5394C1012.57 51.81 1012.84 51.9452 1012.84 52.0805V52.2158C1012.17 53.0274 1012.17 53.0274 1012.17 53.7038C1012.03 53.9744 1012.03 54.1096 1012.17 54.3802C1012.17 54.5155 1012.03 54.6507 1012.17 54.9213C1012.17 55.1918 1012.17 55.3271 1011.9 55.4624C1011.9 55.3271 1011.76 55.1918 1011.63 55.3271C1011.49 55.4624 1011.63 55.4624 1011.63 55.5976C1011.63 55.7329 1011.63 55.8682 1011.63 56.1387C1011.22 56.5446 1011.08 56.9504 1011.08 57.4915C1010.95 57.762 1010.95 57.8973 1011.08 58.1679C1011.08 58.3031 1010.95 58.5737 1010.95 58.7089C1010.95 58.8442 1010.95 58.9795 1010.95 59.1148C1010.41 59.3853 1011.08 59.5206 1011.08 59.7911C1010.95 59.9264 1010.81 60.197 1011.08 60.3322C1011.22 60.4675 1011.36 60.7381 1011.36 61.0086C1011.36 61.4144 1011.36 61.685 1011.63 62.0908C1011.9 62.4966 1011.9 62.9024 1012.44 63.0377C1012.71 63.3083 1012.03 63.5788 1012.44 63.8494C1012.44 63.7141 1012.57 63.5788 1012.57 63.4435C1012.57 63.5788 1012.84 63.7141 1012.71 63.8494C1012.44 64.2552 1012.84 64.2552 1012.98 64.3905C1012.98 64.3905 1012.98 64.3905 1013.11 64.3905C1013.38 64.5257 1013.65 64.9316 1014.06 64.661C1014.06 64.661 1014.2 64.661 1014.2 64.7963C1014.6 64.9316 1014.87 65.0668 1015.28 65.0668C1015.41 65.0668 1015.55 65.2021 1015.55 64.9316C1015.55 64.3905 1015.82 64.661 1016.09 64.7963C1016.36 64.7963 1016.36 65.3374 1016.63 65.0668L1016.77 64.9316C1016.77 64.9316 1016.9 64.9316 1016.9 64.7963C1017.17 64.9316 1017.31 65.0668 1017.58 65.2021C1017.85 65.2021 1018.12 65.0668 1018.39 65.2021C1018.52 65.3374 1018.66 65.3374 1018.66 65.4726C1018.66 65.6079 1018.12 65.3374 1018.39 65.7432C1018.52 65.8785 1018.8 65.7432 1018.93 65.7432C1018.93 65.7432 1018.93 65.7432 1019.07 65.6079C1019.2 65.4727 1019.34 65.4727 1019.47 65.6079C1019.61 65.2021 1019.2 65.3374 1019.07 65.3374C1019.07 65.2021 1018.93 65.0668 1018.8 65.0668V64.9316C1019.07 64.9316 1019.47 64.7963 1019.74 64.7963C1020.42 64.7963 1020.96 64.9316 1021.5 64.7963C1021.37 64.9316 1021.09 64.9316 1021.23 65.0668C1020.82 65.2021 1020.42 64.9316 1020.01 65.0668C1019.88 65.3374 1019.61 65.4727 1019.88 65.7432C1020.28 66.0137 1020.55 65.4726 1020.82 65.4726C1020.96 65.4726 1021.09 65.6079 1021.23 65.3374C1021.77 65.3374 1022.18 65.2021 1022.58 64.9316C1023.12 64.9316 1023.67 64.661 1024.21 64.661C1024.34 64.661 1024.48 64.5257 1024.48 64.7963C1024.48 65.0668 1024.48 65.2021 1024.75 65.3374C1025.02 65.4727 1025.15 65.2021 1025.29 65.0668C1025.69 65.3374 1025.69 64.9316 1025.96 64.7963C1026.24 64.661 1026.37 64.5257 1026.64 64.5257C1026.91 64.9316 1027.18 64.661 1027.45 64.5257C1027.45 64.2552 1026.91 64.3905 1027.05 63.9846C1027.05 63.9846 1027.05 63.9846 1026.91 63.9846C1027.05 64.1199 1027.18 64.2552 1027.45 63.9846C1027.45 63.9846 1027.45 63.8494 1027.59 63.8494C1027.86 63.7141 1027.99 63.7141 1028.26 63.7141V63.5788C1028.26 63.5788 1028.26 63.5788 1028.26 63.7141C1028.54 63.8494 1028.54 63.5788 1028.54 63.4435C1028.54 63.4435 1028.54 63.4435 1028.54 63.3083V63.173C1028.67 63.173 1028.94 63.3083 1029.08 63.173L1029.21 63.0377C1029.35 63.173 1029.62 63.0377 1029.89 63.173C1030.02 63.0377 1030.29 63.4435 1030.43 63.0377C1031.11 63.3083 1030.97 63.0377 1030.97 62.9024C1031.11 62.7672 1031.24 62.7672 1031.38 62.6319C1031.51 62.4966 1031.78 62.4966 1031.92 62.3613C1032.05 62.3613 1032.19 62.3613 1032.32 62.2261C1032.59 62.2261 1032.73 61.9555 1033 61.8203C1033.13 61.8203 1033.27 61.8203 1033.4 61.685C1033.54 61.685 1033.68 61.5497 1033.81 61.4144C1033.95 61.0086 1034.35 61.1439 1034.62 60.8733C1034.62 60.8733 1034.62 60.8733 1034.76 60.7381L1034.89 60.6028C1035.3 60.3322 1035.03 60.3322 1034.89 60.197C1035.03 60.0617 1035.3 60.0617 1035.43 59.7911C1035.43 59.7911 1035.43 59.7911 1035.57 59.6559C1036.11 59.5206 1036.38 58.9795 1036.92 58.7089C1037.46 58.5737 1037.73 58.0326 1038.14 57.6268C1038.41 57.4915 1038.68 57.2209 1038.95 57.0857C1039.09 56.8151 1039.63 56.8151 1039.36 56.274C1039.36 56.274 1039.36 56.274 1039.36 56.1387C1039.63 55.8682 1040.03 55.7329 1040.3 55.4624C1040.57 55.4624 1040.71 55.4624 1040.44 55.1918V55.0566C1040.71 54.9213 1040.98 54.786 1041.12 54.5155C1041.25 54.5155 1041.25 54.5155 1041.39 54.3802C1041.66 54.2449 1041.93 54.1096 1042.06 53.8391C1042.33 53.7038 1042.33 54.2449 1042.47 53.9744C1042.74 53.7038 1043.01 53.5685 1043.28 53.298H1043.42C1043.96 52.7569 1044.5 52.2158 1045.17 51.81C1045.44 51.6747 1045.58 51.5394 1045.58 51.2689C1045.58 50.9983 1045.44 50.9983 1045.31 50.9983C1045.31 50.8631 1045.31 50.7278 1045.17 50.7278C1045.17 50.322 1045.71 50.4572 1045.71 50.1867C1046.12 50.0514 1046.26 49.6456 1046.66 49.5103C1047.07 49.2398 1047.61 49.1045 1048.01 48.8339C1048.15 48.6987 1048.42 48.5634 1048.42 48.2928C1048.83 48.2928 1049.1 48.0223 1049.37 47.7517C1049.23 47.6165 1048.96 47.887 1048.96 47.6165C1049.23 47.6165 1049.5 47.3459 1049.5 47.0754C1049.5 46.5343 1049.77 46.2637 1050.18 45.9932C1050.31 45.7226 1050.45 45.5874 1050.45 45.1815C1050.58 45.1815 1050.58 45.1815 1050.72 45.3168C1050.86 45.4521 1050.72 45.7226 1050.99 45.5874C1051.26 45.5874 1051.13 45.3168 1051.13 45.1815C1051.13 45.1815 1051.13 45.1815 1051.13 45.0463C1051.4 44.911 1051.67 45.1815 1051.8 45.0463C1051.94 44.911 1051.94 44.7757 1051.94 44.6404C1052.21 44.5052 1052.34 44.3699 1052.61 44.2346C1052.48 43.9641 1051.94 44.3699 1052.07 43.8288C1052.21 43.8288 1052.34 43.6935 1052.34 43.8288C1052.48 44.0993 1052.61 44.0993 1052.88 43.8288C1053.02 43.6935 1053.15 43.6935 1053.15 43.5583C1053.29 43.423 1053.43 43.2877 1053.43 43.1524C1053.97 42.8819 1054.1 42.2055 1054.64 41.935C1054.78 41.935 1054.78 41.7997 1054.64 41.6644C1054.51 41.6644 1054.24 41.6644 1054.37 41.3939C1054.51 41.1233 1054.51 40.8528 1054.91 40.7175C1055.18 40.5822 1055.18 40.8528 1055.32 40.988C1055.45 41.2586 1055.59 41.1233 1055.73 40.8528C1056 40.4469 1056.27 40.3117 1056.67 40.0411C1056.81 39.7706 1057.08 39.6353 1057.35 39.3648C1057.35 38.9589 1057.08 39.0942 1056.81 39.0942C1056.67 39.0942 1056.67 38.9589 1056.67 38.8237C1056.4 38.4178 1056.4 38.012 1056.4 37.6062V37.4709C1056.54 37.4709 1056.67 37.4709 1056.67 37.6062C1056.67 37.7415 1056.81 37.8767 1056.81 38.012C1057.08 38.9589 1057.48 39.0942 1058.02 38.5531C1058.02 38.2826 1058.16 38.1473 1058.16 37.8767C1058.16 37.8767 1058.16 37.7415 1058.3 37.7415C1058.43 37.7415 1058.57 37.8767 1058.7 37.8767C1058.97 38.1473 1059.11 37.8767 1059.24 37.7415C1059.51 37.6062 1059.24 37.4709 1059.24 37.3356C1059.38 37.0651 1059.38 36.7945 1059.24 36.524C1058.97 36.1182 1059.24 35.4418 1059.65 35.3065C1060.19 35.1713 1060.19 35.036 1059.78 34.6302C1059.78 34.3596 1059.92 34.2243 1060.05 34.0891C1060.46 34.0891 1060.73 33.6832 1061.14 33.8185L1061.27 33.9538C1061.27 34.0891 1061.27 34.2243 1061.41 34.2243C1061.54 34.2243 1061.68 34.0891 1061.54 33.8185C1061.54 33.6832 1061.41 33.4127 1061.54 33.2774C1061.68 33.1421 1061.95 33.0069 1062.08 32.8716C1062.22 32.7363 1062.35 32.7363 1062.35 32.6011C1062.35 32.6011 1062.35 32.4658 1062.49 32.4658C1062.76 32.06 1062.35 31.7894 1062.49 31.3836L1062.62 31.2483C1062.76 31.113 1062.89 30.9778 1063.03 30.9778C1063.17 30.8425 1063.3 30.7072 1063.44 30.7072C1063.84 30.4367 1064.25 30.1661 1064.52 29.7603C1064.52 29.7603 1064.52 29.625 1064.65 29.625C1064.79 29.625 1064.79 29.4897 1064.92 29.4897C1065.06 29.3545 1065.33 29.4897 1065.46 29.3545C1065.74 29.2192 1065.74 28.9487 1066.01 28.6781C1066.14 28.5428 1066.28 28.5428 1066.41 28.4076C1066.55 28.4076 1066.55 28.2723 1066.55 28.2723C1066.82 27.8665 1067.09 28.137 1067.49 28.137L1067.63 28.0017C1067.76 28.0017 1067.76 27.8665 1067.9 27.7312C1068.04 27.5959 1068.04 27.4606 1068.17 27.4606C1068.31 27.3254 1068.31 27.0548 1068.31 26.9195C1068.71 27.0548 1069.12 27.0548 1069.39 26.7843C1069.79 26.3784 1070.33 25.9726 1070.61 25.4315C1070.74 25.4315 1070.88 25.161 1071.15 25.161C1071.42 25.161 1071.42 24.8904 1071.55 24.7552C1072.09 24.3493 1073.04 24.4846 1073.31 23.673C1073.45 23.5377 1073.85 23.5377 1073.72 23.1319C1073.72 23.1319 1073.99 22.9966 1074.12 22.9966C1074.8 23.1319 1075.2 22.8613 1075.61 22.3202C1075.88 22.3202 1076.02 21.9144 1076.29 22.0497C1076.42 22.1849 1076.56 22.0497 1076.69 21.9144C1076.83 21.6439 1077.1 21.5086 1077.23 21.238C1077.23 21.238 1077.23 21.238 1077.37 21.238H1077.5C1077.5 21.238 1077.64 21.238 1077.64 21.3733C1077.64 21.5086 1077.5 21.6439 1077.37 21.6439H1077.23C1076.96 21.7791 1076.69 21.9144 1076.69 22.1849C1076.56 22.5908 1076.29 22.8613 1076.15 23.1319C1076.15 23.1319 1076.15 23.1319 1076.15 23.2671C1075.88 23.2671 1075.61 23.2671 1075.48 23.673C1075.34 23.8082 1075.2 23.9435 1075.07 24.0788C1074.93 24.3493 1074.93 24.4846 1074.53 24.4846C1074.39 24.4846 1074.26 24.4846 1074.26 24.7552C1074.12 24.8904 1073.99 24.8904 1073.85 25.0257C1073.72 25.161 1073.72 25.4315 1073.45 25.5668C1073.18 25.5668 1073.18 25.2963 1073.18 25.0257C1073.18 24.8904 1073.18 24.7552 1073.04 24.7552C1072.77 24.7552 1072.36 25.7021 1072.5 25.8373C1073.18 26.1079 1072.9 26.1079 1072.77 26.2432ZM1080.62 17.3151C1080.62 17.4504 1080.48 17.5856 1080.48 17.7209C1080.35 17.8562 1080.21 17.9915 1080.07 18.1267H1079.94C1079.53 18.3973 1079.13 18.9384 1078.59 18.9384C1078.45 18.9384 1078.32 19.0736 1078.18 18.9384C1078.18 18.8031 1078.18 18.6678 1078.32 18.6678L1078.45 18.5325C1078.45 18.5325 1078.45 18.3973 1078.59 18.3973C1079.13 18.262 1079.13 17.9915 1079.13 17.5856C1079.13 17.4504 1079.26 17.3151 1079.4 17.3151C1079.67 17.1798 1079.8 17.0445 1079.94 16.9093C1080.21 16.5034 1080.48 16.774 1080.75 16.9093C1081.16 17.0445 1080.75 17.1798 1080.62 17.3151ZM1058.02 37.8767C1057.89 37.6062 1057.75 37.4709 1057.48 37.4709C1057.62 37.4709 1057.62 37.4709 1057.62 37.3356C1057.75 37.3356 1057.89 37.3356 1058.02 37.3356C1058.02 37.6062 1058.02 37.7415 1058.02 37.8767ZM1071.69 8.79281C1071.69 8.79281 1071.82 8.92809 1071.96 8.92809C1071.82 9.06336 1071.96 9.19864 1071.96 9.33391C1071.82 9.33391 1071.69 9.33391 1071.55 9.46919C1071.55 9.46919 1071.55 9.46919 1071.55 9.60446C1071.42 9.60446 1071.42 9.60446 1071.28 9.46919C1071.42 9.06336 1071.69 9.06336 1071.69 8.79281ZM1070.74 9.33391C1070.88 9.46919 1070.88 9.46919 1070.74 9.33391C1070.88 9.46919 1070.88 9.60446 1070.74 9.60446C1070.47 9.60446 1070.47 9.46919 1070.47 9.33391C1070.61 9.46919 1070.74 9.46919 1070.74 9.33391ZM1069.12 10.4161C1068.98 10.5514 1068.98 10.5514 1068.85 10.5514C1068.98 10.5514 1068.98 10.4161 1069.12 10.4161ZM1035.16 22.9966C1035.3 23.2671 1035.3 23.673 1035.57 23.9435C1035.57 23.9435 1035.43 24.2141 1035.43 23.9435C1035.3 23.673 1035.16 23.4024 1034.89 23.1319C1035.03 23.1319 1035.03 22.9966 1035.16 22.9966C1035.03 22.9966 1035.03 22.9966 1035.03 22.9966H1035.16ZM1013.25 63.4435C1013.25 63.173 1012.98 63.0377 1012.84 62.9024C1012.3 62.2261 1012.03 61.4144 1011.9 60.6028C1011.9 60.197 1011.76 59.7911 1011.49 59.5206C1011.49 59.25 1011.63 58.9795 1011.63 58.7089C1011.63 58.7089 1011.63 58.5737 1011.76 58.5737C1011.76 58.1679 1012.03 57.762 1012.17 57.3562C1012.3 57.2209 1012.3 56.9504 1012.03 56.8151C1012.03 56.6798 1012.17 56.5446 1012.03 56.4093C1012.17 56.4093 1012.3 56.274 1012.44 56.1387C1012.44 56.4093 1012.3 56.5446 1012.3 56.6798C1012.17 56.9504 1012.3 57.2209 1012.57 57.2209C1012.44 57.4915 1012.57 57.8973 1012.57 58.1679C1012.44 58.4384 1012.3 58.7089 1012.44 58.9795C1012.84 59.25 1012.57 59.6559 1012.71 59.9264C1012.84 60.4675 1013.52 61.0086 1012.84 61.685C1012.84 62.2261 1013.25 62.6319 1013.52 62.6319C1013.93 62.6319 1014.2 62.9024 1014.6 62.9024C1014.74 63.0377 1014.74 63.173 1014.87 63.173C1014.87 63.7141 1015.14 63.7141 1015.55 63.7141C1015.68 63.7141 1015.68 63.8494 1015.82 63.8494C1015.95 63.9846 1015.95 63.9846 1016.09 64.1199C1016.09 64.1199 1016.09 64.1199 1016.09 64.2552C1016.23 64.5257 1016.5 64.3905 1016.63 64.5257C1016.5 64.5257 1016.23 64.3905 1016.09 64.5257C1016.09 64.5257 1016.09 64.5257 1015.95 64.5257C1015.68 64.3905 1015.41 64.2552 1015.01 64.1199C1014.87 63.9846 1014.74 63.8494 1014.6 64.1199C1014.47 64.2552 1014.74 64.2552 1014.87 64.2552C1014.87 64.3905 1015.01 64.5257 1015.14 64.661C1015.55 64.7963 1015.14 64.7963 1015.14 64.7963C1015.01 64.7963 1014.87 64.7963 1014.74 64.7963V64.661C1014.6 64.3905 1014.33 64.5257 1014.2 64.3905C1014.2 64.3905 1014.2 64.3905 1014.2 64.2552C1013.52 63.5788 1013.38 63.4435 1013.25 63.4435ZM1014.06 64.2552C1014.06 64.3905 1014.06 64.3905 1014.06 64.2552ZM1047.74 48.8339C1047.61 48.6987 1047.61 48.5634 1047.47 48.4281C1047.88 48.4281 1048.01 48.1576 1048.15 47.887C1048.15 47.887 1048.15 47.887 1048.15 47.7517C1048.29 47.4812 1048.42 47.2107 1048.69 47.0754C1048.69 47.2107 1048.83 47.3459 1048.69 47.3459C1048.42 47.4812 1048.42 47.887 1048.42 48.1576L1048.29 48.2928C1048.29 48.2928 1048.15 48.2928 1048.15 48.4281L1048.01 48.5634C1047.88 48.6987 1047.74 48.6987 1047.74 48.8339ZM1056.67 39.5C1056.67 39.6353 1056.81 39.7706 1056.81 39.9059C1056.67 40.0411 1056.54 40.1764 1056.67 40.3117C1056.4 40.3117 1056.27 40.5822 1056 40.5822C1056.13 40.4469 1056.27 40.3117 1056.4 40.1764C1056.4 40.0411 1056.4 39.9059 1056.54 39.6353C1056.4 39.7706 1056.54 39.6353 1056.67 39.5C1056.54 39.5 1056.54 39.5 1056.67 39.5ZM1072.9 21.238C1073.45 20.8322 1073.85 20.4264 1073.99 19.8853C1073.99 19.8853 1073.99 19.8853 1074.12 19.75C1074.39 19.75 1074.66 19.6147 1074.8 19.3442C1074.93 19.2089 1074.93 19.2089 1075.07 19.0736C1075.2 18.9384 1075.2 18.9384 1075.34 18.8031C1075.61 18.8031 1075.61 18.5325 1075.75 18.3973C1076.15 18.3973 1076.56 18.1267 1076.69 17.7209C1076.83 17.5856 1076.69 17.4504 1076.83 17.1798L1076.96 17.0445C1077.1 16.9093 1076.96 16.774 1077.1 16.6387C1077.23 16.6387 1077.23 16.6387 1077.37 16.6387C1077.5 16.6387 1077.64 16.6387 1077.77 16.774C1078.18 16.6387 1078.59 16.5034 1078.72 16.0976C1078.72 15.9623 1078.59 15.8271 1078.72 15.8271C1079.13 15.9623 1079.13 15.8271 1079.26 15.5565C1079.67 15.286 1079.94 14.8801 1080.48 14.6096C1080.89 14.4743 1081.16 14.2038 1081.29 13.798C1081.43 13.6627 1081.7 13.798 1081.7 13.5274C1081.83 13.3921 1081.97 13.3921 1082.1 13.2569C1082.24 13.2569 1082.37 13.2569 1082.51 13.2569C1082.92 12.9863 1083.46 12.5805 1083.86 12.3099C1084.27 11.9041 1084.94 11.7688 1085.35 11.2277C1085.49 11.2277 1085.62 11.2277 1085.62 11.0925C1085.62 11.0925 1085.62 11.0925 1085.76 11.0925C1085.89 11.0925 1085.89 10.9572 1086.03 10.9572C1086.03 10.9572 1086.03 10.9572 1085.89 11.0925C1085.76 11.2277 1085.76 11.4983 1086.03 11.363C1086.7 11.0925 1087.24 10.5514 1087.79 10.1456C1087.92 10.1456 1088.06 10.1456 1088.19 10.2808C1088.19 10.5514 1088.06 10.6867 1087.92 10.6867C1087.65 10.8219 1087.38 10.9572 1087.24 11.2277C1086.97 11.363 1086.7 11.6336 1086.57 11.7688C1085.89 12.0394 1085.62 12.5805 1085.08 12.9863C1084.94 13.1216 1085.08 13.1216 1085.21 13.1216C1085.62 12.9863 1086.03 12.851 1086.3 12.4452C1086.16 12.5805 1085.89 12.7158 1085.76 12.9863C1085.62 12.9863 1085.49 13.1216 1085.35 13.2569C1084.67 14.2038 1083.46 14.6096 1082.51 15.4212C1082.24 15.0154 1082.24 15.0154 1081.97 15.0154C1082.24 15.4212 1082.24 15.9623 1082.1 16.3682C1081.97 16.3682 1081.97 16.3682 1081.83 16.3682C1081.7 16.3682 1081.56 16.3682 1081.56 16.3682C1081.56 16.3682 1081.56 16.3682 1081.43 16.3682C1081.02 15.9623 1081.29 15.5565 1081.43 15.0154C1080.75 15.6918 1080.21 16.3682 1079.26 16.6387C1079.26 16.6387 1079.26 16.6387 1079.26 16.774C1079.26 16.9093 1079.13 17.0445 1079.13 17.1798C1079.13 17.1798 1079.13 17.1798 1078.99 17.3151C1078.86 17.3151 1078.86 17.3151 1078.72 17.4504C1078.18 17.8562 1077.77 18.3973 1077.23 18.8031C1077.1 18.9384 1076.96 19.0736 1076.83 19.0736C1076.56 19.2089 1076.42 19.3442 1076.29 19.6147C1076.02 19.75 1075.75 19.8853 1075.61 20.1558L1075.48 20.2911C1075.2 20.4264 1075.07 20.6969 1075.07 20.8322C1075.07 21.1028 1074.93 21.238 1074.66 21.3733C1074.39 21.6439 1073.85 21.6439 1073.72 22.1849C1073.58 22.726 1073.04 22.9966 1072.77 23.5377C1072.63 23.673 1072.36 23.8082 1072.23 23.673C1071.96 23.5377 1072.09 23.4024 1072.09 23.2671C1072.09 23.1319 1072.09 22.9966 1071.96 22.726C1071.96 22.726 1071.96 22.726 1071.82 22.726C1071.96 22.3202 1072.09 21.9144 1072.36 21.6439C1072.36 21.6439 1072.36 21.6439 1072.5 21.7791C1072.77 22.0497 1072.77 21.7791 1072.9 21.6439C1072.9 21.7791 1072.9 21.5086 1072.9 21.238ZM1078.86 23.1319C1078.72 23.2671 1078.72 23.5377 1078.45 23.4024C1078.72 22.9966 1078.99 22.726 1079.13 22.3202C1079.26 22.4555 1079.13 22.5908 1079.26 22.726V22.8613C1078.99 22.726 1078.86 22.9966 1078.86 23.1319ZM1080.62 22.0497C1080.48 22.3202 1080.21 22.3202 1080.07 22.3202C1079.8 22.3202 1079.94 22.0497 1079.94 21.9144L1079.8 21.7791V21.6439C1080.21 21.6439 1080.35 21.3733 1080.48 21.1028C1080.48 20.9675 1080.62 20.8322 1080.62 20.8322C1080.62 20.6969 1080.75 20.6969 1080.75 20.5617C1080.75 20.4264 1080.89 20.4264 1080.89 20.4264L1080.75 20.5617C1080.89 20.8322 1080.89 20.9675 1080.89 21.238C1080.89 21.5086 1080.89 21.6439 1081.02 21.9144C1080.75 21.9144 1080.75 21.9144 1080.62 22.0497ZM1083.19 18.1267C1083.05 18.262 1082.92 18.5325 1082.64 18.5325C1082.78 18.3973 1082.78 18.3973 1082.78 18.262C1082.92 18.262 1083.05 18.1267 1083.05 17.8562C1083.19 17.9915 1083.32 17.9915 1083.19 18.1267ZM1092.25 13.2569C1092.25 13.1216 1092.11 13.1216 1092.11 12.9863C1092.38 12.851 1092.65 12.7158 1092.93 12.5805H1093.06C1093.2 12.5805 1093.2 12.5805 1093.33 12.4452C1093.47 12.3099 1093.74 12.3099 1093.74 12.1747H1093.87C1093.87 12.3099 1093.74 12.4452 1093.6 12.4452C1093.47 12.4452 1093.33 12.4452 1093.33 12.7158C1093.06 12.7158 1092.93 12.851 1092.93 13.1216C1092.52 12.9863 1092.38 13.1216 1092.25 13.2569Z" fill="white"/>
<path d="M1036.25 25.0259C1036.38 25.4318 1036.38 25.8376 1036.38 26.3787C1036.38 26.514 1036.38 26.6492 1036.65 26.514C1036.79 26.514 1036.79 26.3787 1036.79 26.2434C1036.52 25.9729 1036.79 25.8376 1036.92 25.7023C1037.19 25.2965 1037.06 24.7554 1036.79 24.6201C1036.52 24.4848 1036.38 24.3496 1036.25 24.2143C1035.84 24.4848 1036.11 24.7554 1036.25 25.0259Z" fill="white"/>
<path d="M995.528 20.4264C995.663 20.4264 995.799 20.4264 996.069 20.2911C995.934 20.2911 995.799 20.4264 995.663 20.1559C995.934 20.1559 996.069 19.4795 996.475 19.8853C996.475 20.0206 996.34 20.0206 996.475 20.1559C996.61 20.1559 996.61 20.1559 996.746 20.0206V19.8853C996.746 19.7501 996.746 19.4795 996.881 19.3442C997.151 19.209 997.557 19.3442 997.693 19.0737C997.828 18.9384 997.828 18.8031 997.693 18.6679C997.557 18.3973 997.422 18.5326 997.287 18.6679C997.151 18.6679 996.881 18.6679 996.746 18.9384C996.475 18.9384 996.475 19.0737 996.475 19.209C996.069 19.209 996.34 19.3442 996.34 19.4795C996.069 19.4795 995.799 19.6148 995.528 19.6148C995.122 19.7501 995.393 20.0206 995.258 20.2911C995.122 20.4264 995.393 20.4264 995.528 20.4264Z" fill="white"/>
<path d="M991.876 22.1849C992.011 22.0496 992.146 21.9143 992.417 21.7791C992.958 21.6438 993.229 21.238 993.634 21.238C993.634 21.238 993.634 21.1027 993.77 21.1027C994.04 21.1027 994.311 20.9674 994.581 20.9674C994.717 20.9674 994.852 20.8321 994.717 20.6969C994.717 20.5616 994.581 20.5616 994.446 20.5616C994.175 20.6969 993.77 20.6969 993.634 20.9674H993.499C993.093 21.1027 992.687 21.5085 992.146 21.238C992.146 21.238 992.011 21.238 991.876 21.3732C991.741 21.6438 991.47 21.9143 991.335 22.1849C991.47 22.5907 991.741 22.4554 991.876 22.1849Z" fill="white"/>
<path d="M1064.38 33.2775V33.4128V33.5481C1064.38 33.8186 1064.25 33.9539 1063.98 33.9539C1063.71 34.0892 1063.57 34.2244 1063.3 34.3597C1063.3 34.3597 1063.3 34.3597 1063.17 34.3597C1063.03 34.495 1062.76 34.495 1062.62 34.3597C1062.49 34.2244 1062.35 34.2244 1062.35 34.3597C1062.35 34.6302 1062.08 34.7655 1062.08 35.0361C1061.95 35.1713 1061.81 35.3066 1061.68 35.4419C1061.54 35.4419 1061.54 35.5772 1061.41 35.5772C1061.27 35.5772 1061.41 35.4419 1061.41 35.4419C1061.54 35.3066 1061.68 35.3066 1061.54 35.1713C1061.27 35.0361 1061.27 35.3066 1061.27 35.4419C1061.27 35.8477 1061 36.1183 1060.73 36.3888C1060.73 36.5241 1060.6 36.5241 1060.73 36.6594C1061 36.5241 1061.14 36.3888 1061.27 36.1183C1061.54 36.1183 1061.68 35.8477 1061.81 35.7124C1061.95 35.5772 1062.08 35.4419 1062.35 35.1713C1062.76 35.0361 1063.03 34.6302 1063.3 34.3597C1063.84 34.2244 1064.11 33.8186 1064.52 33.5481C1064.65 33.4128 1064.79 33.1422 1064.65 33.007C1064.65 32.8717 1064.52 33.1422 1064.38 33.2775Z" fill="white"/>
<path d="M1012.17 12.8511C1012.17 12.9863 1012.03 12.9863 1012.17 13.1216C1012.3 13.1216 1012.44 13.1216 1012.44 12.9863C1012.44 12.4452 1012.84 12.5805 1013.11 12.5805C1013.25 12.5805 1013.38 12.5805 1013.38 12.4452C1013.38 12.31 1013.38 12.31 1013.38 12.1747C1013.25 12.0394 1013.25 12.1747 1013.11 12.1747C1012.98 12.1747 1012.98 12.1747 1012.84 12.1747C1012.44 12.1747 1012.17 12.31 1012.03 12.5805C1012.03 12.8511 1012.44 12.4452 1012.17 12.8511Z" fill="white"/>
<path d="M1084 19.4796C1084 19.3443 1084.13 19.209 1084.13 19.0737V18.9385C1084.13 18.8032 1084.13 18.6679 1084 18.6679C1083.86 18.6679 1083.86 18.8032 1083.86 18.9385C1083.86 18.9385 1083.86 18.9385 1083.86 19.0737C1083.73 19.209 1083.86 19.3443 1083.73 19.4796C1083.59 19.4796 1083.46 19.3443 1083.32 19.3443C1083.32 19.6148 1083.32 19.7501 1083.05 19.8854C1082.92 20.0206 1082.92 20.1559 1083.05 20.2912C1083.19 20.4265 1083.19 20.2912 1083.32 20.2912C1083.86 20.1559 1084 19.8854 1084 19.4796Z" fill="white"/>
<path d="M1035.84 22.7263C1035.84 22.8615 1035.7 22.9968 1035.98 23.1321C1036.52 22.4557 1035.7 22.0499 1035.7 21.5088C1035.43 21.7793 1035.43 22.0499 1035.7 22.3204C1035.98 22.4557 1035.98 22.591 1035.84 22.7263Z" fill="white"/>
<path d="M1072.9 8.11637C1073.18 7.71055 1073.72 7.71055 1073.99 7.30473L1074.12 7.16945C1074.12 7.03418 1073.99 7.03418 1073.85 7.03418C1073.58 7.30473 1073.31 7.84582 1072.77 7.84582C1072.63 7.84582 1072.63 7.9811 1072.77 8.11637C1072.77 8.25165 1072.9 8.25165 1072.9 8.11637Z" fill="white"/>
<path d="M1060.32 36.6594C1060.19 36.93 1060.05 37.2005 1060.05 37.4711C1060.05 37.6063 1060.19 37.7416 1060.32 37.6063C1060.46 37.4711 1060.6 37.3358 1060.6 37.0652C1060.46 36.93 1060.6 36.7947 1060.32 36.6594Z" fill="white"/>
<path d="M1085.62 19.6149C1085.21 19.4797 1085.08 20.156 1084.67 20.156C1084.27 20.156 1084.13 20.5619 1083.73 20.5619C1083.46 20.5619 1083.32 20.5619 1083.32 20.8324C1083.32 20.9677 1083.19 21.103 1083.32 21.103C1083.46 21.2382 1083.73 21.103 1083.86 20.9677C1083.86 20.9677 1084 20.9677 1084 20.8324C1084.13 20.4266 1084.54 20.4266 1084.94 20.2913C1085.21 20.156 1085.49 20.0208 1085.62 19.7502C1085.76 19.6149 1085.76 19.4797 1085.62 19.4797V19.6149Z" fill="white"/>
<path d="M1007.43 14.8803C1007.57 14.8803 1007.57 14.7451 1007.57 14.6098C1007.43 14.204 1007.57 14.0687 1007.97 13.9334C1007.7 13.9334 1007.43 13.7981 1007.3 14.0687C1007.16 14.3392 1007.03 14.4745 1007.3 14.7451C1007.3 14.8803 1007.3 15.0156 1007.43 14.8803Z" fill="white"/>
<path d="M1027.05 13.2571C1027.18 13.3924 1027.32 13.3924 1027.45 13.2571C1027.45 13.1218 1027.32 13.1218 1027.05 13.2571C1026.51 12.8513 1025.96 12.716 1025.42 12.716C1025.42 12.8513 1025.42 12.8513 1025.56 12.8513C1026.1 12.9866 1026.64 13.1218 1027.05 13.2571Z" fill="white"/>
<path d="M1036.92 27.7311C1036.92 27.7311 1036.92 27.8664 1037.06 27.8664C1037.06 27.8664 1037.19 27.8664 1037.19 27.7311C1037.19 27.3253 1037.33 27.0547 1037.06 26.6489C1036.79 27.0547 1036.92 27.4606 1036.92 27.7311Z" fill="white"/>
<path d="M1088.6 1.62335C1088.73 1.75863 1088.73 1.48808 1088.73 1.35281C1088.73 1.21753 1088.73 1.08226 1088.6 1.21753C1088.33 1.35281 1087.92 1.21753 1088.06 1.48808C1088.06 1.8939 1088.33 1.35281 1088.6 1.62335Z" fill="white"/>
<path d="M1083.59 2.70538C1083.73 2.70538 1083.73 2.70538 1083.86 2.70538C1083.86 2.57011 1083.86 2.57011 1083.86 2.43483C1083.73 2.29956 1083.73 2.29956 1083.59 2.29956C1083.46 2.43483 1083.05 2.43483 1083.05 2.70538C1083.19 2.70538 1083.46 2.57011 1083.59 2.70538Z" fill="white"/>
<path d="M1014.2 12.4453C1014.33 12.4453 1014.33 12.3101 1014.33 12.1748C1014.33 12.0395 1014.2 11.9042 1014.06 11.9042C1013.93 11.9042 1013.79 12.0395 1013.79 12.1748C1013.93 12.3101 1014.06 12.4453 1014.2 12.4453Z" fill="white"/>
<path d="M1086.03 19.4796C1086.03 19.6149 1086.03 19.6149 1086.03 19.4796C1086.43 19.6149 1086.43 19.3443 1086.7 19.0738C1086.3 19.2091 1086.16 19.2091 1086.03 19.4796Z" fill="white"/>
<path d="M1084.54 2.97604C1084.67 2.97604 1084.67 2.97604 1084.81 2.97604C1084.94 3.11131 1084.94 3.11131 1085.08 2.97604C1085.08 2.84077 1085.21 2.70549 1085.08 2.57022L1084.94 2.70549C1084.67 2.29967 1084.67 2.84077 1084.54 2.84077L1084.4 2.97604C1084.27 2.97604 1084.4 2.97604 1084.54 2.97604Z" fill="white"/>
<path d="M1006.76 14.3392C1006.89 14.2039 1007.03 14.0686 1007.03 13.9334C1007.03 13.7981 1006.89 13.6628 1006.89 13.7981C1006.62 13.7981 1006.76 14.0686 1006.62 14.3392C1006.62 14.3392 1006.62 14.3392 1006.76 14.3392Z" fill="white"/>
<path d="M1090.08 15.5565V15.6918C1090.36 15.8271 1090.49 15.5565 1090.63 15.4213C1090.63 15.4213 1090.63 15.4213 1090.63 15.286C1090.49 15.1507 1090.22 15.286 1090.08 15.5565Z" fill="white"/>
<path d="M991.199 22.4555C991.064 22.1849 990.794 22.1849 990.658 22.4555C990.658 22.5907 990.658 22.5907 990.658 22.726C990.929 22.726 991.064 22.5907 991.199 22.4555Z" fill="white"/>
<path d="M1100.91 7.71069C1101.04 7.98124 1101.31 7.84596 1101.45 7.71069V7.57541C1101.31 7.44014 1101.18 7.71069 1100.91 7.71069Z" fill="white"/>
<path d="M1011.76 13.1217C1011.63 12.8511 1011.63 12.5806 1011.36 12.5806C1011.36 12.5806 1011.22 12.5806 1011.22 12.7158C1011.36 12.9864 1011.49 13.1217 1011.76 13.1217Z" fill="white"/>
<path d="M1093.47 13.9333C1093.74 14.0686 1093.87 14.0686 1093.87 13.9333C1093.87 13.9333 1094.01 13.7981 1093.87 13.7981C1093.74 13.5275 1093.74 13.7981 1093.47 13.9333Z" fill="white"/>
<path d="M1078.72 4.86998C1078.86 4.86998 1078.72 4.73471 1078.72 4.86998C1078.45 4.73471 1078.32 4.73471 1078.18 5.00526C1078.45 5.00526 1078.72 5.00526 1078.72 4.86998Z" fill="white"/>
<path d="M1092.52 14.3392C1092.38 14.3392 1092.25 14.4744 1092.11 14.6097C1092.11 14.6097 1092.11 14.745 1092.25 14.745C1092.38 14.6097 1092.52 14.6097 1092.52 14.3392C1092.65 14.3392 1092.65 14.3392 1092.52 14.3392Z" fill="white"/>
<path d="M994.852 20.0206C994.581 20.0206 994.446 20.0206 994.311 20.4265C994.581 20.2912 994.716 20.2912 994.852 20.0206Z" fill="white"/>
<path d="M990.388 23.1321C990.523 23.1321 990.658 23.1321 990.658 22.9968C990.658 22.8615 990.523 22.8615 990.523 22.8615C990.388 22.8615 990.252 22.8615 990.252 22.9968C990.252 23.1321 990.388 23.1321 990.388 23.1321Z" fill="white"/>
<path d="M1027.72 13.3923C1027.86 13.5276 1028.13 13.6629 1028.4 13.6629C1028.13 13.3923 1027.99 13.3923 1027.72 13.3923Z" fill="white"/>
<path d="M1089.81 0.676392C1089.81 0.811666 1089.81 0.94694 1089.81 1.21749C1090.08 0.94694 1090.08 0.94694 1089.81 0.676392Z" fill="white"/>
<path d="M1010.81 12.8511C1010.68 12.9863 1010.27 12.8511 1010.27 13.1216C1010.54 13.1216 1010.68 13.1216 1010.81 12.8511Z" fill="white"/>
<path d="M1081.43 3.51737C1081.56 3.3821 1081.56 3.24683 1081.56 3.24683C1081.43 3.24683 1081.43 3.24683 1081.29 3.3821C1081.16 3.3821 1081.02 3.51737 1081.02 3.65265C1081.16 3.78792 1081.29 3.65265 1081.43 3.51737Z" fill="white"/>
<path d="M1030.56 14.8802C1030.43 14.745 1030.29 14.6097 1030.02 14.6097C1030.16 14.745 1030.29 14.8802 1030.56 14.8802Z" fill="white"/>
<path d="M1088.46 16.5034C1088.46 16.6387 1088.6 16.6387 1088.73 16.6387C1088.87 16.2328 1089.41 16.3681 1089.41 15.827C1089.14 15.9623 1089 16.0976 1088.73 16.2328C1088.6 16.0976 1088.46 16.2328 1088.46 16.5034Z" fill="white"/>
<path d="M1035.98 23.5377C1035.98 23.673 1036.11 23.673 1036.11 23.673C1036.25 23.673 1036.25 23.5377 1036.25 23.5377C1036.25 23.4025 1036.25 23.4025 1036.11 23.4025C1035.98 23.4025 1035.84 23.5377 1035.98 23.5377Z" fill="white"/>
<path d="M1084.81 18.127C1084.67 18.3975 1084.54 18.3975 1084.54 18.668C1084.81 18.668 1084.81 18.5328 1084.81 18.127Z" fill="white"/>
<path d="M1086.43 2.02905C1086.43 1.7585 1086.3 1.62323 1086.16 1.62323C1086.16 1.62323 1086.03 1.62323 1086.03 1.7585C1086.16 1.89378 1086.16 2.02905 1086.43 2.02905Z" fill="white"/>
<path d="M1031.65 15.8273C1031.51 15.692 1031.51 15.4214 1031.24 15.4214C1031.24 15.692 1031.38 15.692 1031.65 15.8273Z" fill="white"/>
<path d="M1084.94 2.16443C1084.94 2.16443 1085.08 2.02915 1085.08 1.89388C1085.08 1.75861 1085.08 1.75861 1084.94 1.75861C1084.94 1.75861 1084.81 1.89388 1084.94 2.16443Z" fill="white"/>
<path d="M1032.86 17.7211C1032.86 17.8564 1032.86 17.9917 1033.13 17.9917C1033.27 18.1269 1033.13 18.3975 1033.4 18.5328C1033.4 18.3975 1033.4 18.1269 1033.4 17.9917C1033.4 17.7211 1033.27 17.5858 1033 17.5858C1033 17.4506 1032.86 17.4506 1032.73 17.4506C1032.59 17.4506 1032.86 17.5858 1032.86 17.7211Z" fill="white"/>
<path d="M1082.64 20.2912C1082.78 20.2912 1082.92 20.4265 1083.05 20.1559V20.0206C1082.78 20.1559 1082.64 20.2912 1082.64 20.2912Z" fill="white"/>
<path d="M1031.92 16.0976C1031.92 15.9623 1031.92 15.827 1031.78 15.827H1031.65V15.9623C1031.65 15.9623 1031.78 16.0976 1031.92 16.0976Z" fill="white"/>
<path d="M1006.62 14.8802C1006.62 15.0155 1006.62 15.0155 1006.76 15.1508C1006.76 15.1508 1006.89 15.1508 1006.89 15.0155C1006.89 14.8802 1006.89 14.8802 1006.76 14.8802C1006.76 14.7449 1006.76 14.7449 1006.62 14.8802Z" fill="white"/>
<path d="M1029.48 14.3391C1029.48 14.2038 1029.48 14.2038 1029.35 14.2038C1029.21 14.2038 1029.21 14.2038 1029.21 14.3391C1029.35 14.3391 1029.48 14.3391 1029.48 14.3391Z" fill="white"/>
<path d="M1080.35 3.92316H1080.21C1080.21 3.92316 1080.21 3.92316 1080.07 4.05843C1080.07 4.05843 1080.21 4.05843 1080.35 3.92316C1080.21 4.05843 1080.21 4.05843 1080.35 3.92316Z" fill="white"/>
<path d="M1032.86 17.0448C1032.59 16.9095 1032.59 16.9095 1032.59 17.0448C1032.59 17.0448 1032.59 17.18 1032.86 17.0448C1032.86 17.18 1032.73 17.18 1032.86 17.0448Z" fill="white"/>
<path d="M381.206 41.3145C381.206 47.5442 376.364 51.0051 367.159 51.0051H338V15.1181H367.531C375.247 15.1181 379.769 19.218 379.769 25.1282C379.769 28.2163 378.439 30.5591 375.513 32.4759C379.503 34.4992 381.206 37.1615 381.206 41.3145ZM372.959 25.5009C372.959 23.0516 371.096 21.4543 367.904 21.4543H345.024V29.7072H367.638C370.937 29.7072 372.959 28.0034 372.959 25.5009ZM374.182 40.5691C374.182 37.7472 371.948 36.0966 367.744 36.0966H344.97V44.669H367.159C371.682 44.6157 374.182 43.0184 374.182 40.5691ZM430.797 26.4593C430.797 33.7006 425.955 37.8004 417.122 37.8004H396.264V51.0051H389.241V15.1181H418.24C425.955 15.1181 430.797 19.5907 430.797 26.4593ZM423.667 26.619C423.667 23.0516 421.486 21.5075 416.91 21.5075H396.371V31.5175H417.335C421.486 31.4643 423.667 29.7604 423.667 26.619ZM474.642 25.9801C472.728 24.0715 470.44 22.5801 467.921 21.5996C465.403 20.6191 462.709 20.1708 460.009 20.2829C449.74 20.2829 443.248 25.5541 443.248 32.9551C443.248 40.5691 449.58 45.7339 460.116 45.7339C466.235 45.7339 470.864 43.9235 474.748 39.8237L480.761 43.0184C478.214 46.0096 475.012 48.3728 471.403 49.9242C467.795 51.4756 463.878 52.1735 459.956 51.9635C445.483 51.9635 435.959 43.9768 435.959 32.9551C435.959 27.1515 438.459 22.4659 443.461 18.792C447.505 15.8636 453.252 14 459.53 14C468.523 14 475.493 17.1414 481.08 23.797L474.642 25.9801ZM489.7 51.0051V15.1181H527V21.5075H496.724V29.228H517.795V35.6174H496.724V44.7222H527V51.1116H489.7V51.0051Z" fill="white"/>
<path d="M46.3001 32.4C46.3001 43.9 37.3001 51.8 23.2001 51.8C16.9001 51.8 11.3001 50 7.40014 47.1C2.40014 43.5 0.000143876 38.7 0.000143876 32.9C-0.0112751 30.1242 0.657186 27.3879 1.94713 24.93C3.23708 22.4721 5.10927 20.3675 7.40014 18.8C11.5001 15.8 17.2001 14 23.6001 14C31.5001 14 37.8002 16.6 43.1002 22.2L36.6002 25.4C34.8232 23.6877 32.7233 22.3461 30.4227 21.4533C28.1222 20.5606 25.667 20.1345 23.2001 20.2C13.7001 20.2 7.10013 25.6 7.10013 32.8C7.10013 40.2 13.5001 45.4 23.2001 45.4C30.3001 45.4 35.4001 42.6 37.7001 37.4H21.7001V31.1H46.3001V32.4ZM90.0001 50.7L80.7001 37.7H63.1002V50.7H56.2001V15.3H84.9001C92.4001 15.3 97.2001 19.7 97.2001 26.5C97.2001 32.2 94.1001 36 88.4001 37.3L98.0001 50.7H90.0001ZM90.2001 26.6C90.2001 23.1 88.1001 21.5 83.5001 21.5H63.2001V31.4H83.9001C88.0001 31.4 90.2001 29.7 90.2001 26.6ZM144.3 47.1C140.3 50 134.7 51.8 128.5 51.8C122.2 51.8 116.6 50 112.6 47.1C107.6 43.5 105.2 38.7 105.2 32.9C105.2 27.2 107.7 22.5 112.7 18.8C116.7 15.9 122.4 14 128.5 14C134.6 14 140.3 15.8 144.3 18.8C149.3 22.4 151.8 27.2 151.8 32.9C151.8 38.7 149.3 43.5 144.3 47.1ZM128.5 20.3C118.9 20.3 112.3 25.7 112.3 32.9C112.3 40.3 118.6 45.5 128.5 45.5C138.3 45.5 144.6 40.3 144.6 32.9C144.6 25.7 138 20.3 128.5 20.3ZM181.9 51.8C169.1 51.8 161.3 46.4 161.3 39.1V15.3H168.2V37.7C168.2 42.8 172.9 45.5 181.9 45.5C190.9 45.5 195.6 42.7 195.6 37.7V15.3H202.5V39.1C202.5 46.4 194.7 51.8 181.9 51.8ZM255.2 26.5C255.2 33.6 250.4 37.7 241.7 37.7H221.1V50.7H214.2V15.3H242.8C250.4 15.3 255.2 19.7 255.2 26.5ZM248.1 26.6C248.1 23.1 246 21.5 241.4 21.5H221.1V31.4H241.8C245.9 31.4 248.1 29.7 248.1 26.6ZM264.2 50.7V15.3H301V21.6H271.1V29.2H291.9V35.5H271.1V44.5H301V50.8H264.2V50.7Z" fill="white"/>
</svg>
