<svg width="874" height="70" viewBox="0 0 874 70" fill="none" xmlns="http://www.w3.org/2000/svg">
<path d="M872.852 39.8H872.952C874.052 42.5 874.052 54.2 872.952 56.9C869.952 64.3 863.352 70 853.052 70H665.152V53.2H850.952C853.252 53.2 854.652 52.1 855.252 50.7C855.552 50 855.552 46.7 855.252 46C854.652 44.6 853.252 43.5 850.952 43.5H686.652C676.352 43.5 669.652 37.7 666.752 30.3C665.652 27.6 665.652 16 666.752 13.2C669.752 5.8 676.352 0 686.652 0V0.0999985H868.452V16.9H688.652C686.352 16.9 684.952 18 684.352 19.5C684.152 20.1 684.152 23.4 684.352 24.1C684.952 25.5 686.352 26.7 688.652 26.7H853.052V26.6C863.252 26.6 869.952 32.4 872.852 39.8Z" fill="white"/>
<path d="M651.612 16.8L439.512 17V26.6H651.612V43.4H439.512V53.2H651.612V70H439.512V0H651.612V16.8Z" fill="white"/>
<path d="M322.352 53.2H428.152V70H322.352C318.752 70 315.452 69.3 312.652 67.9C309.552 66.4 306.952 64.2 304.952 61.4L293.552 45.1C293.252 44.6 292.752 44.2 292.252 44C291.652 43.7 290.852 43.5 289.852 43.5H244.252V70H225.452V0.0999756H398.252C408.552 0.0999756 415.252 5.89998 418.152 13.2C419.252 16 419.252 27.6 418.152 30.4C415.252 37.7 408.552 43.5 398.252 43.5H313.252L318.652 51.6C318.952 52.1 319.352 52.5 319.952 52.7C320.452 53 321.252 53.2 322.352 53.2ZM244.252 16.9V26.7H398.252C400.552 26.7 401.952 25.6 402.552 24.1C402.852 23.4 402.952 22.7 402.952 21.8C402.952 21 402.852 20.2 402.552 19.5C401.952 18.1 400.552 17 398.252 17V16.9H244.252Z" fill="white"/>
<path d="M190.5 0H209.4V70H190.5V53.3C190.5 52.5 190.4 51.7 190.1 51C189.5 49.6 188.1 48.5 185.8 48.5H33.7L20.6 70H0L38.7 8.7C40.7 5.9 43.3 3.7 46.4 2.2C49.3 0.800001 52.5 0 56.1 0V0.0999985H190.5V0ZM190.5 31.8V16.9H56.1C55.1 16.9 54.3 17.1 53.7 17.4C53.1 17.6 52.7 18 52.4 18.5L43.9 31.7H187.9C188.8 31.7 189.6 31.8 190.5 31.8Z" fill="white"/>
</svg>
